SplineFontDB: 3.2
FontName: PolytonicExtension-Bold
FullName: Polytonic Extension Bold
FamilyName: Polytonic Extension
Weight: Bold
Copyright: Copyright 2001-2021 The STIX Fonts Project Authors https:github.comstipubstixfonts\n\nAdditions for polytonic Greek (c) Andrew Moschou 2025
Version: 2.130
ItalicAngle: 0
UnderlinePosition: -103
UnderlineWidth: 51
Ascent: 762
Descent: 238
InvalidEm: 0
sfntRevision: 0x00022148
LayerCount: 2
Layer: 0 0 "Back" 1
Layer: 1 0 "Fore" 0
XUID: [1021 572 1540606889 4677]
StyleMap: 0x0020
FSType: 0
OS2Version: 4
OS2_WeightWidthSlopeOnly: 0
OS2_UseTypoMetrics: 1
CreationTime: 1608127963
ModificationTime: 1743223304
PfmFamily: 81
TTFWeight: 700
TTFWidth: 5
LineGap: 250
VLineGap: 0
Panose: 0 0 0 0 0 0 0 0 0 0
OS2TypoAscent: 762
OS2TypoAOffset: 0
OS2TypoDescent: -238
OS2TypoDOffset: 0
OS2TypoLinegap: 250
OS2WinAscent: 1047
OS2WinAOffset: 0
OS2WinDescent: 441
OS2WinDOffset: 0
HheadAscent: 762
HheadAOffset: 0
HheadDescent: -238
HheadDOffset: 0
OS2SubXSize: 650
OS2SubYSize: 600
OS2SubXOff: 0
OS2SubYOff: 75
OS2SupXSize: 650
OS2SupYSize: 600
OS2SupXOff: 0
OS2SupYOff: 350
OS2StrikeYSize: 50
OS2StrikeYPos: 300
OS2CapHeight: 657
OS2XHeight: 473
OS2Vendor: 'STIX'
OS2CodePages: 2000019f.00000000
OS2UnicodeRanges: a00002ff.0000001f.00000000.00000000
Lookup: 1 0 0 "'locl' Localized Forms in Latin lookup 0" { "'locl' Localized Forms in Latin lookup 0 subtable"  } ['locl' ('latn' <'ROM ' > ) ]
Lookup: 1 0 0 "'locl' Localized Forms in Latin lookup 1" { "'locl' Localized Forms in Latin lookup 1 subtable"  } ['locl' ('latn' <'TRK ' > ) ]
Lookup: 1 0 0 "'locl' Localized Forms in Greek lookup 44" { "'locl' Localized Forms in Greek lookup 44 subtable"  } ['locl' ('grek' <'dflt' > ) ]
Lookup: 4 0 0 "'ccmp' Glyph Composition/Decomposition lookup 2" { "'ccmp' Glyph Composition/Decomposition lookup 2 subtable"  } ['ccmp' ('DFLT' <'dflt' > 'cyrl' <'dflt' > 'grek' <'dflt' > 'latn' <'LTH ' 'ROM ' 'TRK ' 'dflt' > ) ]

StartChar: .notdef
Encoding: 65536 -1 0
Width: 605
GlyphClass: 2
Flags: MW
HStem: -169 53<61 543 61 595 10 543> -8 115<283.5 319> 631 38<257.5 319> 734 51<61 61 61 543>
VStem: 10 51<-116 734 -116 785> 10 191<560.5 592.5 560.5 785> 126 75<560.5 571.5> 126 96<507.5 524 489.5 571.5> 243 115<32 63.5 32 64> 280 40<170 186 170 196 170 261> 391 90<446.5 556.5> 543 52<-116 734 734 734>
LayerCount: 2
Fore
SplineSet
595 -169 m 1xfa70
 10 -169 l 1
 10 785 l 1
 595 785 l 1
 595 -169 l 1xfa70
61 734 m 1
 61 -116 l 1
 543 -116 l 1
 543 734 l 1
 61 734 l 1
320 170 m 1
 280 170 l 1
 280 196 l 2
 280 326 391 363 391 517 c 0
 391 596 351 631 287 631 c 0
 228 631 201 608 201 577 c 0xf470
 201 544 222 543 222 505 c 0xf970
 222 474 201 461 177 461 c 0
 145 461 126 484 126 531 c 0
 126 612 195 669 296 669 c 0
 394 669 481 624 481 520 c 0
 481 373 320 295 320 186 c 2
 320 170 l 1
301 -8 m 0xfab0
 262 -8 243 15 243 48 c 0
 243 80 265 107 302 107 c 0
 337 107 358 79 358 48 c 0
 358 16 337 -8 301 -8 c 0xfab0
EndSplineSet
EndChar

StartChar: A
Encoding: 65 65 3
Width: 749
GlyphClass: 2
Flags: MW
HStem: 0 43<2 27.5 205 230 2 27.5 419 431.5 717 740> 211 52<223 417 223 435 205 417> 512 150<324 328 324 324> 642 20G<320 425 425 425>
VStem: 2 160<0 88.5 43 88.5> 2 228<0 43 0 43> 2 738<0 43 0 43>
AnchorPoint: "Anchor-5" 444 0 basechar 0
AnchorPoint: "Anchor-4" 338 0 basechar 0
AnchorPoint: "Anchor-2" 337 0 basechar 0
AnchorPoint: "Anchor-0" 370 657 basechar 0
LayerCount: 2
Fore
SplineSet
230 0 m 1xd4
 2 0 l 1
 2 43 l 1
 53 43 72 61 103 140 c 2
 320 662 l 1
 425 662 l 1
 641 138 l 2
 668 74 694 43 740 43 c 1
 740 0 l 1
 419 0 l 1
 419 43 l 1
 444 43 478 45 478 75 c 0
 478 90 469 123 458 151 c 2
 435 211 l 1
 205 211 l 1
 176 138 l 2
 170 121 162 97 162 80 c 0xd8
 162 48 180 43 230 43 c 1
 230 0 l 1xd4
223 263 m 1
 417 263 l 1
 328 512 l 1
 324 512 l 1xe2
 223 263 l 1
EndSplineSet
Substitution2: "'c2sc' Capitals to Small Capitals in Latin lookup 5 subtable" A.c2sc
EndChar

StartChar: B
Encoding: 66 66 4
Width: 672
GlyphClass: 2
Flags: MW
HStem: 0 43<35 75 35 389 35 75> 0 50<322.5 374.5 322.5 389> 317 53<277 326 326 335 277 326> 602 55<316.5 369 369 374> 613 44<35 74>
VStem: 128 149<134 317 53 370 370 527 527 565> 451 160<463.5 527> 475 167<119 238 118.5 238.5>
AnchorPoint: "Anchor-5" 397 0 basechar 0
AnchorPoint: "Anchor-4" 329 0 basechar 0
AnchorPoint: "Anchor-2" 323 0 basechar 0
AnchorPoint: "Anchor-0" 323 657 basechar 0
LayerCount: 2
Fore
SplineSet
389 0 m 2x75
 35 0 l 1x75
 35 43 l 1
 115 43 128 55 128 134 c 2
 128 527 l 2
 128 603 113 613 35 613 c 1xad
 35 657 l 1
 369 657 l 2
 553 657 611 598 611 508 c 0x76
 611 419 550 377 465 354 c 1
 465 348 l 1
 551 336 642 299 642 177 c 0
 642 60 552 0 389 0 c 2x75
333 50 m 0
 416 50 475 60 475 178 c 0
 475 299 408 317 335 317 c 2
 277 317 l 1
 277 53 l 1
 296 51 312 50 333 50 c 0
277 599 m 1
 277 370 l 1
 326 370 l 2
 424 370 451 401 451 488 c 0x76
 451 566 424 602 324 602 c 0
 309 602 296 601 277 599 c 1
EndSplineSet
Substitution2: "'c2sc' Capitals to Small Capitals in Latin lookup 5 subtable" B.c2sc
EndChar

StartChar: C
Encoding: 67 67 5
Width: 685
GlyphClass: 2
Flags: MW
HStem: -12 97<339.5 441> 615 54<321.5 433> 616 20G<533 559>
VStem: 45 157<253.5 434.5 253.5 436> 580 43<423 669>
AnchorPoint: "Anchor-5" 360 0 basechar 0
AnchorPoint: "Anchor-4" 360 0 basechar 0
AnchorPoint: "Anchor-2" 361 0 basechar 0
AnchorPoint: "Anchor-0" 382 657 basechar 0
LayerCount: 2
Fore
SplineSet
361 -12 m 0xd8
 143 -12 45 127 45 321 c 0xd8
 45 551 183 669 384 669 c 0
 490 669 518 636 548 636 c 0xb8
 570 636 576 654 580 669 c 1
 623 669 l 1
 623 423 l 1
 575 423 l 1
 548 548 484 615 382 615 c 0
 261 615 202 522 202 347 c 0
 202 160 269 85 410 85 c 0
 508 85 562 121 620 185 c 1
 652 157 l 1
 586 63 521 -12 361 -12 c 0xd8
EndSplineSet
Substitution2: "'c2sc' Capitals to Small Capitals in Latin lookup 5 subtable" C.c2sc
EndChar

StartChar: D
Encoding: 68 68 6
Width: 766
GlyphClass: 2
Flags: MW
HStem: 0 43<35 76 35 327 35 76> 0 57<315 327> 600 57<309 323 323 399.5> 611 46<35 70>
VStem: 128 148<137 529 529 566> 563 158<218 416>
AnchorPoint: "Anchor-5" 340 0 basechar 0
AnchorPoint: "Anchor-4" 334 0 basechar 0
AnchorPoint: "Anchor-2" 341 0 basechar 0
AnchorPoint: "Anchor-0" 362 657 basechar 0
LayerCount: 2
Fore
SplineSet
327 0 m 2x6c
 35 0 l 1x6c
 35 43 l 1
 117 43 128 55 128 137 c 2
 128 529 l 2
 128 603 105 611 35 611 c 1x9c
 35 657 l 1
 323 657 l 2
 523 657 721 603 721 340 c 0
 721 79 544 0 327 0 c 2x6c
322 57 m 0
 472 57 563 107 563 329 c 0
 563 503 484 600 315 600 c 0
 303 600 293 600 276 599 c 1
 276 58 l 1
 292 57 308 57 322 57 c 0
EndSplineSet
Substitution2: "'c2sc' Capitals to Small Capitals in Latin lookup 5 subtable" D.c2sc
EndChar

StartChar: E
Encoding: 69 69 7
Width: 660
GlyphClass: 2
Flags: MW
HStem: 0 43<35 69 35 608 35 69> 0 61<276 394 394 459.5> 310 54<276 365 276 365> 476 181<552 597 35 603 552 552> 594 63<276 408 276 276> 613 44<35 76>
VStem: 128 148<126 310 364 523 523 560.5> 474 47<218 259.5 410 449>
AnchorPoint: "Anchor-5" 511 0 basechar 0
AnchorPoint: "Anchor-4" 352 0 basechar 0
AnchorPoint: "Anchor-2" 352 0 basechar 0
AnchorPoint: "Anchor-0" 352 657 basechar 0
LayerCount: 2
Fore
SplineSet
608 0 m 1x6b
 35 0 l 1x6b
 35 43 l 1
 103 43 128 52 128 126 c 2
 128 523 l 2
 128 598 117 613 35 613 c 1xa7
 35 657 l 1
 597 657 l 1x6b
 603 476 l 1
 552 476 l 1x73
 537 566 519 594 408 594 c 2
 276 594 l 1
 276 364 l 1
 365 364 l 2
 465 364 474 371 474 449 c 1
 521 449 l 1
 521 218 l 1
 474 218 l 1
 474 301 465 310 365 310 c 2
 276 310 l 1
 276 61 l 1
 394 61 l 2
 525 61 553 87 584 197 c 1
 632 197 l 1
 608 0 l 1x6b
EndSplineSet
Substitution2: "'c2sc' Capitals to Small Capitals in Latin lookup 5 subtable" E.c2sc
EndChar

StartChar: F
Encoding: 70 70 8
Width: 618
GlyphClass: 2
Flags: MW
HStem: 0 43<35 72.5 340 380 35 72.5> 305 54<276 353 276 353> 473 184<552 597 35 604 552 552> 594 63<276 395 276 276> 613 44<35 73>
VStem: 128 148<130 305 359 530 530 565.5> 469 47<218 258.5 411.5 452>
AnchorPoint: "Anchor-5" 220 0 basechar 0
AnchorPoint: "Anchor-4" 204 0 basechar 0
AnchorPoint: "Anchor-2" 200 0 basechar 0
AnchorPoint: "Anchor-0" 340 657 basechar 0
LayerCount: 2
Fore
SplineSet
380 0 m 1xd6
 35 0 l 1
 35 43 l 1
 110 43 128 56 128 130 c 2
 128 530 l 2
 128 601 111 613 35 613 c 1xce
 35 657 l 1
 597 657 l 1xd6
 604 473 l 1
 552 473 l 1xe6
 535 568 526 594 395 594 c 2
 276 594 l 1
 276 359 l 1
 353 359 l 2
 439 359 469 371 469 452 c 1
 516 452 l 1
 516 218 l 1
 469 218 l 1
 469 299 439 305 353 305 c 2
 276 305 l 1
 276 123 l 2
 276 55 300 43 380 43 c 1
 380 0 l 1xd6
EndSplineSet
Substitution2: "'c2sc' Capitals to Small Capitals in Latin lookup 5 subtable" F.c2sc
EndChar

StartChar: G
Encoding: 71 71 9
Width: 739
GlyphClass: 2
Flags: MW
HStem: -11 60<315.5 408.5 315.5 434> 266 44<422 460 677 705> 612 20G<534.5 558.5> 615 54<318 432.5>
VStem: 45 157<246 433.5 246 444.5> 509 130<92 179 179 189 57 215> 581 44<428 669>
AnchorPoint: "Anchor-5" 368 0 basechar 0
AnchorPoint: "Anchor-4" 370 0 basechar 0
AnchorPoint: "Anchor-2" 368 0 basechar 0
AnchorPoint: "Anchor-0" 379 657 basechar 0
LayerCount: 2
Fore
SplineSet
379 -11 m 0xda
 152 -11 45 112 45 327 c 0xda
 45 562 189 669 381 669 c 0
 487 669 521 632 548 632 c 0xea
 569 632 576 650 581 669 c 1
 625 669 l 1
 625 428 l 1
 576 428 l 1xda
 550 560 485 615 380 615 c 0
 256 615 202 522 202 345 c 0
 202 147 252 49 379 49 c 0
 438 49 471 61 509 92 c 1
 509 179 l 2
 509 251 498 266 422 266 c 1
 422 310 l 1
 705 310 l 1
 705 266 l 1
 649 266 639 252 639 189 c 2
 639 57 l 1xdc
 566 15 489 -11 379 -11 c 0xda
EndSplineSet
Substitution2: "'c2sc' Capitals to Small Capitals in Latin lookup 5 subtable" G.c2sc
EndChar

StartChar: H
Encoding: 72 72 10
Width: 844
GlyphClass: 2
Flags: MW
HStem: 0 43<35 77.5 325.5 367 35 77.5 473 517 768 811> 305 55<277 567 277 567> 614 43<35 79.5 326 371 473 516.5 765.5 811>
VStem: 128 149<144 305 360 511> 567 149<144 305 305 305 360 511>
AnchorPoint: "Anchor-5" 666 0 basechar 0
AnchorPoint: "Anchor-4" 200 0 basechar 0
AnchorPoint: "Anchor-2" 422 0 basechar 0
AnchorPoint: "Anchor-0" 423 657 basechar 0
LayerCount: 2
Fore
SplineSet
367 0 m 1
 35 0 l 1
 35 43 l 1
 120 43 128 56 128 144 c 2
 128 511 l 2
 128 589 124 614 35 614 c 1
 35 657 l 1
 371 657 l 1
 371 614 l 1
 281 614 277 590 277 511 c 2
 277 360 l 1
 567 360 l 1
 567 511 l 2
 567 590 560 614 473 614 c 1
 473 657 l 1
 811 657 l 1
 811 614 l 1
 720 614 716 590 716 511 c 2
 716 144 l 2
 716 57 725 43 811 43 c 1
 811 0 l 1
 473 0 l 1
 473 43 l 1
 561 43 567 57 567 144 c 2
 567 305 l 1
 277 305 l 1
 277 144 l 2
 277 56 284 43 367 43 c 1
 367 0 l 1
EndSplineSet
Substitution2: "'c2sc' Capitals to Small Capitals in Latin lookup 5 subtable" H.c2sc
EndChar

StartChar: I
Encoding: 73 73 11
Width: 405
GlyphClass: 2
Flags: MW
HStem: 0 43<35 79 323.5 366 35 79> 614 43<35 78 325.5 370>
VStem: 128 149<144 511>
AnchorPoint: "Anchor-5" 220 0 basechar 0
AnchorPoint: "Anchor-4" 211 0 basechar 0
AnchorPoint: "Anchor-2" 203 0 basechar 0
AnchorPoint: "Anchor-0" 203 657 basechar 0
LayerCount: 2
Fore
SplineSet
366 0 m 1
 35 0 l 1
 35 43 l 1
 123 43 128 58 128 144 c 2
 128 511 l 2
 128 590 121 614 35 614 c 1
 35 657 l 1
 370 657 l 1
 370 614 l 1
 281 614 277 589 277 511 c 2
 277 144 l 2
 277 59 281 43 366 43 c 1
 366 0 l 1
EndSplineSet
Substitution2: "'c2sc' Capitals to Small Capitals in Latin lookup 5 subtable" I.c2sc
EndChar

StartChar: J
Encoding: 74 74 12
Width: 470
GlyphClass: 2
Flags: MW
HStem: -13 47<143 185.5 143 190> 614 43<110 157.5 411.5 457>
VStem: 213 149<132 165 165 511>
AnchorPoint: "Anchor-5" 192 0 basechar 0
AnchorPoint: "Anchor-4" 179 0 basechar 0
AnchorPoint: "Anchor-2" 170 0 basechar 0
AnchorPoint: "Anchor-0" 283 657 basechar 0
LayerCount: 2
Fore
SplineSet
140 -13 m 0
 73 -13 0 7 0 79 c 0
 0 117 22 143 60 143 c 0
 138 143 119 34 167 34 c 0
 204 34 213 53 213 132 c 2
 213 511 l 2
 213 590 205 614 110 614 c 1
 110 657 l 1
 457 657 l 1
 457 614 l 1
 366 614 362 589 362 511 c 2
 362 165 l 2
 362 9 240 -13 140 -13 c 0
EndSplineSet
Substitution2: "'c2sc' Capitals to Small Capitals in Latin lookup 5 subtable" J.c2sc
EndChar

StartChar: K
Encoding: 75 75 13
Width: 786
GlyphClass: 2
Flags: MW
HStem: 0 43<35 79 325 367 35 79 434 450 450 460.5 762 785> 303 35<277 282 277 285 277 282> 613 44<456 473> 614 43<35 79 325.5 371>
VStem: 128 149<144 303 338 510>
AnchorPoint: "Anchor-5" 651 0 basechar 0
AnchorPoint: "Anchor-4" 399 0 basechar 0
AnchorPoint: "Anchor-2" 398 0 basechar 0
AnchorPoint: "Anchor-0" 393 657 basechar 0
LayerCount: 2
Fore
SplineSet
367 0 m 1xd8
 35 0 l 1
 35 43 l 1
 123 43 128 58 128 144 c 2
 128 511 l 2
 128 590 123 614 35 614 c 1
 35 657 l 1
 371 657 l 1
 371 614 l 1xd8
 280 614 277 589 277 510 c 2
 277 338 l 1
 282 338 l 1
 453 496 l 2
 494 535 510 552 510 581 c 0
 510 603 498 613 473 613 c 2
 456 613 l 1xe8
 456 657 l 1
 727 657 l 1xd8
 727 613 l 1
 670 610 647 598 592 547 c 2xe8
 405 379 l 1
 685 87 l 2
 716 55 739 43 785 43 c 1
 785 0 l 1
 434 0 l 1
 434 43 l 1
 450 43 l 2
 471 43 488 50 488 65 c 0
 488 94 462 117 366 216 c 2
 285 303 l 1
 277 303 l 1
 277 143 l 2
 277 59 283 43 367 43 c 1
 367 0 l 1xd8
EndSplineSet
Substitution2: "'c2sc' Capitals to Small Capitals in Latin lookup 5 subtable" K.c2sc
EndChar

StartChar: L
Encoding: 76 76 14
Width: 648
GlyphClass: 2
Flags: MW
HStem: 0 43<34 76 34 603 34 76> 0 61<352 413 413 469.5 352 603> 614 43<35 77 332 375>
VStem: 128 149<136 516>
AnchorPoint: "Anchor-5" 469 0 basechar 0
AnchorPoint: "Anchor-4" 318 0 basechar 0
AnchorPoint: "Anchor-2" 319 0 basechar 0
AnchorPoint: "Anchor-0" 205 657 basechar 0
LayerCount: 2
Fore
SplineSet
603 0 m 1x70
 34 0 l 1x70
 34 43 l 1
 118 43 128 58 128 136 c 2xb0
 128 517 l 2
 128 593 119 614 35 614 c 1
 35 657 l 1
 375 657 l 1
 375 614 l 1
 289 614 277 594 277 516 c 2
 277 120 l 2
 277 70 293 61 352 61 c 2
 413 61 l 2
 526 61 550 94 580 211 c 1
 631 211 l 1
 603 0 l 1x70
EndSplineSet
Substitution2: "'c2sc' Capitals to Small Capitals in Latin lookup 5 subtable" L.c2sc
EndChar

StartChar: M
Encoding: 77 77 15
Width: 996
GlyphClass: 2
Flags: MW
HStem: 0 43<26 66 242.5 280 26 66 632 670 920.5 955> 614 43<28 66 919.5 954>
VStem: 118 74<152 521 521 522> 720 148<124 522>
AnchorPoint: "Anchor-5" 820 0 basechar 0
AnchorPoint: "Anchor-4" 459 0 basechar 0
AnchorPoint: "Anchor-2" 459 0 basechar 0
AnchorPoint: "Anchor-0" 498 657 basechar 0
LayerCount: 2
Fore
SplineSet
280 0 m 1
 26 0 l 1
 26 43 l 1
 106 43 118 50 118 152 c 2
 118 521 l 2
 118 596 104 614 28 614 c 1
 28 657 l 1
 309 657 l 1
 497 194 l 1
 505 194 l 1
 692 657 l 1
 954 657 l 1
 954 614 l 1
 885 614 868 596 868 522 c 2
 868 124 l 2
 868 57 886 43 955 43 c 1
 955 0 l 1
 632 0 l 1
 632 43 l 1
 708 43 720 57 720 124 c 2
 720 522 l 1
 714 522 l 1
 497 0 l 1
 418 0 l 1
 198 522 l 1
 192 522 l 1
 192 152 l 2
 192 50 205 43 280 43 c 1
 280 0 l 1
EndSplineSet
Substitution2: "'c2sc' Capitals to Small Capitals in Latin lookup 5 subtable" M.c2sc
EndChar

StartChar: N
Encoding: 78 78 16
Width: 795
GlyphClass: 2
Flags: MW
HStem: -7 21G<572 687 572 572> 0 43<24 64 237.5 275 24 64> 614 43<24 44 525 571.5 734 777>
VStem: 118 66<234 509> 620 67<186 485>
AnchorPoint: "Anchor-5" 388 0 basechar 0
AnchorPoint: "Anchor-4" 389 0 basechar 0
AnchorPoint: "Anchor-2" 387 0 basechar 0
AnchorPoint: "Anchor-0" 417 657 basechar 0
LayerCount: 2
Fore
SplineSet
687 -7 m 1xb8
 572 -7 l 1xb8
 189 509 l 1
 184 509 l 1
 184 162 l 2
 184 62 200 43 275 43 c 1
 275 0 l 1
 24 0 l 1
 24 43 l 1x78
 104 43 118 134 118 234 c 2
 118 565 l 1
 87 608 64 614 24 614 c 1
 24 657 l 1
 264 657 l 1
 615 186 l 1
 620 186 l 1
 620 485 l 2
 620 562 618 614 525 614 c 1
 525 657 l 1
 777 657 l 1
 777 614 l 1
 691 614 687 562 687 485 c 2
 687 -7 l 1xb8
EndSplineSet
Substitution2: "'c2sc' Capitals to Small Capitals in Latin lookup 5 subtable" N.c2sc
EndChar

StartChar: O
Encoding: 79 79 17
Width: 748
GlyphClass: 2
Flags: MW
HStem: -14 52<316 433 316 479> 619 50<318.5 424.5>
VStem: 45 156<241 427 241 433.5> 547 156<232.5 427.5>
AnchorPoint: "Anchor-5" 442 0 basechar 0
AnchorPoint: "Anchor-4" 376 0 basechar 0
AnchorPoint: "Anchor-2" 374 0 basechar 0
AnchorPoint: "Anchor-0" 374 657 basechar 0
LayerCount: 2
Fore
SplineSet
374 -14 m 0
 163 -14 45 110 45 329 c 0
 45 538 167 669 374 669 c 0
 583 669 703 546 703 338 c 0
 703 119 584 -14 374 -14 c 0
375 38 m 0
 491 38 547 130 547 335 c 0
 547 520 478 619 371 619 c 0
 266 619 201 519 201 335 c 0
 201 147 257 38 375 38 c 0
EndSplineSet
Substitution2: "'c2sc' Capitals to Small Capitals in Latin lookup 5 subtable" O.c2sc
EndChar

StartChar: P
Encoding: 80 80 18
Width: 648
GlyphClass: 2
Flags: MW
HStem: 0 43<35 77.5 337.5 389 35 77.5> 272 58<340 376 315.5 423> 608 49<317 358 358 377> 614 43<35 70>
VStem: 128 149<139 284 335 535 535 567.5> 467 154<414.5 520>
AnchorPoint: "Anchor-5" 220 0 basechar 0
AnchorPoint: "Anchor-4" 211 0 basechar 0
AnchorPoint: "Anchor-2" 198 0 basechar 0
AnchorPoint: "Anchor-0" 324 657 basechar 0
LayerCount: 2
Fore
SplineSet
389 0 m 1xec
 35 0 l 1
 35 43 l 1
 120 43 128 56 128 139 c 2
 128 535 l 2
 128 600 105 614 35 614 c 1xdc
 35 657 l 1
 358 657 l 2
 495 657 621 628 621 481 c 0
 621 320 494 272 352 272 c 0
 328 272 299 279 277 284 c 1
 277 136 l 2
 277 55 286 43 389 43 c 1
 389 0 l 1xec
330 330 m 0
 422 330 467 355 467 474 c 0
 467 566 428 608 326 608 c 0
 308 608 297 607 277 605 c 1xec
 277 335 l 1
 291 333 301 330 330 330 c 0
EndSplineSet
Substitution2: "'c2sc' Capitals to Small Capitals in Latin lookup 5 subtable" P.c2sc
EndChar

StartChar: Q
Encoding: 81 81 19
Width: 748
GlyphClass: 2
Flags: MW
HStem: -175 43<646 657 657 706> -2 21G<469 469> -2 40<316 469> 619 50<318.5 424.5>
VStem: 45 156<241 427 241 433.5> 547 156<247 427.5>
AnchorPoint: "Anchor-5" 375 -120 basechar 0
AnchorPoint: "Anchor-4" 376 -120 basechar 0
AnchorPoint: "Anchor-2" 374 -120 basechar 0
AnchorPoint: "Anchor-0" 374 657 basechar 0
LayerCount: 2
Fore
SplineSet
706 -175 m 1xdc
 657 -175 l 2
 483 -175 385 -147 339 -53 c 2
 317 -10 l 1
 141 10 45 129 45 329 c 0
 45 538 167 669 374 669 c 0
 583 669 703 546 703 338 c 0
 703 156 619 32 469 -2 c 1
 469 -5 l 1
 536 -106 586 -132 706 -132 c 1
 706 -175 l 1xdc
375 38 m 0xbc
 491 38 547 130 547 335 c 0
 547 520 478 619 371 619 c 0
 266 619 201 519 201 335 c 0
 201 147 257 38 375 38 c 0xbc
EndSplineSet
Substitution2: "'c2sc' Capitals to Small Capitals in Latin lookup 5 subtable" Q.c2sc
EndChar

StartChar: R
Encoding: 82 82 20
Width: 729
GlyphClass: 2
Flags: MW
HStem: 0 43<35 73 333 376 35 73 716 739> 290 48.5 608 49<326.5 361 361 383.5> 614 43<35 75>
VStem: 128 149<136 290 339 536 536 565.5> 468 155<434 520>
AnchorPoint: "Anchor-5" 376 0 basechar 0
AnchorPoint: "Anchor-4" 371 0 basechar 0
AnchorPoint: "Anchor-2" 365 0 basechar 0
AnchorPoint: "Anchor-0" 350 657 basechar 0
LayerCount: 2
Fore
SplineSet
376 0 m 1xec
 35 0 l 1
 35 43 l 1
 111 43 128 54 128 136 c 2
 128 536 l 2
 128 595 115 614 35 614 c 1xdc
 35 657 l 1
 361 657 l 2
 500 657 623 616 623 489 c 0
 623 379 548 337 465 318 c 1
 465 313 l 1
 497 292 525 245 633 94 c 0
 664 50 693 43 739 43 c 1
 739 0 l 1
 512 0 l 1
 422 161 403 190 363 255 c 0
 345 286 331 290 297 290 c 2
 277 290 l 1
 277 135 l 2
 277 54 290 43 376 43 c 1
 376 0 l 1xec
277 339 m 1
 315 338 l 1
 415 343 468 373 468 482 c 0
 468 558 430 608 337 608 c 0
 316 608 296 608 277 605 c 1xec
 277 339 l 1
EndSplineSet
Substitution2: "'c2sc' Capitals to Small Capitals in Latin lookup 5 subtable" R.c2sc
EndChar

StartChar: S
Encoding: 83 83 21
Width: 529
GlyphClass: 2
Flags: MW
HStem: -13 216<41 82 32 84 41 41> -12 56<199.5 265 192.5 323> 621 47<229.5 296 190 302.5> 624 20G<376.5 395>
VStem: 36 122<506.5 555.5> 36.5 47.5 358 141<117 176> 416 44 419 41
AnchorPoint: "Anchor-5" 258 0 basechar 0
AnchorPoint: "Anchor-4" 258 0 basechar 0
AnchorPoint: "Anchor-2" 248 0 basechar 0
AnchorPoint: "Anchor-0" 258 657 basechar 0
LayerCount: 2
Fore
SplineSet
84 -13 m 1x66
 41 -13 l 1x66
 32 203 l 1xa6
 82 203 l 1x66
 113 75 152 44 233 44 c 0
 297 44 358 66 358 133 c 0
 358 219 287 251 210 288 c 0
 117 334 36 378 36 500 c 0x6a
 36 611 122 668 258 668 c 0
 334 668 364 644 389 644 c 0x5880
 401 644 415 648 419 668 c 1
 457 668 l 1
 463 458 l 1x6880
 416 458 l 1
 386 579 340 621 265 621 c 0
 194 621 158 596 158 543 c 0x69
 158 470 229 442 310 404 c 0
 405 361 499 305 499 179 c 0
 499 55 398 -12 248 -12 c 0
 151 -12 132 18 110 18 c 0
 95 18 84 6 84 -13 c 1x66
EndSplineSet
Substitution2: "'c2sc' Capitals to Small Capitals in Latin lookup 5 subtable" S.c2sc
EndChar

StartChar: T
Encoding: 84 84 22
Width: 659
GlyphClass: 2
Flags: MW
HStem: 0 43<157 200.5 457.5 500 157 200.5> 459 198<26 65 15 635 594 594 594 635 26 644> 601 56<154.5 210 210 255 404 404 404 448>
VStem: 255 149<145 601>
AnchorPoint: "Anchor-5" 343 0 basechar 0
AnchorPoint: "Anchor-4" 330 0 basechar 0
AnchorPoint: "Anchor-2" 330 0 basechar 0
AnchorPoint: "Anchor-0" 330 657 basechar 0
LayerCount: 2
Fore
SplineSet
500 0 m 1xb0
 157 0 l 1
 157 43 l 1
 244 43 255 54 255 145 c 2
 255 601 l 1
 210 601 l 2xb0
 99 601 86 567 65 459 c 1
 15 459 l 1xd0
 26 657 l 1
 635 657 l 1xb0
 644 459 l 1
 594 459 l 1xd0
 571 567 559 601 448 601 c 2
 404 601 l 1
 404 145 l 2
 404 54 415 43 500 43 c 1
 500 0 l 1xb0
EndSplineSet
Substitution2: "'c2sc' Capitals to Small Capitals in Latin lookup 5 subtable" T.c2sc
EndChar

StartChar: U
Encoding: 85 85 23
Width: 799
GlyphClass: 2
Flags: MW
HStem: -14 84<374.5 503.5 374.5 515> 614 43<28 67.5 324.5 365 527 569 743.5 787>
VStem: 122 149<247 265 265 521> 621 71<258 264 264 485 485 488>
AnchorPoint: "Anchor-5" 494 0 basechar 0
AnchorPoint: "Anchor-4" 407 0 basechar 0
AnchorPoint: "Anchor-2" 408 0 basechar 0
AnchorPoint: "Anchor-0" 448 657 basechar 0
LayerCount: 2
Fore
SplineSet
416 -14 m 0
 208 -14 122 61 122 247 c 2
 122 526 l 2
 122 596 107 614 28 614 c 1
 28 657 l 1
 365 657 l 1
 365 614 l 1
 284 614 271 596 271 521 c 2
 271 265 l 2
 271 134 308 70 441 70 c 0
 566 70 621 120 621 258 c 2
 621 485 l 2
 621 591 611 614 527 614 c 1
 527 657 l 1
 787 657 l 1
 787 614 l 1
 700 614 692 591 692 488 c 2
 692 264 l 2
 692 79 614 -14 416 -14 c 0
EndSplineSet
Substitution2: "'c2sc' Capitals to Small Capitals in Latin lookup 5 subtable" U.c2sc
EndChar

StartChar: V
Encoding: 86 86 24
Width: 710
GlyphClass: 2
Flags: MW
HStem: -5 21G<321 400 321 321> 614 43<-25 5.5 289.5 309 502 523 700 729>
VStem: -25 754<614 657 614 657> 502 227<614 657 614 657> 565 164<569.5 657>
AnchorPoint: "Anchor-5" 347 0 basechar 0
AnchorPoint: "Anchor-4" 352 0 basechar 0
AnchorPoint: "Anchor-2" 362 0 basechar 0
AnchorPoint: "Anchor-0" 352 657 basechar 0
LayerCount: 2
Fore
SplineSet
400 -5 m 1xe0
 321 -5 l 1
 81 525 l 2
 50 591 36 614 -25 614 c 1
 -25 657 l 1
 309 657 l 1
 309 614 l 1
 270 614 241 609 241 574 c 0
 241 559 246 537 253 520 c 2
 366 266 l 1
 404 168 l 1
 412 168 l 1
 449 268 l 1
 556 538 l 2
 559 544 565 560 565 579 c 0xc8
 565 605 544 614 502 614 c 1
 502 657 l 1xd0
 729 657 l 1
 729 614 l 1xc8
 671 614 658 599 598 459 c 2
 400 -5 l 1xe0
EndSplineSet
Substitution2: "'c2sc' Capitals to Small Capitals in Latin lookup 5 subtable" V.c2sc
EndChar

StartChar: W
Encoding: 87 87 25
Width: 1046
GlyphClass: 2
Flags: MW
HStem: -8 21G<306 394 306 306 677 771 677 677> -8 190<306 401 306 401 762 769> 614 43<0 309 284 309 389 416.5 677 701 817 836 1019.5 1042>
VStem: 0 1042<614 657 614 657> 817 225<614 657 614 657> 886 156<549.5 657>
AnchorPoint: "Anchor-5" 698 0 basechar 0
AnchorPoint: "Anchor-4" 539 0 basechar 0
AnchorPoint: "Anchor-2" 538 0 basechar 0
AnchorPoint: "Anchor-0" 553 657 basechar 0
LayerCount: 2
Fore
SplineSet
771 -8 m 1xb0
 677 -8 l 1
 543 353 l 1
 537 353 l 1
 394 -8 l 1
 306 -8 l 1
 93 516 l 2
 65 588 46 609 0 614 c 1
 0 657 l 1
 309 657 l 1
 309 614 l 1
 259 614 246 604 246 583 c 0
 246 570 249 555 256 535 c 2
 368 261 l 1
 394 182 l 1
 401 182 l 1
 509 451 l 1
 486 518 l 2
 456 604 444 614 389 614 c 1
 389 657 l 1
 701 657 l 1
 701 614 l 1
 653 614 627 599 627 575 c 0
 627 560 635 541 642 519 c 2
 737 263 l 1
 762 182 l 1
 769 182 l 1
 872 496 l 1
 872 496 886 536 886 563 c 0x64
 886 608 855 614 817 614 c 1
 817 657 l 1xa8
 1042 657 l 1
 1042 614 l 1
 997 614 979 595 961 544 c 2xa4
 771 -8 l 1xb0
EndSplineSet
Substitution2: "'c2sc' Capitals to Small Capitals in Latin lookup 5 subtable" W.c2sc
EndChar

StartChar: X
Encoding: 88 88 26
Width: 700
GlyphClass: 2
Flags: MW
HStem: 0 43<-1 21 220 248 -1 21 354 361 361 384.5> 613 44<-3 30.5 306 325 325 335 432 456.5>
VStem: -3 704<0 657 0 657> -1 177<0 88.5 43 88.5> 432 245<613 657 613 657> 497 180<575 657>
AnchorPoint: "Anchor-5" 548 0 basechar 0
AnchorPoint: "Anchor-4" 340 0 basechar 0
AnchorPoint: "Anchor-2" 339 0 basechar 0
AnchorPoint: "Anchor-0" 348 657 basechar 0
LayerCount: 2
Fore
SplineSet
701 0 m 1xe0
 354 0 l 1
 354 43 l 1
 361 43 l 2
 408 43 421 48 421 71 c 0
 421 92 419 105 392 145 c 2
 341 224 l 1
 312 275 l 1
 308 275 l 1
 201 134 l 2
 190 119 176 102 176 75 c 0
 176 53 192 43 248 43 c 1
 248 0 l 1
 -1 0 l 1
 -1 43 l 1
 43 43 60 59 99 106 c 2
 276 322 l 1
 111 545 l 2
 75 593 64 613 -3 613 c 1
 -3 657 l 1
 335 657 l 1
 335 613 l 1
 325 613 l 2
 287 613 272 607 272 582 c 0
 272 553 309 506 322 485 c 2
 373 400 l 1
 377 400 l 1
 469 525 l 2
 486 549 497 563 497 587 c 0xd4
 497 606 481 613 432 613 c 1
 432 657 l 1xc8
 677 657 l 1
 677 613 l 1xc4
 617 609 599 591 540 518 c 2
 410 357 l 1
 595 106 l 2
 630 59 654 45 701 43 c 1
 701 0 l 1xe0
EndSplineSet
Substitution2: "'c2sc' Capitals to Small Capitals in Latin lookup 5 subtable" X.c2sc
EndChar

StartChar: Y
Encoding: 89 89 27
Width: 676
GlyphClass: 2
Flags: MW
HStem: 0 43<167 211 476 516 167 211> 614 43<-10 13.5 274 301 459 484.5>
VStem: 266 149<137 249 93.5 250 93.5 250> 459 227<614 657 614 657>
AnchorPoint: "Anchor-5" 358 0 basechar 0
AnchorPoint: "Anchor-4" 343 0 basechar 0
AnchorPoint: "Anchor-2" 342 0 basechar 0
AnchorPoint: "Anchor-0" 356 657 basechar 0
LayerCount: 2
Fore
SplineSet
516 0 m 1
 167 0 l 1
 167 43 l 1
 255 43 266 49 266 137 c 2
 266 250 l 1
 131 479 l 2
 56 606 37 614 -10 614 c 1
 -10 657 l 1
 301 657 l 1
 301 614 l 1
 247 614 239 606 239 591 c 0
 239 580 245 564 254 548 c 2
 338 396 l 1
 376 315 l 1
 383 315 l 1
 506 557 l 2
 511 565 516 579 516 589 c 0
 516 603 510 614 459 614 c 1
 459 657 l 1
 686 657 l 1
 686 614 l 1
 629 611 608 603 565 528 c 2
 415 249 l 1
 415 137 l 2
 415 50 436 43 516 43 c 1
 516 0 l 1
EndSplineSet
Substitution2: "'c2sc' Capitals to Small Capitals in Latin lookup 5 subtable" Y.c2sc
EndChar

StartChar: Z
Encoding: 90 90 28
Width: 618
GlyphClass: 2
Flags: MW
HStem: 0 61<215 359 359 422> 463 194<64 104 51 587> 594 63<208.5 254 254 404>
VStem: 28 562<0 209 55 209>
AnchorPoint: "Anchor-5" 419 0 basechar 0
AnchorPoint: "Anchor-4" 305 0 basechar 0
AnchorPoint: "Anchor-2" 304 0 basechar 0
AnchorPoint: "Anchor-0" 320 657 basechar 0
LayerCount: 2
Fore
SplineSet
566 0 m 1xb0
 28 0 l 1
 28 55 l 1
 404 589 l 1
 404 594 l 1
 254 594 l 2xb0
 163 594 124 574 104 463 c 1
 51 463 l 1xd0
 64 657 l 1
 587 657 l 1
 587 602 l 1
 215 67 l 1
 215 61 l 1
 359 61 l 2
 485 61 511 103 535 209 c 1
 590 209 l 1
 566 0 l 1xb0
EndSplineSet
Substitution2: "'c2sc' Capitals to Small Capitals in Latin lookup 5 subtable" Z.c2sc
EndChar

StartChar: Agrave
Encoding: 192 192 29
Width: 749
GlyphClass: 2
Flags: MW
HStem: 0 43<2 27.5 205 230 2 27.5 419 431.5 717 740> 211 52<223 417 223 435 205 417> 512 150<324 328 324 324> 642 20G<320 425 425 425> 698 133<253 475 253 410> 799 32<253 374>
VStem: 2 160<0 88.5 43 88.5> 2 228<0 43 0 43> 2 738<0 43 0 43>
AnchorPoint: "Anchor-5" 444 0 basechar 0
AnchorPoint: "Anchor-4" 338 0 basechar 0
AnchorPoint: "Anchor-2" 337 0 basechar 0
AnchorPoint: "Anchor-1" 370 831 basechar 0
LayerCount: 2
Fore
SplineSet
230 0 m 1xd5
 2 0 l 1
 2 43 l 1
 53 43 72 61 103 140 c 2
 320 662 l 1
 425 662 l 1
 641 138 l 2
 668 74 694 43 740 43 c 1
 740 0 l 1
 419 0 l 1
 419 43 l 1
 444 43 478 45 478 75 c 0
 478 90 469 123 458 151 c 2
 435 211 l 1
 205 211 l 1
 176 138 l 2
 170 121 162 97 162 80 c 0xd6
 162 48 180 43 230 43 c 1
 230 0 l 1xd5
223 263 m 1
 417 263 l 1
 328 512 l 1
 324 512 l 1xe880
 223 263 l 1
475 698 m 1
 410 698 l 1xd880
 253 799 l 1
 253 831 l 1
 374 831 l 1xd480
 475 698 l 1
EndSplineSet
Substitution2: "'c2sc' Capitals to Small Capitals in Latin lookup 5 subtable" Agrave.c2sc
EndChar

StartChar: Aacute
Encoding: 193 193 30
Width: 749
GlyphClass: 2
Flags: MW
HStem: 0 43<2 27.5 205 230 2 27.5 419 431.5 717 740> 211 52<223 417 223 435 205 417> 512 150<324 328 324 324> 642 20G<320 425 425 425> 698 133<265 487 265 487> 799 32<366 487>
VStem: 2 160<0 88.5 43 88.5> 2 228<0 43 0 43> 2 738<0 43 0 43>
AnchorPoint: "Anchor-5" 444 0 basechar 0
AnchorPoint: "Anchor-4" 338 0 basechar 0
AnchorPoint: "Anchor-2" 337 0 basechar 0
AnchorPoint: "Anchor-1" 370 830 basechar 0
LayerCount: 2
Fore
SplineSet
230 0 m 1xd5
 2 0 l 1
 2 43 l 1
 53 43 72 61 103 140 c 2
 320 662 l 1
 425 662 l 1
 641 138 l 2
 668 74 694 43 740 43 c 1
 740 0 l 1
 419 0 l 1
 419 43 l 1
 444 43 478 45 478 75 c 0
 478 90 469 123 458 151 c 2
 435 211 l 1
 205 211 l 1
 176 138 l 2
 170 121 162 97 162 80 c 0xd6
 162 48 180 43 230 43 c 1
 230 0 l 1xd5
223 263 m 1
 417 263 l 1
 328 512 l 1
 324 512 l 1xe880
 223 263 l 1
330 698 m 1
 265 698 l 1xd880
 366 831 l 1
 487 831 l 1
 487 799 l 1xd480
 330 698 l 1
EndSplineSet
Substitution2: "'c2sc' Capitals to Small Capitals in Latin lookup 5 subtable" Aacute.c2sc
EndChar

StartChar: Acircumflex
Encoding: 194 194 31
Width: 749
GlyphClass: 2
Flags: MW
HStem: 0 43<2 27.5 205 230 2 27.5 419 431.5 717 740> 211 52<223 417 223 435 205 417> 512 150<324 328 324 324> 642 20G<320 425 425 425> 698 139<205 416 205 416 323 474 323 536> 766 71<370 370>
VStem: 2 160<0 88.5 43 88.5> 2 228<0 43 0 43> 2 738<0 43 0 43>
AnchorPoint: "Anchor-5" 444 0 basechar 0
AnchorPoint: "Anchor-4" 338 0 basechar 0
AnchorPoint: "Anchor-2" 337 0 basechar 0
AnchorPoint: "Anchor-1" 370 836 basechar 0
LayerCount: 2
Fore
SplineSet
230 0 m 1xd9
 2 0 l 1
 2 43 l 1
 53 43 72 61 103 140 c 2
 320 662 l 1
 425 662 l 1
 641 138 l 2
 668 74 694 43 740 43 c 1
 740 0 l 1
 419 0 l 1
 419 43 l 1
 444 43 478 45 478 75 c 0
 478 90 469 123 458 151 c 2
 435 211 l 1
 205 211 l 1
 176 138 l 2
 170 121 162 97 162 80 c 0xda
 162 48 180 43 230 43 c 1
 230 0 l 1xd9
223 263 m 1
 417 263 l 1
 328 512 l 1
 324 512 l 1xe880
 223 263 l 1
268 698 m 1
 205 698 l 1
 323 837 l 1
 416 837 l 1
 536 698 l 1
 474 698 l 1xd880
 370 766 l 1xd480
 268 698 l 1
EndSplineSet
Substitution2: "'c2sc' Capitals to Small Capitals in Latin lookup 5 subtable" Acircumflex.c2sc
EndChar

StartChar: uni1EA6
Encoding: 7846 7846 32
Width: 749
GlyphClass: 2
Flags: MW
HStem: 0 43<2 27.5 205 230 2 27.5 419 431.5 717 740> 211 52<223 417 223 435 205 417> 512 150<324 328 324 324> 642 20G<320 425 425 425> 693 134<205 415 205 415 324 474 324 536> 762 65<370 370> 763 123<435 629 435 570> 854 32<435 528>
VStem: 2 160<0 88.5 43 88.5> 2 228<0 43 0 43> 2 738<0 43 0 43>
AnchorPoint: "Anchor-5" 444 0 basechar 0
AnchorPoint: "Anchor-4" 338 0 basechar 0
AnchorPoint: "Anchor-2" 337 0 basechar 0
AnchorPoint: "Anchor-0" 370 657 basechar 0
LayerCount: 2
Fore
SplineSet
230 0 m 1xd140
 2 0 l 1
 2 43 l 1
 53 43 72 61 103 140 c 2
 320 662 l 1
 425 662 l 1
 641 138 l 2
 668 74 694 43 740 43 c 1
 740 0 l 1
 419 0 l 1
 419 43 l 1
 444 43 478 45 478 75 c 0
 478 90 469 123 458 151 c 2
 435 211 l 1
 205 211 l 1
 176 138 l 2
 170 121 162 97 162 80 c 0xd180
 162 48 180 43 230 43 c 1
 230 0 l 1xd140
223 263 m 1
 417 263 l 1
 328 512 l 1
 324 512 l 1xe920
 223 263 l 1
268 693 m 1
 205 693 l 1
 324 827 l 1
 415 827 l 1
 536 693 l 1
 474 693 l 1xd920
 370 762 l 1xd520
 268 693 l 1
629 763 m 1xd220
 570 763 l 1xd220
 435 854 l 1
 435 886 l 1
 528 886 l 1xd120
 629 763 l 1xd220
EndSplineSet
Substitution2: "'c2sc' Capitals to Small Capitals in Latin lookup 5 subtable" uni1EA6.c2sc
EndChar

StartChar: uni1EA4
Encoding: 7844 7844 33
Width: 749
GlyphClass: 2
Flags: MW
HStem: 0 43<2 27.5 205 230 2 27.5 419 431.5 717 740> 211 52<223 417 223 435 205 417> 512 150<324 328 324 324> 642 20G<320 425 425 425> 693 134<205 415 205 415 324 474 324 536> 762 65<370 370> 763 64 854 32<584 677>
VStem: 2 160<0 88.5 43 88.5> 2 228<0 43 0 43> 2 738<0 43 0 43>
AnchorPoint: "Anchor-5" 444 0 basechar 0
AnchorPoint: "Anchor-4" 338 0 basechar 0
AnchorPoint: "Anchor-2" 337 0 basechar 0
AnchorPoint: "Anchor-0" 370 657 basechar 0
LayerCount: 2
Fore
SplineSet
230 0 m 1xd140
 2 0 l 1
 2 43 l 1
 53 43 72 61 103 140 c 2
 320 662 l 1
 425 662 l 1
 641 138 l 2
 668 74 694 43 740 43 c 1
 740 0 l 1
 419 0 l 1
 419 43 l 1
 444 43 478 45 478 75 c 0
 478 90 469 123 458 151 c 2
 435 211 l 1
 205 211 l 1
 176 138 l 2
 170 121 162 97 162 80 c 0xd180
 162 48 180 43 230 43 c 1
 230 0 l 1xd140
223 263 m 1
 417 263 l 1
 328 512 l 1
 324 512 l 1xe920
 223 263 l 1
268 693 m 1
 205 693 l 1
 324 827 l 1
 415 827 l 1
 536 693 l 1
 474 693 l 1xd920
 370 762 l 1xd520
 268 693 l 1
542 763 m 1xd320
 483 763 l 1xd320
 584 886 l 1
 677 886 l 1
 677 854 l 1xd120
 542 763 l 1xd320
EndSplineSet
Substitution2: "'c2sc' Capitals to Small Capitals in Latin lookup 5 subtable" uni1EA4.c2sc
EndChar

StartChar: uni1EAA
Encoding: 7850 7850 34
Width: 749
GlyphClass: 2
Flags: MW
HStem: 0 43<2 27.5 205 230 2 27.5 419 431.5 717 740> 211 52<223 417 223 435 205 417> 512 150<324 328 324 324> 642 20G<320 425 425 425> 693 134<205 415 205 415 324 474 324 536> 762 65<370 370> 844 71<432 465 432 467.5> 872 71<288.5 322.5>
VStem: 2 160<0 88.5 43 88.5> 2 228<0 43 0 43> 2 738<0 43 0 43>
AnchorPoint: "Anchor-5" 444 0 basechar 0
AnchorPoint: "Anchor-4" 338 0 basechar 0
AnchorPoint: "Anchor-2" 337 0 basechar 0
AnchorPoint: "Anchor-0" 370 657 basechar 0
LayerCount: 2
Fore
SplineSet
230 0 m 1xd240
 2 0 l 1
 2 43 l 1
 53 43 72 61 103 140 c 2
 320 662 l 1
 425 662 l 1
 641 138 l 2
 668 74 694 43 740 43 c 1
 740 0 l 1
 419 0 l 1
 419 43 l 1
 444 43 478 45 478 75 c 0
 478 90 469 123 458 151 c 2
 435 211 l 1
 205 211 l 1
 176 138 l 2
 170 121 162 97 162 80 c 0xd280
 162 48 180 43 230 43 c 1
 230 0 l 1xd240
223 263 m 1
 417 263 l 1
 328 512 l 1
 324 512 l 1xe120
 223 263 l 1
249 837 m 1
 210 837 l 1
 221 901 259 943 310 943 c 0xd920
 351 943 412 915 452 915 c 0
 478 915 495 928 502 947 c 1
 540 947 l 1
 526 874 492 844 443 844 c 0xd220
 396 844 342 872 303 872 c 0
 274 872 256 857 249 837 c 1
268 693 m 1
 205 693 l 1
 324 827 l 1
 415 827 l 1
 536 693 l 1
 474 693 l 1xda20
 370 762 l 1xd620
 268 693 l 1
EndSplineSet
Substitution2: "'c2sc' Capitals to Small Capitals in Latin lookup 5 subtable" uni1EAA.c2sc
EndChar

StartChar: uni1EA8
Encoding: 7848 7848 35
Width: 749
GlyphClass: 2
Flags: MW
HStem: 0 43<2 27.5 205 230 2 27.5 419 431.5 717 740> 211 52<223 417 223 435 205 417> 512 150<324 328 324 324> 642 20G<320 425 425 425> 693 134<205 415 205 415 324 474 324 536> 762 65<370 370> 763 50<484 542 484 484> 793 20G<484 484> 921 38<498 526>
VStem: 2 160<0 88.5 43 88.5> 2 228<0 43 0 43> 484 58<763 791 763 813 763 813> 544 82<854.5 896>
AnchorPoint: "Anchor-5" 444 0 basechar 0
AnchorPoint: "Anchor-4" 338 0 basechar 0
AnchorPoint: "Anchor-2" 337 0 basechar 0
AnchorPoint: "Anchor-0" 370 657 basechar 0
LayerCount: 2
Fore
SplineSet
230 0 m 1xd2b0
 2 0 l 1
 2 43 l 1
 53 43 72 61 103 140 c 2
 320 662 l 1
 425 662 l 1
 641 138 l 2
 668 74 694 43 740 43 c 1
 740 0 l 1
 419 0 l 1
 419 43 l 1
 444 43 478 45 478 75 c 0
 478 90 469 123 458 151 c 2
 435 211 l 1
 205 211 l 1
 176 138 l 2
 170 121 162 97 162 80 c 0xd2d0
 162 48 180 43 230 43 c 1
 230 0 l 1xd2b0
223 263 m 1
 417 263 l 1
 328 512 l 1
 324 512 l 1xe8b0
 223 263 l 1
268 693 m 1
 205 693 l 1
 324 827 l 1
 415 827 l 1
 536 693 l 1
 474 693 l 1xd8b0
 370 762 l 1xd4b0
 268 693 l 1
542 763 m 1xd2b0
 484 763 l 1
 484 813 l 1xd2b0
 527 814 544 831 544 878 c 0
 544 914 534 921 518 921 c 0
 478 921 492 877 457 877 c 0
 435 877 424 891 424 907 c 0
 424 942 474 959 522 959 c 0
 589 959 626 924 626 876 c 0xd1a8
 626 817 572 796 542 791 c 1xd1b0
 542 763 l 1xd2b0
EndSplineSet
Substitution2: "'c2sc' Capitals to Small Capitals in Latin lookup 5 subtable" uni1EA8.c2sc
EndChar

StartChar: uni1EAC
Encoding: 7852 7852 36
Width: 749
GlyphClass: 2
Flags: MW
HStem: -220 156<312 363.5> 0 43<2 27.5 205 230 2 27.5 419 431.5 717 740> 211 52<223 417 223 435 205 417> 512 150<324 328 324 324> 642 20G<320 425 425 425> 698 139<205 416 205 416 323 474 323 536> 766 71<370 370>
VStem: 2 160<0 88.5 43 88.5> 2 228<0 43 0 43> 256 162<-165 -118.5>
AnchorPoint: "Anchor-5" 444 0 basechar 0
AnchorPoint: "Anchor-4" 338 0 basechar 0
AnchorPoint: "Anchor-3" 337 -220 basechar 0
AnchorPoint: "Anchor-1" 370 836 basechar 0
LayerCount: 2
Fore
SplineSet
230 0 m 1xecc0
 2 0 l 1
 2 43 l 1
 53 43 72 61 103 140 c 2
 320 662 l 1
 425 662 l 1
 641 138 l 2
 668 74 694 43 740 43 c 1
 740 0 l 1
 419 0 l 1
 419 43 l 1
 444 43 478 45 478 75 c 0
 478 90 469 123 458 151 c 2
 435 211 l 1
 205 211 l 1
 176 138 l 2
 170 121 162 97 162 80 c 0xed40
 162 48 180 43 230 43 c 1
 230 0 l 1xecc0
223 263 m 1
 417 263 l 1
 328 512 l 1
 324 512 l 1xf540
 223 263 l 1
268 698 m 1
 205 698 l 1
 323 837 l 1
 416 837 l 1
 536 698 l 1
 474 698 l 1xed40
 370 766 l 1xeb40
 268 698 l 1
337 -220 m 0
 287 -220 256 -189 256 -142 c 0
 256 -95 286 -64 337 -64 c 0
 390 -64 418 -95 418 -141 c 0
 418 -189 390 -220 337 -220 c 0
EndSplineSet
Substitution2: "'c2sc' Capitals to Small Capitals in Latin lookup 5 subtable" uni1EAC.c2sc
EndChar

StartChar: Atilde
Encoding: 195 195 37
Width: 749
GlyphClass: 2
Flags: MW
HStem: 0 43<2 27.5 205 230 2 27.5 419 431.5 717 740> 211 52<223 417 223 435 205 417> 512 150<324 328 324 324> 642 20G<320 425 425 425> 706 78<429.5 466.5 429.5 469.5> 735 78<285 324>
VStem: 2 160<0 88.5 43 88.5> 2 228<0 43 0 43> 2 738<0 43 0 43>
AnchorPoint: "Anchor-5" 444 0 basechar 0
AnchorPoint: "Anchor-4" 338 0 basechar 0
AnchorPoint: "Anchor-2" 337 0 basechar 0
AnchorPoint: "Anchor-1" 370 813 basechar 0
LayerCount: 2
Fore
SplineSet
230 0 m 1xd5
 2 0 l 1
 2 43 l 1
 53 43 72 61 103 140 c 2
 320 662 l 1
 425 662 l 1
 641 138 l 2
 668 74 694 43 740 43 c 1
 740 0 l 1
 419 0 l 1
 419 43 l 1
 444 43 478 45 478 75 c 0
 478 90 469 123 458 151 c 2
 435 211 l 1
 205 211 l 1
 176 138 l 2
 170 121 162 97 162 80 c 0xd6
 162 48 180 43 230 43 c 1
 230 0 l 1xd5
223 263 m 1
 417 263 l 1
 328 512 l 1
 324 512 l 1xe480
 223 263 l 1
247 701 m 1
 208 701 l 1
 218 762 250 813 312 813 c 0xd480
 358 813 408 784 451 784 c 0
 482 784 497 799 504 816 c 1
 542 816 l 1
 528 744 499 706 440 706 c 0xd880
 388 706 346 735 302 735 c 0
 268 735 254 718 247 701 c 1
EndSplineSet
Substitution2: "'c2sc' Capitals to Small Capitals in Latin lookup 5 subtable" Atilde.c2sc
EndChar

StartChar: Adieresis
Encoding: 196 196 38
Width: 749
GlyphClass: 2
Flags: MW
HStem: 0 43<2 27.5 205 230 2 27.5 419 431.5 717 740> 211 52<223 417 223 435 205 417> 512 150<324 328 324 324> 642 20G<320 425 425 425> 700 145<236 282.5 457 503.5>
VStem: 2 160<0 88.5 43 88.5> 2 228<0 43 0 43> 185 148<750.5 794.5> 406 148<750.5 794.5>
AnchorPoint: "Anchor-5" 444 0 basechar 0
AnchorPoint: "Anchor-4" 338 0 basechar 0
AnchorPoint: "Anchor-2" 337 0 basechar 0
AnchorPoint: "Anchor-1" 370 845 basechar 0
LayerCount: 2
Fore
SplineSet
230 0 m 1xda80
 2 0 l 1
 2 43 l 1
 53 43 72 61 103 140 c 2
 320 662 l 1
 425 662 l 1
 641 138 l 2
 668 74 694 43 740 43 c 1
 740 0 l 1
 419 0 l 1
 419 43 l 1
 444 43 478 45 478 75 c 0
 478 90 469 123 458 151 c 2
 435 211 l 1
 205 211 l 1
 176 138 l 2
 170 121 162 97 162 80 c 0xdd80
 162 48 180 43 230 43 c 1
 230 0 l 1xda80
223 263 m 1
 417 263 l 1
 328 512 l 1
 324 512 l 1xe980
 223 263 l 1
259 700 m 0
 213 700 185 728 185 772 c 0
 185 817 212 845 259 845 c 0
 306 845 333 817 333 773 c 0
 333 728 306 700 259 700 c 0
480 700 m 0
 434 700 406 728 406 772 c 0
 406 817 433 845 480 845 c 0
 527 845 554 817 554 773 c 0
 554 728 527 700 480 700 c 0
EndSplineSet
Substitution2: "'c2sc' Capitals to Small Capitals in Latin lookup 5 subtable" Adieresis.c2sc
EndChar

StartChar: uni01DE
Encoding: 478 478 39
Width: 749
GlyphClass: 2
Flags: MW
HStem: 0 43<2 27.5 205 230 2 27.5 419 431.5 717 740> 211 52<223 417 223 435 205 417> 512 150<324 328 324 324> 642 20G<320 425 425 425> 690 145<236 282.5 457 503.5> 861 78<213 527 213 527>
VStem: 2 160<0 88.5 43 88.5> 2 228<0 43 0 43> 185 148<740.5 784.5> 406 148<740.5 784.5>
AnchorPoint: "Anchor-5" 444 0 basechar 0
AnchorPoint: "Anchor-4" 338 0 basechar 0
AnchorPoint: "Anchor-2" 337 0 basechar 0
AnchorPoint: "Anchor-1" 370 939 basechar 0
LayerCount: 2
Fore
SplineSet
230 0 m 1xd540
 2 0 l 1
 2 43 l 1
 53 43 72 61 103 140 c 2
 320 662 l 1
 425 662 l 1
 641 138 l 2
 668 74 694 43 740 43 c 1
 740 0 l 1
 419 0 l 1
 419 43 l 1
 444 43 478 45 478 75 c 0
 478 90 469 123 458 151 c 2
 435 211 l 1
 205 211 l 1
 176 138 l 2
 170 121 162 97 162 80 c 0xd6c0
 162 48 180 43 230 43 c 1
 230 0 l 1xd540
223 263 m 1
 417 263 l 1
 328 512 l 1
 324 512 l 1xe4c0
 223 263 l 1
527 861 m 1
 213 861 l 1
 213 939 l 1
 527 939 l 1
 527 861 l 1
259 690 m 0xdcc0
 213 690 185 718 185 762 c 0
 185 807 212 835 259 835 c 0
 306 835 333 807 333 763 c 0
 333 718 306 690 259 690 c 0xdcc0
480 690 m 0
 434 690 406 718 406 762 c 0
 406 807 433 835 480 835 c 0
 527 835 554 807 554 763 c 0
 554 718 527 690 480 690 c 0
EndSplineSet
Substitution2: "'c2sc' Capitals to Small Capitals in Latin lookup 5 subtable" uni01DE.c2sc
EndChar

StartChar: Amacron
Encoding: 256 256 40
Width: 749
GlyphClass: 2
Flags: MW
HStem: 0 43<2 27.5 205 230 2 27.5 419 431.5 717 740> 211 52<223 417 223 435 205 417> 512 150<324 328 324 324> 642 20G<320 425 425 425> 726 78<213 527 213 527>
VStem: 2 160<0 88.5 43 88.5> 2 228<0 43 0 43> 2 738<0 43 0 43>
AnchorPoint: "Anchor-5" 444 0 basechar 0
AnchorPoint: "Anchor-4" 338 0 basechar 0
AnchorPoint: "Anchor-2" 337 0 basechar 0
AnchorPoint: "Anchor-1" 370 804 basechar 0
LayerCount: 2
Fore
SplineSet
230 0 m 1xda
 2 0 l 1
 2 43 l 1
 53 43 72 61 103 140 c 2
 320 662 l 1
 425 662 l 1
 641 138 l 2
 668 74 694 43 740 43 c 1
 740 0 l 1
 419 0 l 1
 419 43 l 1
 444 43 478 45 478 75 c 0
 478 90 469 123 458 151 c 2
 435 211 l 1
 205 211 l 1
 176 138 l 2
 170 121 162 97 162 80 c 0xdc
 162 48 180 43 230 43 c 1
 230 0 l 1xda
223 263 m 1
 417 263 l 1
 328 512 l 1
 324 512 l 1xe9
 223 263 l 1
527 726 m 1
 213 726 l 1
 213 804 l 1
 527 804 l 1
 527 726 l 1
EndSplineSet
Substitution2: "'c2sc' Capitals to Small Capitals in Latin lookup 5 subtable" Amacron.c2sc
EndChar

StartChar: Abreve
Encoding: 258 258 41
Width: 749
GlyphClass: 2
Flags: MW
HStem: 0 43<2 27.5 205 230 2 27.5 419 431.5 717 740> 211 52<223 417 223 435 205 417> 512 150<324 328 324 324> 642 20G<320 425 425 425> 700 79<342 396 342 416>
VStem: 2 160<0 88.5 43 88.5> 2 228<0 43 0 43> 211 42<850 850>
AnchorPoint: "Anchor-5" 444 0 basechar 0
AnchorPoint: "Anchor-4" 338 0 basechar 0
AnchorPoint: "Anchor-2" 337 0 basechar 0
AnchorPoint: "Anchor-1" 370 850 basechar 0
LayerCount: 2
Fore
SplineSet
230 0 m 1xda
 2 0 l 1
 2 43 l 1
 53 43 72 61 103 140 c 2
 320 662 l 1
 425 662 l 1
 641 138 l 2
 668 74 694 43 740 43 c 1
 740 0 l 1
 419 0 l 1
 419 43 l 1
 444 43 478 45 478 75 c 0
 478 90 469 123 458 151 c 2
 435 211 l 1
 205 211 l 1
 176 138 l 2
 170 121 162 97 162 80 c 0xdd
 162 48 180 43 230 43 c 1
 230 0 l 1xda
370 700 m 0
 277 700 215 744 211 850 c 1
 253 850 l 1
 264 803 315 779 369 779 c 0
 423 779 473 803 486 850 c 1
 528 850 l 1
 517 744 462 700 370 700 c 0
223 263 m 1
 417 263 l 1
 328 512 l 1
 324 512 l 1xed
 223 263 l 1
EndSplineSet
Substitution2: "'c2sc' Capitals to Small Capitals in Latin lookup 5 subtable" Abreve.c2sc
EndChar

StartChar: uni1EB0
Encoding: 7856 7856 42
Width: 749
GlyphClass: 2
Flags: MW
HStem: 0 43<2 27.5 205 230 2 27.5 419 431.5 717 740> 211 52<223 417 223 435 205 417> 512 150<324 328 324 324> 642 20G<320 425 425 425> 694 74<341 397 341 416> 798 46 889 32<252 345>
VStem: 2 160<0 88.5 43 88.5> 2 228<0 43 0 43> 211 42<844 844>
AnchorPoint: "Anchor-5" 444 0 basechar 0
AnchorPoint: "Anchor-4" 338 0 basechar 0
AnchorPoint: "Anchor-2" 337 0 basechar 0
AnchorPoint: "Anchor-0" 370 657 basechar 0
LayerCount: 2
Fore
SplineSet
230 0 m 1xda80
 2 0 l 1
 2 43 l 1
 53 43 72 61 103 140 c 2
 320 662 l 1
 425 662 l 1
 641 138 l 2
 668 74 694 43 740 43 c 1
 740 0 l 1
 419 0 l 1
 419 43 l 1
 444 43 478 45 478 75 c 0
 478 90 469 123 458 151 c 2
 435 211 l 1
 205 211 l 1
 176 138 l 2
 170 121 162 97 162 80 c 0xdb40
 162 48 180 43 230 43 c 1
 230 0 l 1xda80
370 694 m 0
 277 694 215 738 211 844 c 1
 253 844 l 1
 266 791 313 768 369 768 c 0xdb40
 425 768 471 791 486 844 c 1
 528 844 l 1xdf40
 517 738 462 694 370 694 c 0
223 263 m 1
 417 263 l 1
 328 512 l 1
 324 512 l 1xef40
 223 263 l 1
436 798 m 1
 377 798 l 1
 252 889 l 1
 252 921 l 1
 345 921 l 1
 436 798 l 1
EndSplineSet
Substitution2: "'c2sc' Capitals to Small Capitals in Latin lookup 5 subtable" uni1EB0.c2sc
EndChar

StartChar: uni1EAE
Encoding: 7854 7854 43
Width: 749
GlyphClass: 2
Flags: MW
HStem: 0 43<2 27.5 205 230 2 27.5 419 431.5 717 740> 211 52<223 417 223 435 205 417> 512 150<324 328 324 324> 642 20G<320 425 425 425> 694 74<341 397 341 416> 798 46 889 32<394 487>
VStem: 2 160<0 88.5 43 88.5> 2 228<0 43 0 43> 211 42<844 844>
AnchorPoint: "Anchor-5" 444 0 basechar 0
AnchorPoint: "Anchor-4" 338 0 basechar 0
AnchorPoint: "Anchor-2" 337 0 basechar 0
AnchorPoint: "Anchor-0" 370 657 basechar 0
LayerCount: 2
Fore
SplineSet
230 0 m 1xda80
 2 0 l 1
 2 43 l 1
 53 43 72 61 103 140 c 2
 320 662 l 1
 425 662 l 1
 641 138 l 2
 668 74 694 43 740 43 c 1
 740 0 l 1
 419 0 l 1
 419 43 l 1
 444 43 478 45 478 75 c 0
 478 90 469 123 458 151 c 2
 435 211 l 1
 205 211 l 1
 176 138 l 2
 170 121 162 97 162 80 c 0xdb40
 162 48 180 43 230 43 c 1
 230 0 l 1xda80
370 694 m 0
 277 694 215 738 211 844 c 1
 253 844 l 1xdf40
 266 791 313 768 369 768 c 0
 425 768 471 791 486 844 c 1
 528 844 l 1
 517 738 462 694 370 694 c 0
223 263 m 1
 417 263 l 1
 328 512 l 1
 324 512 l 1xef40
 223 263 l 1
362 798 m 1
 303 798 l 1
 394 921 l 1
 487 921 l 1
 487 889 l 1
 362 798 l 1
EndSplineSet
Substitution2: "'c2sc' Capitals to Small Capitals in Latin lookup 5 subtable" uni1EAE.c2sc
EndChar

StartChar: uni1EB4
Encoding: 7860 7860 44
Width: 749
GlyphClass: 2
Flags: MW
HStem: 0 43<2 27.5 205 230 2 27.5 419 431.5 717 740> 211 52<223 417 223 435 205 417> 512 150<324 328 324 324> 642 20G<320 425 425 425> 694 74<341 397 341 416> 869 71<432 465 432 467.5> 897 71<288.5 322.5>
VStem: 2 160<0 88.5 43 88.5> 2 228<0 43 0 43> 211 42<844 844>
AnchorPoint: "Anchor-5" 444 0 basechar 0
AnchorPoint: "Anchor-4" 338 0 basechar 0
AnchorPoint: "Anchor-2" 337 0 basechar 0
AnchorPoint: "Anchor-0" 370 657 basechar 0
LayerCount: 2
Fore
SplineSet
230 0 m 1xdc80
 2 0 l 1
 2 43 l 1
 53 43 72 61 103 140 c 2
 320 662 l 1
 425 662 l 1
 641 138 l 2
 668 74 694 43 740 43 c 1
 740 0 l 1
 419 0 l 1
 419 43 l 1
 444 43 478 45 478 75 c 0
 478 90 469 123 458 151 c 2
 435 211 l 1
 205 211 l 1
 176 138 l 2
 170 121 162 97 162 80 c 0xdd40
 162 48 180 43 230 43 c 1
 230 0 l 1xdc80
370 694 m 0
 277 694 215 738 211 844 c 1
 253 844 l 1
 266 791 313 768 369 768 c 0
 425 768 471 791 486 844 c 1
 528 844 l 1
 517 738 462 694 370 694 c 0
223 263 m 1
 417 263 l 1
 328 512 l 1
 324 512 l 1xeb40
 223 263 l 1
249 862 m 1
 210 862 l 1
 221 926 259 968 310 968 c 0xdb40
 351 968 412 940 452 940 c 0
 478 940 495 953 502 972 c 1
 540 972 l 1
 526 899 492 869 443 869 c 0xdd40
 396 869 342 897 303 897 c 0
 274 897 256 882 249 862 c 1
EndSplineSet
Substitution2: "'c2sc' Capitals to Small Capitals in Latin lookup 5 subtable" uni1EB4.c2sc
EndChar

StartChar: uni1EB2
Encoding: 7858 7858 45
Width: 749
GlyphClass: 2
Flags: MW
HStem: 0 43<2 27.5 205 230 2 27.5 419 431.5 717 740> 211 52<223 417 223 435 205 417> 512 150<324 328 324 324> 642 20G<320 425 425 425> 694 74<341 397 341 416> 798 46 798 50<333 391 333 333> 956 38<347 375>
VStem: 2 160<0 88.5 43 88.5> 2 228<0 43 0 43> 211 42<844 844> 333 58<798 826 798 848 798 848> 393 82<889.5 931>
AnchorPoint: "Anchor-5" 444 0 basechar 0
AnchorPoint: "Anchor-4" 338 0 basechar 0
AnchorPoint: "Anchor-2" 337 0 basechar 0
AnchorPoint: "Anchor-0" 370 657 basechar 0
LayerCount: 2
Fore
SplineSet
230 0 m 1xd350
 2 0 l 1
 2 43 l 1
 53 43 72 61 103 140 c 2
 320 662 l 1
 425 662 l 1
 641 138 l 2
 668 74 694 43 740 43 c 1
 740 0 l 1
 419 0 l 1
 419 43 l 1
 444 43 478 45 478 75 c 0
 478 90 469 123 458 151 c 2
 435 211 l 1
 205 211 l 1
 176 138 l 2
 170 121 162 97 162 80 c 0xdbb0
 162 48 180 43 230 43 c 1
 230 0 l 1xd350
370 694 m 0
 277 694 215 738 211 844 c 1xd5b0
 253 844 l 1
 266 791 313 768 369 768 c 0
 425 768 471 791 486 844 c 1
 528 844 l 1
 517 738 462 694 370 694 c 0
223 263 m 1
 417 263 l 1
 328 512 l 1
 324 512 l 1xe3b0
 223 263 l 1
391 798 m 1
 333 798 l 1
 333 848 l 1xd3b0
 376 849 393 866 393 913 c 0
 393 949 383 956 367 956 c 0
 327 956 341 912 306 912 c 0
 284 912 273 926 273 942 c 0
 273 977 323 994 371 994 c 0
 438 994 475 959 475 911 c 0xd3a8
 475 852 421 831 391 826 c 1
 391 798 l 1
EndSplineSet
Substitution2: "'c2sc' Capitals to Small Capitals in Latin lookup 5 subtable" uni1EB2.c2sc
EndChar

StartChar: uni1EB6
Encoding: 7862 7862 46
Width: 749
GlyphClass: 2
Flags: MW
HStem: -220 156<312 363.5> 0 43<2 27.5 205 230 2 27.5 419 431.5 717 740> 211 52<223 417 223 435 205 417> 512 150<324 328 324 324> 642 20G<320 425 425 425> 700 79<342 396 342 416>
VStem: 2 160<0 88.5 43 88.5> 2 228<0 43 0 43> 211 42<850 850> 256 162<-165 -118.5>
AnchorPoint: "Anchor-5" 444 0 basechar 0
AnchorPoint: "Anchor-4" 338 0 basechar 0
AnchorPoint: "Anchor-3" 337 -220 basechar 0
AnchorPoint: "Anchor-1" 370 850 basechar 0
LayerCount: 2
Fore
SplineSet
230 0 m 1xed40
 2 0 l 1
 2 43 l 1
 53 43 72 61 103 140 c 2
 320 662 l 1
 425 662 l 1
 641 138 l 2
 668 74 694 43 740 43 c 1
 740 0 l 1
 419 0 l 1
 419 43 l 1
 444 43 478 45 478 75 c 0
 478 90 469 123 458 151 c 2
 435 211 l 1
 205 211 l 1
 176 138 l 2
 170 121 162 97 162 80 c 0xee80
 162 48 180 43 230 43 c 1
 230 0 l 1xed40
370 700 m 0
 277 700 215 744 211 850 c 1
 253 850 l 1
 264 803 315 779 369 779 c 0
 423 779 473 803 486 850 c 1
 528 850 l 1
 517 744 462 700 370 700 c 0
223 263 m 1
 417 263 l 1
 328 512 l 1
 324 512 l 1xf640
 223 263 l 1
337 -220 m 0
 287 -220 256 -189 256 -142 c 0
 256 -95 286 -64 337 -64 c 0
 390 -64 418 -95 418 -141 c 0
 418 -189 390 -220 337 -220 c 0
EndSplineSet
Substitution2: "'c2sc' Capitals to Small Capitals in Latin lookup 5 subtable" uni1EB6.c2sc
EndChar

StartChar: Aring
Encoding: 197 197 47
Width: 749
GlyphClass: 2
Flags: MW
HStem: 0 43<2 27.5 205 230 2 27.5 419 431.5 717 740> 211 52<223 417 223 435 205 417> 512 150<324 328 324 324> 642 20G<320 425 425 425> 694 52<353 387.5 353 402> 848 50<353 387>
VStem: 2 160<0 88.5 43 88.5> 2 228<0 43 0 43> 251 71<782 811 782 828> 419 70<782 811>
AnchorPoint: "Anchor-5" 444 0 basechar 0
AnchorPoint: "Anchor-4" 338 0 basechar 0
AnchorPoint: "Anchor-2" 337 0 basechar 0
AnchorPoint: "Anchor-1" 370 897 basechar 0
LayerCount: 2
Fore
SplineSet
230 0 m 1xddc0
 2 0 l 1
 2 43 l 1
 53 43 72 61 103 140 c 2
 320 662 l 1
 425 662 l 1
 641 138 l 2
 668 74 694 43 740 43 c 1
 740 0 l 1
 419 0 l 1
 419 43 l 1
 444 43 478 45 478 75 c 0
 478 90 469 123 458 151 c 2
 435 211 l 1
 205 211 l 1
 176 138 l 2
 170 121 162 97 162 80 c 0xdec0
 162 48 180 43 230 43 c 1
 230 0 l 1xddc0
370 694 m 0
 307 694 251 731 251 797 c 0
 251 859 306 898 370 898 c 0
 434 898 489 859 489 796 c 0
 489 731 434 694 370 694 c 0
223 263 m 1
 417 263 l 1
 328 512 l 1
 324 512 l 1xecc0
 223 263 l 1
370 746 m 0
 405 746 419 767 419 797 c 0
 419 825 404 848 370 848 c 0
 336 848 322 825 322 797 c 0
 322 767 336 746 370 746 c 0
EndSplineSet
Substitution2: "'c2sc' Capitals to Small Capitals in Latin lookup 5 subtable" Aring.c2sc
EndChar

StartChar: Aringacute
Encoding: 506 506 48
Width: 749
GlyphClass: 2
Flags: MW
HStem: 0 43<2 27.5 205 230 2 27.5 419 431.5 717 740> 211 52<223 417 223 435 205 417> 512 150<324 328 324 324> 642 20G<320 425 425 425> 679 52<353 387.5 353 402> 833 50<353 387> 903 133<265 487 265 487> 1004 32<366 487>
VStem: 2 160<0 88.5 43 88.5> 2 228<0 43 0 43> 251 71<767 796 767 813> 419 70<767 796>
AnchorPoint: "Anchor-5" 444 0 basechar 0
AnchorPoint: "Anchor-4" 338 0 basechar 0
AnchorPoint: "Anchor-2" 337 0 basechar 0
AnchorPoint: "Anchor-1" 370 1035 basechar 0
LayerCount: 2
Fore
SplineSet
230 0 m 1xd570
 2 0 l 1
 2 43 l 1
 53 43 72 61 103 140 c 2
 320 662 l 1
 425 662 l 1
 641 138 l 2
 668 74 694 43 740 43 c 1
 740 0 l 1
 419 0 l 1
 419 43 l 1
 444 43 478 45 478 75 c 0
 478 90 469 123 458 151 c 2
 435 211 l 1
 205 211 l 1
 176 138 l 2
 170 121 162 97 162 80 c 0xd5b0
 162 48 180 43 230 43 c 1
 230 0 l 1xd570
370 679 m 0xdd30
 307 679 251 716 251 782 c 0
 251 844 306 883 370 883 c 0
 434 883 489 844 489 781 c 0
 489 716 434 679 370 679 c 0xdd30
223 263 m 1
 417 263 l 1
 328 512 l 1
 324 512 l 1xe630
 223 263 l 1
330 903 m 1
 265 903 l 1xde30
 366 1036 l 1
 487 1036 l 1
 487 1004 l 1xd530
 330 903 l 1
370 731 m 0
 405 731 419 752 419 782 c 0
 419 810 404 833 370 833 c 0xd530
 336 833 322 810 322 782 c 0
 322 752 336 731 370 731 c 0
EndSplineSet
Substitution2: "'c2sc' Capitals to Small Capitals in Latin lookup 5 subtable" Aringacute.c2sc
EndChar

StartChar: uni1EA2
Encoding: 7842 7842 49
Width: 749
GlyphClass: 2
Flags: MW
HStem: 0 43<2 27.5 205 230 2 27.5 419 431.5 717 740> 211 52<223 417 223 435 205 417> 512 150<324 328 324 324> 642 20G<320 425 425 425> 698 53<349 409 349 349> 865 40<363.5 392.5>
VStem: 2 160<0 88.5 43 88.5> 2 228<0 43 0 43> 349 60<698 727 698 751 698 751> 411 87<794.5 838>
AnchorPoint: "Anchor-5" 444 0 basechar 0
AnchorPoint: "Anchor-4" 338 0 basechar 0
AnchorPoint: "Anchor-2" 337 0 basechar 0
AnchorPoint: "Anchor-0" 370 657 basechar 0
LayerCount: 2
Fore
SplineSet
230 0 m 1xd580
 2 0 l 1
 2 43 l 1
 53 43 72 61 103 140 c 2
 320 662 l 1
 425 662 l 1
 641 138 l 2
 668 74 694 43 740 43 c 1
 740 0 l 1
 419 0 l 1
 419 43 l 1
 444 43 478 45 478 75 c 0
 478 90 469 123 458 151 c 2
 435 211 l 1
 205 211 l 1
 176 138 l 2
 170 121 162 97 162 80 c 0xd680
 162 48 180 43 230 43 c 1
 230 0 l 1xd580
223 263 m 1
 417 263 l 1
 328 512 l 1
 324 512 l 1xed80
 223 263 l 1
409 698 m 1
 349 698 l 1
 349 751 l 1xdd80
 394 752 411 770 411 819 c 0
 411 857 401 865 384 865 c 0
 343 865 357 818 319 818 c 0
 297 818 285 833 285 850 c 0
 285 887 337 905 388 905 c 0
 460 905 498 868 498 817 c 0xdd40
 498 756 441 733 409 727 c 1
 409 698 l 1
EndSplineSet
Substitution2: "'c2sc' Capitals to Small Capitals in Latin lookup 5 subtable" uni1EA2.c2sc
EndChar

StartChar: uni1E00
Encoding: 7680 7680 50
Width: 749
GlyphClass: 2
Flags: MW
HStem: -259 52<320 354.5 320 369> -99 51<320 354> 0 43<2 27.5 205 230 2 27.5 419 431.5 717 740> 211 52<223 417 223 435 205 417> 512 150<324 328 324 324> 642 20G<320 425 425 425>
VStem: 2 160<0 88.5 43 88.5> 2 228<0 43 0 43> 223 66<-169 -138 -169 -120.5> 386 65<-169 -138>
AnchorPoint: "Anchor-5" 444 0 basechar 0
AnchorPoint: "Anchor-4" 338 0 basechar 0
AnchorPoint: "Anchor-3" 337 -259 basechar 0
AnchorPoint: "Anchor-0" 370 657 basechar 0
LayerCount: 2
Fore
SplineSet
230 0 m 1xf540
 2 0 l 1
 2 43 l 1
 53 43 72 61 103 140 c 2
 320 662 l 1
 425 662 l 1
 641 138 l 2
 668 74 694 43 740 43 c 1
 740 0 l 1
 419 0 l 1
 419 43 l 1
 444 43 478 45 478 75 c 0
 478 90 469 123 458 151 c 2
 435 211 l 1
 205 211 l 1
 176 138 l 2
 170 121 162 97 162 80 c 0xf6c0
 162 48 180 43 230 43 c 1
 230 0 l 1xf540
337 -259 m 0
 275 -259 223 -223 223 -153 c 0
 223 -88 274 -48 337 -48 c 0
 401 -48 451 -88 451 -154 c 0
 451 -223 401 -259 337 -259 c 0
223 263 m 1
 417 263 l 1
 328 512 l 1
 324 512 l 1xf8c0
 223 263 l 1
337 -207 m 0
 372 -207 386 -185 386 -153 c 0
 386 -123 371 -99 337 -99 c 0
 303 -99 289 -123 289 -153 c 0
 289 -185 303 -207 337 -207 c 0
EndSplineSet
Substitution2: "'c2sc' Capitals to Small Capitals in Latin lookup 5 subtable" uni1E00.c2sc
EndChar

StartChar: uni1EA0
Encoding: 7840 7840 51
Width: 749
GlyphClass: 2
Flags: MW
HStem: -220 156<312 363.5> 0 43<2 27.5 205 230 2 27.5 419 431.5 717 740> 211 52<223 417 223 435 205 417> 512 150<324 328 324 324> 642 20G<320 425 425 425>
VStem: 2 160<0 88.5 43 88.5> 2 228<0 43 0 43> 256 162<-165 -118.5>
AnchorPoint: "Anchor-5" 444 0 basechar 0
AnchorPoint: "Anchor-4" 338 0 basechar 0
AnchorPoint: "Anchor-3" 337 -220 basechar 0
AnchorPoint: "Anchor-0" 370 657 basechar 0
LayerCount: 2
Fore
SplineSet
230 0 m 1xeb
 2 0 l 1
 2 43 l 1
 53 43 72 61 103 140 c 2
 320 662 l 1
 425 662 l 1
 641 138 l 2
 668 74 694 43 740 43 c 1
 740 0 l 1
 419 0 l 1
 419 43 l 1
 444 43 478 45 478 75 c 0
 478 90 469 123 458 151 c 2
 435 211 l 1
 205 211 l 1
 176 138 l 2
 170 121 162 97 162 80 c 0xed
 162 48 180 43 230 43 c 1
 230 0 l 1xeb
223 263 m 1
 417 263 l 1
 328 512 l 1
 324 512 l 1xf5
 223 263 l 1
337 -220 m 0
 287 -220 256 -189 256 -142 c 0
 256 -95 286 -64 337 -64 c 0
 390 -64 418 -95 418 -141 c 0
 418 -189 390 -220 337 -220 c 0
EndSplineSet
Substitution2: "'c2sc' Capitals to Small Capitals in Latin lookup 5 subtable" uni1EA0.c2sc
EndChar

StartChar: Aogonek
Encoding: 260 260 52
Width: 749
GlyphClass: 2
Flags: MW
HStem: -221 66<454 462.5> 0 43<2 27.5 205.5 230 2 27.5 717 740> 211 52<223 417 223 435 205 417> 512 150<324 328 324 324> 642 20G<320 425 425 425>
VStem: 2 160<0 88.5 43 88.5> 2 228<0 43 0 43> 320 96<-120.5 -103>
AnchorPoint: "Anchor-5" 338 -250 basechar 0
AnchorPoint: "Anchor-4" 338 -250 basechar 0
AnchorPoint: "Anchor-3" 337 -250 basechar 0
AnchorPoint: "Anchor-0" 371 657 basechar 0
LayerCount: 2
Fore
SplineSet
432 -221 m 0xed
 368 -221 320 -190 320 -128 c 0
 320 -78 351 -44 397 -7 c 0
 446 32 477 48 477 77 c 0
 477 91 470 119 458 151 c 2
 435 211 l 1
 205 211 l 1
 176 138 l 2
 169 121 162 98 162 79 c 0xed
 162 48 181 43 230 43 c 1
 230 0 l 1xeb
 2 0 l 1
 2 43 l 1
 53 43 70 62 103 140 c 2
 320 662 l 1
 425 662 l 1
 641 138 l 2
 667 74 694 43 740 43 c 1
 740 0 l 1
 540 0 l 2
 455 0 416 -45 416 -101 c 0
 416 -140 435 -155 473 -155 c 0
 501 -155 518 -147 546 -126 c 1
 569 -154 l 1
 530 -193 493 -221 432 -221 c 0xed
223 263 m 1
 417 263 l 1
 328 512 l 1
 324 512 l 1xf5
 223 263 l 1
EndSplineSet
Substitution2: "'c2sc' Capitals to Small Capitals in Latin lookup 5 subtable" Aogonek.c2sc
EndChar

StartChar: AE
Encoding: 198 198 53
Width: 954
GlyphClass: 2
Flags: MW
HStem: 0 43<-26 2 187.5 211 -26 2 324 369.5> 0 61<569 685 685 748.5> 301 54<280 421 280 421 254 421 569 656> 476 181<845 890 267 896 845 845> 594 63<414 421 414 414 569 704 569 569> 615 42<267 287>
VStem: -26 170<0 92 43 92> -26 237<0 43 0 43> 421 148<158 301 61 301 355 594> 767 47<212 252 400 440> 845 48
AnchorPoint: "Anchor-5" 804 0 basechar 0
AnchorPoint: "Anchor-4" 656 0 basechar 0
AnchorPoint: "Anchor-2" 482 0 basechar 0
AnchorPoint: "Anchor-0" 600 657 basechar 0
LayerCount: 2
Fore
SplineSet
211 0 m 1x69c0
 -26 0 l 1x6ac0
 -26 43 l 1
 30 43 51 72 92 147 c 2
 318 542 l 2
 325 556 331 569 331 584 c 0
 331 611 307 615 267 615 c 1xa6c0
 267 657 l 1
 890 657 l 1x69e0
 896 476 l 1
 845 476 l 1x71e0
 831 576 799 594 704 594 c 2
 569 594 l 1
 569 355 l 1
 656 355 l 2
 748 355 767 360 767 440 c 1
 814 440 l 1
 814 212 l 1
 767 212 l 1
 767 292 748 301 656 301 c 2
 569 301 l 1
 569 61 l 1
 685 61 l 2
 812 61 844 80 877 197 c 1
 926 197 l 1
 900 0 l 1
 324 0 l 1x69c0
 324 43 l 1
 415 43 421 56 421 158 c 2
 421 301 l 1
 254 301 l 1
 159 132 l 2
 152 120 144 103 144 81 c 0xaac0
 144 50 164 43 211 43 c 1xa9c0
 211 0 l 1x69c0
280 355 m 1
 421 355 l 1
 421 594 l 1
 414 594 l 1
 280 355 l 1
EndSplineSet
Substitution2: "'c2sc' Capitals to Small Capitals in Latin lookup 5 subtable" AE.c2sc
EndChar

StartChar: AEacute
Encoding: 508 508 54
Width: 965
GlyphClass: 2
Flags: MW
HStem: 0 43<2 30 215.5 239 2 30 352 397.5> 0 61<597 713 713 776.5> 301 54<308 449 308 449 282 449 597 684> 476 181<873 918 295 924 873 873> 594 63<442 449 442 442 597 732 597 597> 615 42<295 315> 698 133<523 745 523 745> 799 32<624 745>
VStem: 2 170<0 92 43 92> 2 237<0 43 0 43> 449 148<158 301 61 301 355 594> 795 47<212 252 400 440> 873 48
AnchorPoint: "Anchor-5" 832 0 basechar 0
AnchorPoint: "Anchor-4" 684 0 basechar 0
AnchorPoint: "Anchor-2" 510 0 basechar 0
AnchorPoint: "Anchor-1" 628 830 basechar 0
LayerCount: 2
Fore
SplineSet
239 0 m 1x6970
 2 0 l 1x6ab0
 2 43 l 1
 58 43 79 72 120 147 c 2
 346 542 l 2
 353 556 359 569 359 584 c 0
 359 611 335 615 295 615 c 1xa5b0
 295 657 l 1
 918 657 l 1x6978
 924 476 l 1
 873 476 l 1x7178
 859 576 827 594 732 594 c 2
 597 594 l 1
 597 355 l 1
 684 355 l 2
 776 355 795 360 795 440 c 1
 842 440 l 1
 842 212 l 1
 795 212 l 1
 795 292 776 301 684 301 c 2
 597 301 l 1
 597 61 l 1
 713 61 l 2
 840 61 872 80 905 197 c 1
 954 197 l 1
 928 0 l 1
 352 0 l 1x6970
 352 43 l 1
 443 43 449 56 449 158 c 2
 449 301 l 1
 282 301 l 1
 187 132 l 2
 180 120 172 103 172 81 c 0xa9b0
 172 50 192 43 239 43 c 1xa970
 239 0 l 1x6970
308 355 m 1
 449 355 l 1
 449 594 l 1
 442 594 l 1
 308 355 l 1
588 698 m 1
 523 698 l 1x6a70
 624 831 l 1
 745 831 l 1
 745 799 l 1x6970
 588 698 l 1
EndSplineSet
Substitution2: "'c2sc' Capitals to Small Capitals in Latin lookup 5 subtable" AEacute.c2sc
EndChar

StartChar: uni1E02
Encoding: 7682 7682 55
Width: 672
GlyphClass: 2
Flags: MW
HStem: 0 43<35 75 35 389 35 75> 0 50<322.5 374.5 322.5 389> 317 53<277 326 326 335 277 326> 602 55<316.5 369 369 374> 613 44<35 74> 695 153<298.5 349.5>
VStem: 128 149<134 317 53 370 370 527 527 565> 243 161<748.5 795> 451 160<463.5 527> 475 167<119 238 118.5 238.5>
AnchorPoint: "Anchor-5" 397 0 basechar 0
AnchorPoint: "Anchor-4" 329 0 basechar 0
AnchorPoint: "Anchor-2" 323 0 basechar 0
AnchorPoint: "Anchor-1" 324 848 basechar 0
LayerCount: 2
Fore
SplineSet
389 0 m 2x7240
 35 0 l 1x7240
 35 43 l 1
 115 43 128 55 128 134 c 2
 128 527 l 2
 128 603 113 613 35 613 c 1xaa40
 35 657 l 1
 369 657 l 2
 553 657 611 598 611 508 c 0x7280
 611 419 550 377 465 354 c 1
 465 348 l 1
 551 336 642 299 642 177 c 0
 642 60 552 0 389 0 c 2x7240
333 50 m 0
 416 50 475 60 475 178 c 0
 475 299 408 317 335 317 c 2
 277 317 l 1
 277 53 l 1
 296 51 312 50 333 50 c 0
277 599 m 1
 277 370 l 1
 326 370 l 2
 424 370 451 401 451 488 c 0x7280
 451 566 424 602 324 602 c 0
 309 602 296 601 277 599 c 1
324 695 m 0x7540
 273 695 243 725 243 772 c 0
 243 818 273 848 324 848 c 0
 376 848 404 818 404 772 c 0
 404 725 375 695 324 695 c 0x7540
EndSplineSet
Substitution2: "'c2sc' Capitals to Small Capitals in Latin lookup 5 subtable" uni1E02.c2sc
EndChar

StartChar: uni1E06
Encoding: 7686 7686 56
Width: 672
GlyphClass: 2
Flags: MW
HStem: -151 75<178 468 178 468> 0 43<35 75 35 389 35 75> 0 50<322.5 374.5 322.5 389> 317 53<277 326 326 335 277 326> 602 55<316.5 369 369 374> 613 44<35 74>
VStem: 128 149<134 317 53 370 370 527 527 565> 178 99 451 160<463.5 527> 475 167<119 238 118.5 238.5>
AnchorPoint: "Anchor-5" 397 0 basechar 0
AnchorPoint: "Anchor-4" 329 0 basechar 0
AnchorPoint: "Anchor-3" 323 -151 basechar 0
AnchorPoint: "Anchor-0" 323 657 basechar 0
LayerCount: 2
Fore
SplineSet
389 0 m 2xba40
 35 0 l 1xba40
 35 43 l 1
 115 43 128 55 128 134 c 2
 128 527 l 2
 128 603 113 613 35 613 c 1xd640
 35 657 l 1
 369 657 l 2
 553 657 611 598 611 508 c 0xba80
 611 419 550 377 465 354 c 1
 465 348 l 1
 551 336 642 299 642 177 c 0
 642 60 552 0 389 0 c 2xba40
333 50 m 0
 416 50 475 60 475 178 c 0
 475 299 408 317 335 317 c 2
 277 317 l 1
 277 53 l 1
 296 51 312 50 333 50 c 0
277 599 m 1
 277 370 l 1
 326 370 l 2
 424 370 451 401 451 488 c 0xba80
 451 566 424 602 324 602 c 0
 309 602 296 601 277 599 c 1
468 -151 m 1
 178 -151 l 1
 178 -76 l 1xb940
 468 -76 l 1
 468 -151 l 1
EndSplineSet
Substitution2: "'c2sc' Capitals to Small Capitals in Latin lookup 5 subtable" uni1E06.c2sc
EndChar

StartChar: uni1E04
Encoding: 7684 7684 57
Width: 672
GlyphClass: 2
Flags: MW
HStem: -220 156<298 349.5> 0 43<35 75 35 389 35 75> 0 50<322.5 374.5 322.5 389> 317 53<277 326 326 335 277 326> 602 55<316.5 369 369 374> 613 44<35 74>
VStem: 128 149<134 317 53 370 370 527 527 565> 242 162<-165 -118.5> 451 160<463.5 527> 475 167<119 238 118.5 238.5>
AnchorPoint: "Anchor-5" 397 0 basechar 0
AnchorPoint: "Anchor-4" 329 0 basechar 0
AnchorPoint: "Anchor-3" 323 -220 basechar 0
AnchorPoint: "Anchor-0" 323 657 basechar 0
LayerCount: 2
Fore
SplineSet
389 0 m 2xba40
 35 0 l 1xba40
 35 43 l 1
 115 43 128 55 128 134 c 2
 128 527 l 2
 128 603 113 613 35 613 c 1xd640
 35 657 l 1
 369 657 l 2
 553 657 611 598 611 508 c 0xba80
 611 419 550 377 465 354 c 1
 465 348 l 1
 551 336 642 299 642 177 c 0
 642 60 552 0 389 0 c 2xba40
333 50 m 0
 416 50 475 60 475 178 c 0
 475 299 408 317 335 317 c 2
 277 317 l 1
 277 53 l 1
 296 51 312 50 333 50 c 0
277 599 m 1
 277 370 l 1
 326 370 l 2
 424 370 451 401 451 488 c 0xba80
 451 566 424 602 324 602 c 0
 309 602 296 601 277 599 c 1
323 -220 m 0xb940
 273 -220 242 -189 242 -142 c 0
 242 -95 272 -64 323 -64 c 0
 376 -64 404 -95 404 -141 c 0
 404 -189 376 -220 323 -220 c 0xb940
EndSplineSet
Substitution2: "'c2sc' Capitals to Small Capitals in Latin lookup 5 subtable" uni1E04.c2sc
EndChar

StartChar: Cacute
Encoding: 262 262 58
Width: 685
GlyphClass: 2
Flags: MW
HStem: -12 97<339.5 441> 615 54<321.5 433> 616 20G<533 559> 698 133<277 499 277 499> 799 32<378 499>
VStem: 45 157<253.5 434.5 253.5 436> 580 43<423 669>
AnchorPoint: "Anchor-5" 360 0 basechar 0
AnchorPoint: "Anchor-4" 360 0 basechar 0
AnchorPoint: "Anchor-2" 361 0 basechar 0
AnchorPoint: "Anchor-1" 382 830 basechar 0
LayerCount: 2
Fore
SplineSet
361 -12 m 0xce
 143 -12 45 127 45 321 c 0xce
 45 551 183 669 384 669 c 0
 490 669 518 636 548 636 c 0xae
 570 636 576 654 580 669 c 1
 623 669 l 1
 623 423 l 1
 575 423 l 1
 548 548 484 615 382 615 c 0
 261 615 202 522 202 347 c 0
 202 160 269 85 410 85 c 0
 508 85 562 121 620 185 c 1
 652 157 l 1
 586 63 521 -12 361 -12 c 0xce
342 698 m 1xd6
 277 698 l 1xd6
 378 831 l 1
 499 831 l 1
 499 799 l 1xce
 342 698 l 1xd6
EndSplineSet
Substitution2: "'c2sc' Capitals to Small Capitals in Latin lookup 5 subtable" Cacute.c2sc
EndChar

StartChar: Ccircumflex
Encoding: 264 264 59
Width: 685
GlyphClass: 2
Flags: MW
HStem: -12 97<339.5 441> 615 54<321.5 433> 616 20G<533 559> 698 139<215 426 215 426 333 484 333 546> 766 71<380 380>
VStem: 45 157<253.5 434.5 253.5 436> 580 43<423 669>
AnchorPoint: "Anchor-5" 360 0 basechar 0
AnchorPoint: "Anchor-4" 360 0 basechar 0
AnchorPoint: "Anchor-2" 361 0 basechar 0
AnchorPoint: "Anchor-1" 380 836 basechar 0
LayerCount: 2
Fore
SplineSet
361 -12 m 0xc6
 143 -12 45 127 45 321 c 0xc6
 45 551 183 669 384 669 c 0
 490 669 518 636 548 636 c 0xa6
 570 636 576 654 580 669 c 1
 623 669 l 1
 623 423 l 1
 575 423 l 1
 548 548 484 615 382 615 c 0
 261 615 202 522 202 347 c 0
 202 160 269 85 410 85 c 0
 508 85 562 121 620 185 c 1
 652 157 l 1
 586 63 521 -12 361 -12 c 0xc6
278 698 m 1xd6
 215 698 l 1
 333 837 l 1
 426 837 l 1
 546 698 l 1
 484 698 l 1xd6
 380 766 l 1xce
 278 698 l 1xd6
EndSplineSet
Substitution2: "'c2sc' Capitals to Small Capitals in Latin lookup 5 subtable" Ccircumflex.c2sc
EndChar

StartChar: Ccaron
Encoding: 268 268 60
Width: 685
GlyphClass: 2
Flags: MW
HStem: -12 97<339.5 441> 615 54<321.5 433> 616 20G<533 559> 698 139<214 427 214 334>
VStem: 45 157<253.5 434.5 253.5 436> 580 43<423 669>
AnchorPoint: "Anchor-5" 360 0 basechar 0
AnchorPoint: "Anchor-4" 360 0 basechar 0
AnchorPoint: "Anchor-2" 361 0 basechar 0
AnchorPoint: "Anchor-1" 380 837 basechar 0
LayerCount: 2
Fore
SplineSet
361 -12 m 0xcc
 143 -12 45 127 45 321 c 0xcc
 45 551 183 669 384 669 c 0
 490 669 518 636 548 636 c 0xac
 570 636 576 654 580 669 c 1
 623 669 l 1
 623 423 l 1
 575 423 l 1
 548 548 484 615 382 615 c 0
 261 615 202 522 202 347 c 0
 202 160 269 85 410 85 c 0
 508 85 562 121 620 185 c 1
 652 157 l 1
 586 63 521 -12 361 -12 c 0xcc
427 698 m 1xdc
 334 698 l 1
 214 837 l 1
 276 837 l 1
 380 769 l 1
 482 837 l 1
 545 837 l 1
 427 698 l 1xdc
EndSplineSet
Substitution2: "'c2sc' Capitals to Small Capitals in Latin lookup 5 subtable" Ccaron.c2sc
EndChar

StartChar: Cdotaccent
Encoding: 266 266 61
Width: 685
GlyphClass: 2
Flags: MW
HStem: -12 97<339.5 441> 615 54<321.5 433> 616 20G<533 559> 695 153<355.5 406.5>
VStem: 45 157<253.5 434.5 253.5 436> 300 161<748.5 795> 580 43<423 669>
AnchorPoint: "Anchor-5" 360 0 basechar 0
AnchorPoint: "Anchor-4" 360 0 basechar 0
AnchorPoint: "Anchor-2" 361 0 basechar 0
AnchorPoint: "Anchor-1" 381 848 basechar 0
LayerCount: 2
Fore
SplineSet
361 -12 m 0xca
 143 -12 45 127 45 321 c 0xca
 45 551 183 669 384 669 c 0
 490 669 518 636 548 636 c 0xaa
 570 636 576 654 580 669 c 1
 623 669 l 1
 623 423 l 1
 575 423 l 1
 548 548 484 615 382 615 c 0
 261 615 202 522 202 347 c 0
 202 160 269 85 410 85 c 0
 508 85 562 121 620 185 c 1
 652 157 l 1
 586 63 521 -12 361 -12 c 0xca
381 695 m 0xde
 330 695 300 725 300 772 c 0
 300 818 330 848 381 848 c 0
 433 848 461 818 461 772 c 0
 461 725 432 695 381 695 c 0xde
EndSplineSet
Substitution2: "'c2sc' Capitals to Small Capitals in Latin lookup 5 subtable" Cdotaccent.c2sc
EndChar

StartChar: Ccedilla
Encoding: 199 199 62
Width: 685
GlyphClass: 2
Flags: MW
HStem: -221 48<325.5 351 324.5 380> -97 46<337 397.5> -12 97<355 361 355 356> 615 54<321.5 433> 616 20G<533 559>
VStem: 45 157<253.5 434.5 253.5 436> 387 78<-147 -121.5> 580 43<423 669>
AnchorPoint: "Anchor-5" 360 0 basechar 0
AnchorPoint: "Anchor-4" 360 0 basechar 0
AnchorPoint: "Anchor-3" 360 -242 basechar 0
AnchorPoint: "Anchor-0" 382 657 basechar 0
LayerCount: 2
Fore
SplineSet
361 -12 m 0xf7
 359 -12 357 -12 355 -12 c 2
 345 -53 l 1
 345 -53 357 -51 369 -51 c 0
 426 -51 465 -80 465 -130 c 0
 465 -193 414 -221 346 -221 c 0
 305 -221 278 -203 254 -184 c 1
 272 -152 l 1
 290 -164 312 -173 337 -173 c 0
 365 -173 387 -162 387 -132 c 0
 387 -111 372 -97 345 -97 c 0
 329 -97 312 -100 312 -100 c 1
 296 -84 l 1
 315 -10 l 1
 129 8 45 141 45 321 c 0xf7
 45 551 183 669 384 669 c 0
 490 669 518 636 548 636 c 0xef
 570 636 576 654 580 669 c 1
 623 669 l 1
 623 423 l 1
 575 423 l 1
 548 548 484 615 382 615 c 0
 261 615 202 522 202 347 c 0
 202 160 269 85 410 85 c 0
 508 85 562 121 620 185 c 1
 652 157 l 1
 586 63 521 -12 361 -12 c 0xf7
EndSplineSet
Substitution2: "'c2sc' Capitals to Small Capitals in Latin lookup 5 subtable" Ccedilla.c2sc
EndChar

StartChar: uni1E08
Encoding: 7688 7688 63
Width: 685
GlyphClass: 2
Flags: MW
HStem: -221 48<325.5 351 324.5 380> -97 46<337 397.5> -12 97<355 361 355 356> 615 54<321.5 433> 616 20G<533 559> 698 133<275 497 275 497> 799 32<376 497>
VStem: 45 157<253.5 434.5 253.5 436> 387 78<-147 -121.5> 580 43<423 669>
AnchorPoint: "Anchor-5" 360 0 basechar 0
AnchorPoint: "Anchor-4" 360 0 basechar 0
AnchorPoint: "Anchor-3" 360 -242 basechar 0
AnchorPoint: "Anchor-1" 380 830 basechar 0
LayerCount: 2
Fore
SplineSet
361 -12 m 0xf3c0
 359 -12 357 -12 355 -12 c 2
 345 -53 l 1
 345 -53 357 -51 369 -51 c 0
 426 -51 465 -80 465 -130 c 0
 465 -193 414 -221 346 -221 c 0
 305 -221 278 -203 254 -184 c 1
 272 -152 l 1
 290 -164 312 -173 337 -173 c 0
 365 -173 387 -162 387 -132 c 0
 387 -111 372 -97 345 -97 c 0
 329 -97 312 -100 312 -100 c 1
 296 -84 l 1
 315 -10 l 1
 129 8 45 141 45 321 c 0xf3c0
 45 551 183 669 384 669 c 0
 490 669 518 636 548 636 c 0xebc0
 570 636 576 654 580 669 c 1
 623 669 l 1
 623 423 l 1
 575 423 l 1
 548 548 484 615 382 615 c 0
 261 615 202 522 202 347 c 0
 202 160 269 85 410 85 c 0
 508 85 562 121 620 185 c 1
 652 157 l 1
 586 63 521 -12 361 -12 c 0xf3c0
340 698 m 1xf5c0
 275 698 l 1xf5c0
 376 831 l 1
 497 831 l 1
 497 799 l 1xf3c0
 340 698 l 1xf5c0
EndSplineSet
Substitution2: "'c2sc' Capitals to Small Capitals in Latin lookup 5 subtable" uni1E08.c2sc
EndChar

StartChar: Dcaron
Encoding: 270 270 64
Width: 766
GlyphClass: 2
Flags: MW
HStem: 0 43<35 76 35 327 35 76> 0 57<315 327> 600 57<309 323 323 399.5> 611 46<35 70> 698 139<196 409 196 316>
VStem: 128 148<137 529 529 566> 563 158<218 416>
AnchorPoint: "Anchor-5" 340 0 basechar 0
AnchorPoint: "Anchor-4" 334 0 basechar 0
AnchorPoint: "Anchor-2" 341 0 basechar 0
AnchorPoint: "Anchor-1" 362 837 basechar 0
LayerCount: 2
Fore
SplineSet
327 0 m 2x66
 35 0 l 1x6e
 35 43 l 1
 117 43 128 55 128 137 c 2
 128 529 l 2
 128 603 105 611 35 611 c 1x96
 35 657 l 1
 323 657 l 2
 523 657 721 603 721 340 c 0
 721 79 544 0 327 0 c 2x66
322 57 m 0
 472 57 563 107 563 329 c 0
 563 503 484 600 315 600 c 0
 303 600 293 600 276 599 c 1
 276 58 l 1
 292 57 308 57 322 57 c 0
409 698 m 1
 316 698 l 1
 196 837 l 1
 258 837 l 1
 362 769 l 1
 464 837 l 1
 527 837 l 1
 409 698 l 1
EndSplineSet
Substitution2: "'c2sc' Capitals to Small Capitals in Latin lookup 5 subtable" Dcaron.c2sc
EndChar

StartChar: uni1E0A
Encoding: 7690 7690 65
Width: 766
GlyphClass: 2
Flags: MW
HStem: 0 43<35 76 35 327 35 76> 0 57<315 327> 600 57<309 323 323 399.5> 611 46<35 70> 695 153<337.5 388.5>
VStem: 128 148<137 529 529 566> 282 161<748.5 795> 563 158<218 416>
AnchorPoint: "Anchor-5" 340 0 basechar 0
AnchorPoint: "Anchor-4" 334 0 basechar 0
AnchorPoint: "Anchor-2" 341 0 basechar 0
AnchorPoint: "Anchor-1" 363 848 basechar 0
LayerCount: 2
Fore
SplineSet
327 0 m 2x65
 35 0 l 1x65
 35 43 l 1
 117 43 128 55 128 137 c 2
 128 529 l 2
 128 603 105 611 35 611 c 1x95
 35 657 l 1
 323 657 l 2
 523 657 721 603 721 340 c 0
 721 79 544 0 327 0 c 2x65
322 57 m 0
 472 57 563 107 563 329 c 0
 563 503 484 600 315 600 c 0
 303 600 293 600 276 599 c 1
 276 58 l 1
 292 57 308 57 322 57 c 0
363 695 m 0x6b
 312 695 282 725 282 772 c 0
 282 818 312 848 363 848 c 0
 415 848 443 818 443 772 c 0
 443 725 414 695 363 695 c 0x6b
EndSplineSet
Substitution2: "'c2sc' Capitals to Small Capitals in Latin lookup 5 subtable" uni1E0A.c2sc
EndChar

StartChar: uni1E12
Encoding: 7698 7698 66
Width: 766
GlyphClass: 2
Flags: MW
HStem: -203 153<188 388 188 388 295 436 295 494> -117 67<342 342> 0 43<35 76 35 327 35 76> 0 57<315 327> 600 57<309 323 323 399.5> 611 46<35 70>
VStem: 128 148<137 529 529 566> 563 158<218 416>
AnchorPoint: "Anchor-5" 340 0 basechar 0
AnchorPoint: "Anchor-4" 334 0 basechar 0
AnchorPoint: "Anchor-3" 341 -203 basechar 0
AnchorPoint: "Anchor-0" 362 657 basechar 0
LayerCount: 2
Fore
SplineSet
327 0 m 2x1b
 35 0 l 1x9b
 35 43 l 1
 117 43 128 55 128 137 c 2
 128 529 l 2
 128 603 105 611 35 611 c 1x27
 35 657 l 1
 323 657 l 2
 523 657 721 603 721 340 c 0
 721 79 544 0 327 0 c 2x1b
322 57 m 0
 472 57 563 107 563 329 c 0
 563 503 484 600 315 600 c 0
 303 600 293 600 276 599 c 1
 276 58 l 1
 292 57 308 57 322 57 c 0
247 -203 m 1
 188 -203 l 1
 295 -50 l 1
 388 -50 l 1
 494 -203 l 1
 436 -203 l 1x9b
 342 -117 l 1x5b
 247 -203 l 1
EndSplineSet
Substitution2: "'c2sc' Capitals to Small Capitals in Latin lookup 5 subtable" uni1E12.c2sc
EndChar

StartChar: uni1E0E
Encoding: 7694 7694 67
Width: 766
GlyphClass: 2
Flags: MW
HStem: -151 75<196 486 196 486> 0 43<35 76 35 327 35 76> 0 57<315 327> 600 57<309 323 323 399.5> 611 46<35 70>
VStem: 128 148<137 529 529 566> 196 80 563 158<218 416>
AnchorPoint: "Anchor-5" 340 0 basechar 0
AnchorPoint: "Anchor-4" 334 0 basechar 0
AnchorPoint: "Anchor-3" 341 -151 basechar 0
AnchorPoint: "Anchor-0" 362 657 basechar 0
LayerCount: 2
Fore
SplineSet
327 0 m 2xb5
 35 0 l 1xb5
 35 43 l 1
 117 43 128 55 128 137 c 2
 128 529 l 2
 128 603 105 611 35 611 c 1xcd
 35 657 l 1
 323 657 l 2
 523 657 721 603 721 340 c 0
 721 79 544 0 327 0 c 2xb5
322 57 m 0
 472 57 563 107 563 329 c 0
 563 503 484 600 315 600 c 0
 303 600 293 600 276 599 c 1
 276 58 l 1
 292 57 308 57 322 57 c 0
486 -151 m 1
 196 -151 l 1
 196 -76 l 1xb3
 486 -76 l 1
 486 -151 l 1
EndSplineSet
Substitution2: "'c2sc' Capitals to Small Capitals in Latin lookup 5 subtable" uni1E0E.c2sc
EndChar

StartChar: uni1E0C
Encoding: 7692 7692 68
Width: 766
GlyphClass: 2
Flags: MW
HStem: -220 156<316 367.5> 0 43<35 76 35 327 35 76> 0 57<315 327> 600 57<309 323 323 399.5> 611 46<35 70>
VStem: 128 148<137 529 529 566> 260 162<-165 -118.5> 563 158<218 416>
AnchorPoint: "Anchor-5" 340 0 basechar 0
AnchorPoint: "Anchor-4" 334 0 basechar 0
AnchorPoint: "Anchor-3" 341 -220 basechar 0
AnchorPoint: "Anchor-0" 362 657 basechar 0
LayerCount: 2
Fore
SplineSet
327 0 m 2xb5
 35 0 l 1xb5
 35 43 l 1
 117 43 128 55 128 137 c 2
 128 529 l 2
 128 603 105 611 35 611 c 1xcd
 35 657 l 1
 323 657 l 2
 523 657 721 603 721 340 c 0
 721 79 544 0 327 0 c 2xb5
322 57 m 0
 472 57 563 107 563 329 c 0
 563 503 484 600 315 600 c 0
 303 600 293 600 276 599 c 1
 276 58 l 1
 292 57 308 57 322 57 c 0
341 -220 m 0xb3
 291 -220 260 -189 260 -142 c 0
 260 -95 290 -64 341 -64 c 0
 394 -64 422 -95 422 -141 c 0
 422 -189 394 -220 341 -220 c 0xb3
EndSplineSet
Substitution2: "'c2sc' Capitals to Small Capitals in Latin lookup 5 subtable" uni1E0C.c2sc
EndChar

StartChar: uni1E10
Encoding: 7696 7696 69
Width: 766
GlyphClass: 2
Flags: MW
HStem: -169 131<315 331.5> 0 43<35 76 35 327 35 76> 0 57<315 327> 600 57<309 323 323 399.5> 611 46<35 70>
VStem: 128 148<137 529 529 566> 361 67<-194 -162> 563 158<218 416>
AnchorPoint: "Anchor-5" 340 0 basechar 0
AnchorPoint: "Anchor-4" 334 0 basechar 0
AnchorPoint: "Anchor-3" 341 -302 basechar 0
AnchorPoint: "Anchor-0" 362 657 basechar 0
LayerCount: 2
Fore
SplineSet
327 0 m 2x37
 35 0 l 1xb7
 35 43 l 1
 117 43 128 55 128 137 c 2
 128 529 l 2
 128 603 105 611 35 611 c 1x4f
 35 657 l 1
 323 657 l 2
 523 657 721 603 721 340 c 0
 721 79 544 0 327 0 c 2x37
322 57 m 0
 472 57 563 107 563 329 c 0
 563 503 484 600 315 600 c 0
 303 600 293 600 276 599 c 1
 276 58 l 1
 292 57 308 57 322 57 c 0
293 -302 m 1
 278 -270 l 1
 318 -254 361 -227 361 -162 c 1
 348 -167 337 -169 326 -169 c 0
 290 -169 266 -146 266 -108 c 0
 266 -69 290 -38 340 -38 c 0
 397 -38 428 -78 428 -141 c 0
 428 -247 342 -285 293 -302 c 1
EndSplineSet
Substitution2: "'c2sc' Capitals to Small Capitals in Latin lookup 5 subtable" uni1E10.c2sc
EndChar

StartChar: Dcroat
Encoding: 272 272 70
Width: 765
GlyphClass: 2
Flags: MW
HStem: 0 43<39 80 39 331 39 80> 0 57<319 331> 305 65<43 132 43 132 280 432> 600 57<313 327 327 403.5> 611 46<39 74>
VStem: 132 148<137 305 58 305 370 529 529 566> 567 158<218 416>
AnchorPoint: "Anchor-5" 348 0 basechar 0
AnchorPoint: "Anchor-4" 348 0 basechar 0
AnchorPoint: "Anchor-2" 348 0 basechar 0
AnchorPoint: "Anchor-0" 369 657 basechar 0
LayerCount: 2
Fore
SplineSet
331 0 m 2x76
 39 0 l 1x76
 39 43 l 1
 121 43 132 55 132 137 c 2
 132 305 l 1
 43 305 l 1
 43 370 l 1
 132 370 l 1
 132 529 l 2
 132 603 109 611 39 611 c 1xae
 39 657 l 1
 327 657 l 2
 527 657 725 603 725 340 c 0
 725 79 548 0 331 0 c 2x76
432 305 m 1
 280 305 l 1
 280 58 l 1
 296 57 312 57 326 57 c 0
 476 57 567 107 567 329 c 0
 567 503 488 600 319 600 c 0
 307 600 297 600 280 599 c 1
 280 370 l 1
 432 370 l 1
 432 305 l 1
EndSplineSet
Substitution2: "'c2sc' Capitals to Small Capitals in Latin lookup 5 subtable" Dcroat.c2sc
EndChar

StartChar: Egrave
Encoding: 200 200 71
Width: 660
GlyphClass: 2
Flags: MW
HStem: 0 43<35 69 35 608 35 69> 0 61<276 394 394 459.5> 310 54<276 365 276 365> 476 181<552 597 35 603 552 552> 594 63<276 408 276 276> 613 44<35 76> 698 133<234 456 234 391> 799 32<234 355>
VStem: 128 148<126 310 364 523 523 560.5> 474 47<218 259.5 410 449>
AnchorPoint: "Anchor-5" 511 0 basechar 0
AnchorPoint: "Anchor-4" 352 0 basechar 0
AnchorPoint: "Anchor-2" 352 0 basechar 0
AnchorPoint: "Anchor-1" 351 831 basechar 0
LayerCount: 2
Fore
SplineSet
608 0 m 1x69c0
 35 0 l 1x6ac0
 35 43 l 1
 103 43 128 52 128 126 c 2
 128 523 l 2
 128 598 117 613 35 613 c 1xa5c0
 35 657 l 1
 597 657 l 1x69c0
 603 476 l 1
 552 476 l 1x71c0
 537 566 519 594 408 594 c 2
 276 594 l 1
 276 364 l 1
 365 364 l 2
 465 364 474 371 474 449 c 1
 521 449 l 1
 521 218 l 1
 474 218 l 1
 474 301 465 310 365 310 c 2
 276 310 l 1
 276 61 l 1
 394 61 l 2
 525 61 553 87 584 197 c 1
 632 197 l 1
 608 0 l 1x69c0
456 698 m 1
 391 698 l 1x6ac0
 234 799 l 1
 234 831 l 1
 355 831 l 1x69c0
 456 698 l 1
EndSplineSet
Substitution2: "'c2sc' Capitals to Small Capitals in Latin lookup 5 subtable" Egrave.c2sc
EndChar

StartChar: Eacute
Encoding: 201 201 72
Width: 660
GlyphClass: 2
Flags: MW
HStem: 0 43<35 69 35 608 35 69> 0 61<276 394 394 459.5> 310 54<276 365 276 365> 476 181<552 597 35 603 552 552> 594 63<276 408 276 276> 613 44<35 76> 698 133<247 469 247 469> 799 32<348 469>
VStem: 128 148<126 310 364 523 523 560.5> 474 47<218 259.5 410 449>
AnchorPoint: "Anchor-5" 511 0 basechar 0
AnchorPoint: "Anchor-4" 352 0 basechar 0
AnchorPoint: "Anchor-2" 352 0 basechar 0
AnchorPoint: "Anchor-1" 352 830 basechar 0
LayerCount: 2
Fore
SplineSet
608 0 m 1x69c0
 35 0 l 1x6ac0
 35 43 l 1
 103 43 128 52 128 126 c 2
 128 523 l 2
 128 598 117 613 35 613 c 1xa5c0
 35 657 l 1
 597 657 l 1x69c0
 603 476 l 1
 552 476 l 1x71c0
 537 566 519 594 408 594 c 2
 276 594 l 1
 276 364 l 1
 365 364 l 2
 465 364 474 371 474 449 c 1
 521 449 l 1
 521 218 l 1
 474 218 l 1
 474 301 465 310 365 310 c 2
 276 310 l 1
 276 61 l 1
 394 61 l 2
 525 61 553 87 584 197 c 1
 632 197 l 1
 608 0 l 1x69c0
312 698 m 1
 247 698 l 1x6ac0
 348 831 l 1
 469 831 l 1
 469 799 l 1x69c0
 312 698 l 1
EndSplineSet
Substitution2: "'c2sc' Capitals to Small Capitals in Latin lookup 5 subtable" Eacute.c2sc
EndChar

StartChar: Ecircumflex
Encoding: 202 202 73
Width: 660
GlyphClass: 2
Flags: MW
HStem: 0 43<35 69 35 608 35 69> 0 61<276 394 394 459.5> 310 54<276 365 276 365> 476 181<552 597 35 603 552 552> 594 63<276 408 276 276> 613 44<35 76> 698 139<187 398 187 398 305 456 305 518> 766 71<352 352>
VStem: 128 148<126 310 364 523 523 560.5> 474 47<218 259.5 410 449>
AnchorPoint: "Anchor-5" 511 0 basechar 0
AnchorPoint: "Anchor-4" 352 0 basechar 0
AnchorPoint: "Anchor-2" 352 0 basechar 0
AnchorPoint: "Anchor-1" 352 836 basechar 0
LayerCount: 2
Fore
SplineSet
608 0 m 1x68c0
 35 0 l 1x6ac0
 35 43 l 1
 103 43 128 52 128 126 c 2
 128 523 l 2
 128 598 117 613 35 613 c 1xa4c0
 35 657 l 1
 597 657 l 1x68c0
 603 476 l 1
 552 476 l 1x70c0
 537 566 519 594 408 594 c 2
 276 594 l 1
 276 364 l 1
 365 364 l 2
 465 364 474 371 474 449 c 1
 521 449 l 1
 521 218 l 1
 474 218 l 1
 474 301 465 310 365 310 c 2
 276 310 l 1
 276 61 l 1
 394 61 l 2
 525 61 553 87 584 197 c 1
 632 197 l 1
 608 0 l 1x68c0
250 698 m 1
 187 698 l 1
 305 837 l 1
 398 837 l 1
 518 698 l 1
 456 698 l 1x6ac0
 352 766 l 1x69c0
 250 698 l 1
EndSplineSet
Substitution2: "'c2sc' Capitals to Small Capitals in Latin lookup 5 subtable" Ecircumflex.c2sc
EndChar

StartChar: uni1EC0
Encoding: 7872 7872 74
Width: 660
GlyphClass: 2
Flags: MW
HStem: 0 43<35 69 35 608 35 69> 0 61<276 394 394 459.5> 310 54<276 365 276 365> 476 181<552 597 35 603 552 552> 594 63<276 408 276 276> 613 44<35 76> 693 134<187 397 187 397 306 456 306 518> 762 65<352 352> 763 123<417 611 417 552> 854 32<417 510>
VStem: 128 148<126 310 364 523 523 560.5> 474 47<218 259.5 410 449>
AnchorPoint: "Anchor-5" 511 0 basechar 0
AnchorPoint: "Anchor-4" 352 0 basechar 0
AnchorPoint: "Anchor-2" 352 0 basechar 0
AnchorPoint: "Anchor-0" 352 657 basechar 0
LayerCount: 2
Fore
SplineSet
608 0 m 1x6830
 35 0 l 1x6a30
 35 43 l 1
 103 43 128 52 128 126 c 2
 128 523 l 2
 128 598 117 613 35 613 c 1xa430
 35 657 l 1
 597 657 l 1x6830
 603 476 l 1
 552 476 l 1x7030
 537 566 519 594 408 594 c 2
 276 594 l 1
 276 364 l 1
 365 364 l 2
 465 364 474 371 474 449 c 1
 521 449 l 1
 521 218 l 1
 474 218 l 1
 474 301 465 310 365 310 c 2
 276 310 l 1
 276 61 l 1
 394 61 l 2
 525 61 553 87 584 197 c 1
 632 197 l 1
 608 0 l 1x6830
250 693 m 1
 187 693 l 1
 306 827 l 1
 397 827 l 1
 518 693 l 1
 456 693 l 1x6a30
 352 762 l 1x6930
 250 693 l 1
611 763 m 1x68b0
 552 763 l 1x68b0
 417 854 l 1
 417 886 l 1
 510 886 l 1x6870
 611 763 l 1x68b0
EndSplineSet
Substitution2: "'c2sc' Capitals to Small Capitals in Latin lookup 5 subtable" uni1EC0.c2sc
EndChar

StartChar: uni1EBE
Encoding: 7870 7870 75
Width: 660
GlyphClass: 2
Flags: MW
HStem: 0 43<35 69 35 608 35 69> 0 61<276 394 394 459.5> 310 54<276 365 276 365> 476 181<552 597 35 603 552 552> 594 63<276 408 276 276> 613 44<35 76> 693 134<187 397 187 397 306 456 306 518> 762 65<352 352> 763 64 854 32<566 659>
VStem: 128 148<126 310 364 523 523 560.5> 474 47<218 259.5 410 449>
AnchorPoint: "Anchor-5" 511 0 basechar 0
AnchorPoint: "Anchor-4" 352 0 basechar 0
AnchorPoint: "Anchor-2" 352 0 basechar 0
AnchorPoint: "Anchor-0" 352 657 basechar 0
LayerCount: 2
Fore
SplineSet
608 0 m 1x6830
 35 0 l 1x6a30
 35 43 l 1
 103 43 128 52 128 126 c 2
 128 523 l 2
 128 598 117 613 35 613 c 1xa430
 35 657 l 1
 597 657 l 1x6830
 603 476 l 1
 552 476 l 1x7030
 537 566 519 594 408 594 c 2
 276 594 l 1
 276 364 l 1
 365 364 l 2
 465 364 474 371 474 449 c 1
 521 449 l 1
 521 218 l 1
 474 218 l 1
 474 301 465 310 365 310 c 2
 276 310 l 1
 276 61 l 1
 394 61 l 2
 525 61 553 87 584 197 c 1
 632 197 l 1
 608 0 l 1x6830
250 693 m 1
 187 693 l 1
 306 827 l 1
 397 827 l 1
 518 693 l 1
 456 693 l 1x6a30
 352 762 l 1x6930
 250 693 l 1
524 763 m 1x68b0
 465 763 l 1x68b0
 566 886 l 1
 659 886 l 1
 659 854 l 1x6870
 524 763 l 1x68b0
EndSplineSet
Substitution2: "'c2sc' Capitals to Small Capitals in Latin lookup 5 subtable" uni1EBE.c2sc
EndChar

StartChar: uni1EC4
Encoding: 7876 7876 76
Width: 660
GlyphClass: 2
Flags: MW
HStem: 0 43<35 69 35 608 35 69> 0 61<276 394 394 459.5> 310 54<276 365 276 365> 476 181<552 597 35 603 552 552> 594 63<276 408 276 276> 613 44<35 76> 693 134<187 397 187 397 306 456 306 518> 762 65<352 352> 844 71<414 447 414 449.5> 872 71<270.5 304.5>
VStem: 128 148<126 310 364 523 523 560.5> 474 47<218 259.5 410 449>
AnchorPoint: "Anchor-5" 511 0 basechar 0
AnchorPoint: "Anchor-4" 352 0 basechar 0
AnchorPoint: "Anchor-2" 352 0 basechar 0
AnchorPoint: "Anchor-0" 352 657 basechar 0
LayerCount: 2
Fore
SplineSet
608 0 m 1x6830
 35 0 l 1x6870
 35 43 l 1
 103 43 128 52 128 126 c 2
 128 523 l 2
 128 598 117 613 35 613 c 1xa430
 35 657 l 1
 597 657 l 1x6830
 603 476 l 1
 552 476 l 1x7030
 537 566 519 594 408 594 c 2
 276 594 l 1
 276 364 l 1
 365 364 l 2
 465 364 474 371 474 449 c 1
 521 449 l 1
 521 218 l 1
 474 218 l 1
 474 301 465 310 365 310 c 2
 276 310 l 1
 276 61 l 1
 394 61 l 2
 525 61 553 87 584 197 c 1
 632 197 l 1
 608 0 l 1x6830
231 837 m 1
 192 837 l 1
 203 901 241 943 292 943 c 0x6a70
 333 943 394 915 434 915 c 0
 460 915 477 928 484 947 c 1
 522 947 l 1
 508 874 474 844 425 844 c 0x68b0
 378 844 324 872 285 872 c 0
 256 872 238 857 231 837 c 1
250 693 m 1
 187 693 l 1
 306 827 l 1
 397 827 l 1
 518 693 l 1
 456 693 l 1x6a30
 352 762 l 1x6930
 250 693 l 1
EndSplineSet
Substitution2: "'c2sc' Capitals to Small Capitals in Latin lookup 5 subtable" uni1EC4.c2sc
EndChar

StartChar: uni1EC2
Encoding: 7874 7874 77
Width: 660
GlyphClass: 2
Flags: MW
HStem: 0 43<35 69 35 608 35 69> 0 61<276 394 394 459.5> 310 54<276 365 276 365> 476 181<552 597 35 603 552 552> 594 63<276 408 276 276> 613 44<35 76> 693 134<187 397 187 397 306 456 306 518> 762 65<352 352> 763 50<466 524 466 466> 793 20G<466 466> 921 38<480 508>
VStem: 128 148<126 310 364 523 523 560.5> 466 58<763 791 763 813 763 813> 474 47<218 259.5 410 449> 526 82<854.5 896>
AnchorPoint: "Anchor-5" 511 0 basechar 0
AnchorPoint: "Anchor-4" 352 0 basechar 0
AnchorPoint: "Anchor-2" 352 0 basechar 0
AnchorPoint: "Anchor-0" 352 657 basechar 0
LayerCount: 2
Fore
SplineSet
608 0 m 1x68b4
 35 0 l 1x6a34
 35 43 l 1
 103 43 128 52 128 126 c 2
 128 523 l 2
 128 598 117 613 35 613 c 1xa4b4
 35 657 l 1
 597 657 l 1x68b4
 603 476 l 1
 552 476 l 1x70b4
 537 566 519 594 408 594 c 2
 276 594 l 1
 276 364 l 1
 365 364 l 2
 465 364 474 371 474 449 c 1
 521 449 l 1
 521 218 l 1
 474 218 l 1
 474 301 465 310 365 310 c 2
 276 310 l 1
 276 61 l 1
 394 61 l 2
 525 61 553 87 584 197 c 1
 632 197 l 1
 608 0 l 1x68b4
250 693 m 1
 187 693 l 1
 306 827 l 1
 397 827 l 1
 518 693 l 1
 456 693 l 1x6a34
 352 762 l 1x6934
 250 693 l 1
524 763 m 1x68b8
 466 763 l 1
 466 813 l 1x68b8
 509 814 526 831 526 878 c 0
 526 914 516 921 500 921 c 0
 460 921 474 877 439 877 c 0
 417 877 406 891 406 907 c 0
 406 942 456 959 504 959 c 0
 571 959 608 924 608 876 c 0x6872
 608 817 554 796 524 791 c 1x6878
 524 763 l 1x68b8
EndSplineSet
Substitution2: "'c2sc' Capitals to Small Capitals in Latin lookup 5 subtable" uni1EC2.c2sc
EndChar

StartChar: uni1EC6
Encoding: 7878 7878 78
Width: 660
GlyphClass: 2
Flags: MW
HStem: -220 156<327 378.5> 0 43<35 69 35 608 35 69> 0 61<276 394 394 459.5> 310 54<276 365 276 365> 476 181<552 597 35 603 552 552> 594 63<276 408 276 276> 613 44<35 76> 698 139<187 398 187 398 305 456 305 518> 766 71<352 352>
VStem: 128 148<126 310 364 523 523 560.5> 271 162<-165 -118.5> 474 47<218 259.5 410 449>
AnchorPoint: "Anchor-5" 511 0 basechar 0
AnchorPoint: "Anchor-4" 352 0 basechar 0
AnchorPoint: "Anchor-3" 352 -220 basechar 0
AnchorPoint: "Anchor-1" 352 836 basechar 0
LayerCount: 2
Fore
SplineSet
608 0 m 1xb550
 35 0 l 1xb550
 35 43 l 1
 103 43 128 52 128 126 c 2
 128 523 l 2
 128 598 117 613 35 613 c 1xd350
 35 657 l 1
 597 657 l 1xb550
 603 476 l 1
 552 476 l 1xb950
 537 566 519 594 408 594 c 2
 276 594 l 1
 276 364 l 1
 365 364 l 2
 465 364 474 371 474 449 c 1
 521 449 l 1
 521 218 l 1
 474 218 l 1
 474 301 465 310 365 310 c 2
 276 310 l 1
 276 61 l 1
 394 61 l 2
 525 61 553 87 584 197 c 1
 632 197 l 1
 608 0 l 1xb550
250 698 m 1
 187 698 l 1
 305 837 l 1
 398 837 l 1
 518 698 l 1
 456 698 l 1xb530
 352 766 l 1xb4d0
 250 698 l 1
352 -220 m 0
 302 -220 271 -189 271 -142 c 0
 271 -95 301 -64 352 -64 c 0
 405 -64 433 -95 433 -141 c 0
 433 -189 405 -220 352 -220 c 0
EndSplineSet
Substitution2: "'c2sc' Capitals to Small Capitals in Latin lookup 5 subtable" uni1EC6.c2sc
EndChar

StartChar: Ecaron
Encoding: 282 282 79
Width: 660
GlyphClass: 2
Flags: MW
HStem: 0 43<35 69 35 608 35 69> 0 61<276 394 394 459.5> 310 54<276 365 276 365> 476 181<552 597 35 603 552 552> 594 63<276 408 276 276> 613 44<35 76> 698 139<186 399 186 306>
VStem: 128 148<126 310 364 523 523 560.5> 474 47<218 259.5 410 449>
AnchorPoint: "Anchor-5" 511 0 basechar 0
AnchorPoint: "Anchor-4" 352 0 basechar 0
AnchorPoint: "Anchor-2" 352 0 basechar 0
AnchorPoint: "Anchor-1" 352 837 basechar 0
LayerCount: 2
Fore
SplineSet
608 0 m 1x6980
 35 0 l 1x6b80
 35 43 l 1
 103 43 128 52 128 126 c 2
 128 523 l 2
 128 598 117 613 35 613 c 1xa580
 35 657 l 1
 597 657 l 1x6980
 603 476 l 1
 552 476 l 1x7180
 537 566 519 594 408 594 c 2
 276 594 l 1
 276 364 l 1
 365 364 l 2
 465 364 474 371 474 449 c 1
 521 449 l 1
 521 218 l 1
 474 218 l 1
 474 301 465 310 365 310 c 2
 276 310 l 1
 276 61 l 1
 394 61 l 2
 525 61 553 87 584 197 c 1
 632 197 l 1
 608 0 l 1x6980
399 698 m 1
 306 698 l 1
 186 837 l 1
 248 837 l 1
 352 769 l 1
 454 837 l 1
 517 837 l 1
 399 698 l 1
EndSplineSet
Substitution2: "'c2sc' Capitals to Small Capitals in Latin lookup 5 subtable" Ecaron.c2sc
EndChar

StartChar: uni1EBC
Encoding: 7868 7868 80
Width: 660
GlyphClass: 2
Flags: MW
HStem: 0 43<35 69 35 608 35 69> 0 61<276 394 394 459.5> 310 54<276 365 276 365> 476 181<552 597 35 603 552 552> 594 63<276 408 276 276> 613 44<35 76> 706 78<411.5 448.5 411.5 451.5> 735 78<267 306>
VStem: 128 148<126 310 364 523 523 560.5> 474 47<218 259.5 410 449>
AnchorPoint: "Anchor-5" 511 0 basechar 0
AnchorPoint: "Anchor-4" 352 0 basechar 0
AnchorPoint: "Anchor-2" 352 0 basechar 0
AnchorPoint: "Anchor-1" 352 813 basechar 0
LayerCount: 2
Fore
SplineSet
608 0 m 1x69c0
 35 0 l 1x69c0
 35 43 l 1
 103 43 128 52 128 126 c 2
 128 523 l 2
 128 598 117 613 35 613 c 1xa5c0
 35 657 l 1
 597 657 l 1x69c0
 603 476 l 1
 552 476 l 1x71c0
 537 566 519 594 408 594 c 2
 276 594 l 1
 276 364 l 1
 365 364 l 2
 465 364 474 371 474 449 c 1
 521 449 l 1
 521 218 l 1
 474 218 l 1
 474 301 465 310 365 310 c 2
 276 310 l 1
 276 61 l 1
 394 61 l 2
 525 61 553 87 584 197 c 1
 632 197 l 1
 608 0 l 1x69c0
229 701 m 1
 190 701 l 1
 200 762 232 813 294 813 c 0x69c0
 340 813 390 784 433 784 c 0
 464 784 479 799 486 816 c 1
 524 816 l 1
 510 744 481 706 422 706 c 0x6ac0
 370 706 328 735 284 735 c 0
 250 735 236 718 229 701 c 1
EndSplineSet
Substitution2: "'c2sc' Capitals to Small Capitals in Latin lookup 5 subtable" uni1EBC.c2sc
EndChar

StartChar: Edieresis
Encoding: 203 203 81
Width: 660
GlyphClass: 2
Flags: MW
HStem: 0 43<35 69 35 608 35 69> 0 61<276 394 394 459.5> 310 54<276 365 276 365> 476 181<552 597 35 603 552 552> 594 63<276 408 276 276> 613 44<35 76> 700 145<218 264.5 439 485.5>
VStem: 128 148<126 310 364 523 523 560.5> 167 148<750.5 794.5> 388 148<750.5 794.5> 474 47<218 259.5 410 449>
AnchorPoint: "Anchor-5" 511 0 basechar 0
AnchorPoint: "Anchor-4" 352 0 basechar 0
AnchorPoint: "Anchor-2" 352 0 basechar 0
AnchorPoint: "Anchor-1" 352 845 basechar 0
LayerCount: 2
Fore
SplineSet
608 0 m 1x6920
 35 0 l 1x6ac0
 35 43 l 1
 103 43 128 52 128 126 c 2
 128 523 l 2
 128 598 117 613 35 613 c 1xa520
 35 657 l 1
 597 657 l 1x6920
 603 476 l 1
 552 476 l 1x7120
 537 566 519 594 408 594 c 2
 276 594 l 1
 276 364 l 1
 365 364 l 2
 465 364 474 371 474 449 c 1
 521 449 l 1
 521 218 l 1
 474 218 l 1
 474 301 465 310 365 310 c 2
 276 310 l 1
 276 61 l 1
 394 61 l 2
 525 61 553 87 584 197 c 1
 632 197 l 1
 608 0 l 1x6920
241 700 m 0
 195 700 167 728 167 772 c 0
 167 817 194 845 241 845 c 0
 288 845 315 817 315 773 c 0
 315 728 288 700 241 700 c 0
462 700 m 0
 416 700 388 728 388 772 c 0
 388 817 415 845 462 845 c 0
 509 845 536 817 536 773 c 0
 536 728 509 700 462 700 c 0
EndSplineSet
Substitution2: "'c2sc' Capitals to Small Capitals in Latin lookup 5 subtable" Edieresis.c2sc
EndChar

StartChar: Emacron
Encoding: 274 274 82
Width: 660
GlyphClass: 2
Flags: MW
HStem: 0 43<35 69 35 608 35 69> 0 61<276 394 394 459.5> 310 54<276 365 276 365> 476 181<552 597 35 603 552 552> 594 63<276 408 276 276> 613 44<35 76> 726 78<195 509 195 509>
VStem: 128 148<126 310 364 523 523 560.5> 195 81 474 47<218 259.5 410 449>
AnchorPoint: "Anchor-5" 511 0 basechar 0
AnchorPoint: "Anchor-4" 352 0 basechar 0
AnchorPoint: "Anchor-2" 352 0 basechar 0
AnchorPoint: "Anchor-1" 352 804 basechar 0
LayerCount: 2
Fore
SplineSet
608 0 m 1x6b40
 35 0 l 1x6ac0
 35 43 l 1
 103 43 128 52 128 126 c 2
 128 523 l 2
 128 598 117 613 35 613 c 1xa740
 35 657 l 1
 597 657 l 1x6b40
 603 476 l 1
 552 476 l 1x7340
 537 566 519 594 408 594 c 2
 276 594 l 1
 276 364 l 1
 365 364 l 2
 465 364 474 371 474 449 c 1
 521 449 l 1
 521 218 l 1
 474 218 l 1
 474 301 465 310 365 310 c 2
 276 310 l 1
 276 61 l 1
 394 61 l 2
 525 61 553 87 584 197 c 1
 632 197 l 1
 608 0 l 1x6b40
509 726 m 1
 195 726 l 1
 195 804 l 1
 509 804 l 1
 509 726 l 1
EndSplineSet
Substitution2: "'c2sc' Capitals to Small Capitals in Latin lookup 5 subtable" Emacron.c2sc
EndChar

StartChar: uni1E14
Encoding: 7700 7700 83
Width: 660
GlyphClass: 2
Flags: MW
HStem: 0 43<35 69 35 608 35 69> 0 61<276 394 394 459.5> 310 54<276 365 276 365> 476 181<552 597 35 603 552 552> 594 63<276 408 276 276> 613 44<35 76> 716 78<195 509 195 509> 828 133<235 457 235 392> 929 32<235 356>
VStem: 128 148<126 310 364 523 523 560.5> 195 81 474 47<218 259.5 410 449>
AnchorPoint: "Anchor-5" 511 0 basechar 0
AnchorPoint: "Anchor-4" 352 0 basechar 0
AnchorPoint: "Anchor-2" 352 0 basechar 0
AnchorPoint: "Anchor-1" 352 961 basechar 0
LayerCount: 2
Fore
SplineSet
608 0 m 1x6ad0
 35 0 l 1x6b30
 35 43 l 1
 103 43 128 52 128 126 c 2
 128 523 l 2
 128 598 117 613 35 613 c 1xa6d0
 35 657 l 1
 597 657 l 1x6ad0
 603 476 l 1
 552 476 l 1x72d0
 537 566 519 594 408 594 c 2
 276 594 l 1
 276 364 l 1
 365 364 l 2
 465 364 474 371 474 449 c 1
 521 449 l 1
 521 218 l 1
 474 218 l 1
 474 301 465 310 365 310 c 2
 276 310 l 1
 276 61 l 1
 394 61 l 2
 525 61 553 87 584 197 c 1
 632 197 l 1
 608 0 l 1x6ad0
509 716 m 1
 195 716 l 1
 195 794 l 1
 509 794 l 1
 509 716 l 1
457 828 m 1
 392 828 l 1x6b50
 235 929 l 1
 235 961 l 1
 356 961 l 1x6ad0
 457 828 l 1
EndSplineSet
Substitution2: "'c2sc' Capitals to Small Capitals in Latin lookup 5 subtable" uni1E14.c2sc
EndChar

StartChar: uni1E16
Encoding: 7702 7702 84
Width: 660
GlyphClass: 2
Flags: MW
HStem: 0 43<35 69 35 608 35 69> 0 61<276 394 394 459.5> 310 54<276 365 276 365> 476 181<552 597 35 603 552 552> 594 63<276 408 276 276> 613 44<35 76> 716 78<195 509 195 509> 828 133<247 469 247 469> 929 32<348 469>
VStem: 128 148<126 310 364 523 523 560.5> 195 81 474 47<218 259.5 410 449>
AnchorPoint: "Anchor-5" 511 0 basechar 0
AnchorPoint: "Anchor-4" 352 0 basechar 0
AnchorPoint: "Anchor-2" 352 0 basechar 0
AnchorPoint: "Anchor-1" 352 960 basechar 0
LayerCount: 2
Fore
SplineSet
608 0 m 1x6ad0
 35 0 l 1x6b30
 35 43 l 1
 103 43 128 52 128 126 c 2
 128 523 l 2
 128 598 117 613 35 613 c 1xa6d0
 35 657 l 1
 597 657 l 1x6ad0
 603 476 l 1
 552 476 l 1x72d0
 537 566 519 594 408 594 c 2
 276 594 l 1
 276 364 l 1
 365 364 l 2
 465 364 474 371 474 449 c 1
 521 449 l 1
 521 218 l 1
 474 218 l 1
 474 301 465 310 365 310 c 2
 276 310 l 1
 276 61 l 1
 394 61 l 2
 525 61 553 87 584 197 c 1
 632 197 l 1
 608 0 l 1x6ad0
509 716 m 1
 195 716 l 1
 195 794 l 1
 509 794 l 1
 509 716 l 1
312 828 m 1
 247 828 l 1x6b50
 348 961 l 1
 469 961 l 1
 469 929 l 1x6ad0
 312 828 l 1
EndSplineSet
Substitution2: "'c2sc' Capitals to Small Capitals in Latin lookup 5 subtable" uni1E16.c2sc
EndChar

StartChar: Ebreve
Encoding: 276 276 85
Width: 660
GlyphClass: 2
Flags: MW
HStem: 0 43<35 69 35 608 35 69> 0 61<276 394 394 459.5> 310 54<276 365 276 365> 476 181<552 597 35 603 552 552> 594 63<276 408 276 276> 613 44<35 76> 700 79<324 378 324 398>
VStem: 128 148<126 310 364 523 523 560.5> 193 42<850 850> 474 47<218 259.5 410 449>
AnchorPoint: "Anchor-5" 511 0 basechar 0
AnchorPoint: "Anchor-4" 352 0 basechar 0
AnchorPoint: "Anchor-2" 352 0 basechar 0
AnchorPoint: "Anchor-1" 352 850 basechar 0
LayerCount: 2
Fore
SplineSet
608 0 m 1x6b40
 35 0 l 1x6ac0
 35 43 l 1
 103 43 128 52 128 126 c 2
 128 523 l 2
 128 598 117 613 35 613 c 1xa740
 35 657 l 1
 597 657 l 1x6b40
 603 476 l 1
 552 476 l 1x7340
 537 566 519 594 408 594 c 2
 276 594 l 1
 276 364 l 1
 365 364 l 2
 465 364 474 371 474 449 c 1
 521 449 l 1
 521 218 l 1
 474 218 l 1
 474 301 465 310 365 310 c 2
 276 310 l 1
 276 61 l 1
 394 61 l 2
 525 61 553 87 584 197 c 1
 632 197 l 1
 608 0 l 1x6b40
352 700 m 0
 259 700 197 744 193 850 c 1
 235 850 l 1
 246 803 297 779 351 779 c 0
 405 779 455 803 468 850 c 1
 510 850 l 1
 499 744 444 700 352 700 c 0
EndSplineSet
Substitution2: "'c2sc' Capitals to Small Capitals in Latin lookup 5 subtable" Ebreve.c2sc
EndChar

StartChar: Edotaccent
Encoding: 278 278 86
Width: 660
GlyphClass: 2
Flags: MW
HStem: 0 43<35 69 35 608 35 69> 0 61<276 394 394 459.5> 310 54<276 365 276 365> 476 181<552 597 35 603 552 552> 594 63<276 408 276 276> 613 44<35 76> 695 153<327.5 378.5>
VStem: 128 148<126 310 364 523 523 560.5> 272 161<748.5 795> 474 47<218 259.5 410 449>
AnchorPoint: "Anchor-5" 511 0 basechar 0
AnchorPoint: "Anchor-4" 352 0 basechar 0
AnchorPoint: "Anchor-2" 352 0 basechar 0
AnchorPoint: "Anchor-1" 353 848 basechar 0
LayerCount: 2
Fore
SplineSet
608 0 m 1x6940
 35 0 l 1x6ac0
 35 43 l 1
 103 43 128 52 128 126 c 2
 128 523 l 2
 128 598 117 613 35 613 c 1xa540
 35 657 l 1
 597 657 l 1x6940
 603 476 l 1
 552 476 l 1x7140
 537 566 519 594 408 594 c 2
 276 594 l 1
 276 364 l 1
 365 364 l 2
 465 364 474 371 474 449 c 1
 521 449 l 1
 521 218 l 1
 474 218 l 1
 474 301 465 310 365 310 c 2
 276 310 l 1
 276 61 l 1
 394 61 l 2
 525 61 553 87 584 197 c 1
 632 197 l 1
 608 0 l 1x6940
353 695 m 0
 302 695 272 725 272 772 c 0
 272 818 302 848 353 848 c 0
 405 848 433 818 433 772 c 0
 433 725 404 695 353 695 c 0
EndSplineSet
Substitution2: "'c2sc' Capitals to Small Capitals in Latin lookup 5 subtable" Edotaccent.c2sc
EndChar

StartChar: uni1EBA
Encoding: 7866 7866 87
Width: 660
GlyphClass: 2
Flags: MW
HStem: 0 43<35 69 35 608 35 69> 0 61<276 394 394 459.5> 310 54<276 365 276 365> 476 181<552 597 35 603 552 552> 594 63<276 408 276 276> 613 44<35 76> 698 53<316 376 316 316> 865 40<330.5 359.5>
VStem: 128 148<126 310 364 523 523 560.5> 316 60<698 727 698 751 698 751> 378 87<794.5 838> 474 47<218 259.5 410 449>
AnchorPoint: "Anchor-5" 511 0 basechar 0
AnchorPoint: "Anchor-4" 352 0 basechar 0
AnchorPoint: "Anchor-2" 352 0 basechar 0
AnchorPoint: "Anchor-0" 352 657 basechar 0
LayerCount: 2
Fore
SplineSet
608 0 m 1x69d0
 35 0 l 1x6bd0
 35 43 l 1
 103 43 128 52 128 126 c 2
 128 523 l 2
 128 598 117 613 35 613 c 1xa5d0
 35 657 l 1
 597 657 l 1x69d0
 603 476 l 1
 552 476 l 1x71d0
 537 566 519 594 408 594 c 2
 276 594 l 1
 276 364 l 1
 365 364 l 2
 465 364 474 371 474 449 c 1
 521 449 l 1
 521 218 l 1
 474 218 l 1
 474 301 465 310 365 310 c 2
 276 310 l 1
 276 61 l 1
 394 61 l 2
 525 61 553 87 584 197 c 1
 632 197 l 1
 608 0 l 1x69d0
376 698 m 1
 316 698 l 1
 316 751 l 1x6bd0
 361 752 378 770 378 819 c 0
 378 857 368 865 351 865 c 0
 310 865 324 818 286 818 c 0
 264 818 252 833 252 850 c 0
 252 887 304 905 355 905 c 0
 427 905 465 868 465 817 c 0x6bb0
 465 756 408 733 376 727 c 1
 376 698 l 1
EndSplineSet
Substitution2: "'c2sc' Capitals to Small Capitals in Latin lookup 5 subtable" uni1EBA.c2sc
EndChar

StartChar: uni1E18
Encoding: 7704 7704 88
Width: 660
GlyphClass: 2
Flags: MW
HStem: -203 153<199 399 199 399 306 447 306 505> -117 67<353 353> 0 43<35 69 35 608 35 69> 0 61<276 394 394 459.5> 310 54<276 365 276 365> 476 181<552 597 35 603 552 552> 594 63<276 408 276 276> 613 44<35 76>
VStem: 128 148<126 310 364 523 523 560.5> 474 47<218 259.5 410 449>
AnchorPoint: "Anchor-5" 511 0 basechar 0
AnchorPoint: "Anchor-4" 352 0 basechar 0
AnchorPoint: "Anchor-3" 352 -203 basechar 0
AnchorPoint: "Anchor-0" 352 657 basechar 0
LayerCount: 2
Fore
SplineSet
608 0 m 1x1ac0
 35 0 l 1x9ac0
 35 43 l 1
 103 43 128 52 128 126 c 2
 128 523 l 2
 128 598 117 613 35 613 c 1x29c0
 35 657 l 1
 597 657 l 1x1ac0
 603 476 l 1
 552 476 l 1x1cc0
 537 566 519 594 408 594 c 2
 276 594 l 1
 276 364 l 1
 365 364 l 2
 465 364 474 371 474 449 c 1
 521 449 l 1
 521 218 l 1
 474 218 l 1
 474 301 465 310 365 310 c 2
 276 310 l 1
 276 61 l 1
 394 61 l 2
 525 61 553 87 584 197 c 1
 632 197 l 1
 608 0 l 1x1ac0
258 -203 m 1
 199 -203 l 1
 306 -50 l 1
 399 -50 l 1
 505 -203 l 1
 447 -203 l 1x9ac0
 353 -117 l 1x5ac0
 258 -203 l 1
EndSplineSet
Substitution2: "'c2sc' Capitals to Small Capitals in Latin lookup 5 subtable" uni1E18.c2sc
EndChar

StartChar: uni1E1A
Encoding: 7706 7706 89
Width: 660
GlyphClass: 2
Flags: MW
HStem: -166 78<396.5 430.5 396.5 435> -127 78<261 295> 0 43<35 69 35 608 35 69> 0 61<276 394 394 459.5> 310 54<276 365 276 365> 476 181<552 597 35 603 552 552> 594 63<276 408 276 276> 613 44<35 76>
VStem: 128 148<126 310 364 523 523 560.5> 474 47<218 259.5 410 449>
AnchorPoint: "Anchor-5" 511 0 basechar 0
AnchorPoint: "Anchor-4" 352 0 basechar 0
AnchorPoint: "Anchor-3" 352 -166 basechar 0
AnchorPoint: "Anchor-0" 352 657 basechar 0
LayerCount: 2
Fore
SplineSet
608 0 m 1x1ac0
 35 0 l 1x5ac0
 35 43 l 1
 103 43 128 52 128 126 c 2
 128 523 l 2
 128 598 117 613 35 613 c 1x29c0
 35 657 l 1
 597 657 l 1x1ac0
 603 476 l 1
 552 476 l 1x1cc0
 537 566 519 594 408 594 c 2
 276 594 l 1
 276 364 l 1
 365 364 l 2
 465 364 474 371 474 449 c 1
 521 449 l 1
 521 218 l 1
 474 218 l 1
 474 301 465 310 365 310 c 2
 276 310 l 1
 276 61 l 1
 394 61 l 2
 525 61 553 87 584 197 c 1
 632 197 l 1
 608 0 l 1x1ac0
221 -169 m 1
 182 -169 l 1
 193 -102 232 -49 288 -49 c 0x5ac0
 350 -49 374 -88 419 -88 c 0
 442 -88 465 -75 474 -45 c 1
 512 -45 l 1
 497 -122 466 -166 404 -166 c 0x9ac0
 345 -166 317 -127 273 -127 c 0
 249 -127 229 -142 221 -169 c 1
EndSplineSet
Substitution2: "'c2sc' Capitals to Small Capitals in Latin lookup 5 subtable" uni1E1A.c2sc
EndChar

StartChar: uni1EB8
Encoding: 7864 7864 90
Width: 660
GlyphClass: 2
Flags: MW
HStem: -220 156<327 378.5> 0 43<35 69 35 608 35 69> 0 61<276 394 394 459.5> 310 54<276 365 276 365> 476 181<552 597 35 603 552 552> 594 63<276 408 276 276> 613 44<35 76>
VStem: 128 148<126 310 364 523 523 560.5> 271 162<-165 -118.5> 474 47<218 259.5 410 449>
AnchorPoint: "Anchor-5" 511 0 basechar 0
AnchorPoint: "Anchor-4" 352 0 basechar 0
AnchorPoint: "Anchor-3" 352 -220 basechar 0
AnchorPoint: "Anchor-0" 352 657 basechar 0
LayerCount: 2
Fore
SplineSet
608 0 m 1xb540
 35 0 l 1xb4c0
 35 43 l 1
 103 43 128 52 128 126 c 2
 128 523 l 2
 128 598 117 613 35 613 c 1xd340
 35 657 l 1
 597 657 l 1xb540
 603 476 l 1
 552 476 l 1xb940
 537 566 519 594 408 594 c 2
 276 594 l 1
 276 364 l 1
 365 364 l 2
 465 364 474 371 474 449 c 1
 521 449 l 1
 521 218 l 1
 474 218 l 1
 474 301 465 310 365 310 c 2
 276 310 l 1
 276 61 l 1
 394 61 l 2
 525 61 553 87 584 197 c 1
 632 197 l 1
 608 0 l 1xb540
352 -220 m 0
 302 -220 271 -189 271 -142 c 0
 271 -95 301 -64 352 -64 c 0
 405 -64 433 -95 433 -141 c 0
 433 -189 405 -220 352 -220 c 0
EndSplineSet
Substitution2: "'c2sc' Capitals to Small Capitals in Latin lookup 5 subtable" uni1EB8.c2sc
EndChar

StartChar: uni0228
Encoding: 552 552 91
Width: 660
GlyphClass: 2
Flags: MW
HStem: -221 48<317.5 343 316.5 372> -97 46<329 389.5> 0 43<35 69 35 310 35 69> 0 61<276 310 350 394 394 459.5 350 350> 310 54<276 365 276 365> 476 181<552 597 35 603 552 552> 594 63<276 408 276 276> 613 44<35 76>
VStem: 128 148<126 310 364 523 523 560.5> 379 78<-147 -121.5> 474 47<218 259.5 410 449>
AnchorPoint: "Anchor-5" 511 0 basechar 0
AnchorPoint: "Anchor-4" 352 0 basechar 0
AnchorPoint: "Anchor-3" 352 -242 basechar 0
AnchorPoint: "Anchor-0" 352 657 basechar 0
LayerCount: 2
Fore
SplineSet
608 0 m 1xdaa0
 350 0 l 1
 337 -53 l 1
 337 -53 349 -51 361 -51 c 0
 418 -51 457 -80 457 -130 c 0
 457 -193 406 -221 338 -221 c 0
 297 -221 270 -203 246 -184 c 1
 264 -152 l 1
 282 -164 304 -173 329 -173 c 0
 357 -173 379 -162 379 -132 c 0
 379 -111 364 -97 337 -97 c 0
 321 -97 304 -100 304 -100 c 1
 288 -84 l 1
 310 0 l 1
 35 0 l 1xdae0
 35 43 l 1
 103 43 128 52 128 126 c 2
 128 523 l 2
 128 598 117 613 35 613 c 1xe9a0
 35 657 l 1
 597 657 l 1xdaa0
 603 476 l 1
 552 476 l 1xdca0
 537 566 519 594 408 594 c 2
 276 594 l 1
 276 364 l 1
 365 364 l 2
 465 364 474 371 474 449 c 1
 521 449 l 1
 521 218 l 1
 474 218 l 1
 474 301 465 310 365 310 c 2
 276 310 l 1
 276 61 l 1
 394 61 l 2
 525 61 553 87 584 197 c 1
 632 197 l 1
 608 0 l 1xdaa0
EndSplineSet
Substitution2: "'c2sc' Capitals to Small Capitals in Latin lookup 5 subtable" uni0228.c2sc
EndChar

StartChar: uni1E1C
Encoding: 7708 7708 92
Width: 660
GlyphClass: 2
Flags: MW
HStem: -221 48<317.5 343 316.5 372> -97 46<329 389.5> 0 43<35 69 35 310 35 69> 0 61<276 310 350 394 394 459.5 350 350> 310 54<276 365 276 365> 476 181<552 597 35 603 552 552> 594 63<276 408 276 276> 613 44<35 76> 700 79<324 378 324 398>
VStem: 128 148<126 310 364 523 523 560.5> 193 42<850 850> 379 78<-147 -121.5> 474 47<218 259.5 410 449>
AnchorPoint: "Anchor-5" 511 0 basechar 0
AnchorPoint: "Anchor-4" 352 0 basechar 0
AnchorPoint: "Anchor-3" 352 -242 basechar 0
AnchorPoint: "Anchor-1" 352 850 basechar 0
LayerCount: 2
Fore
SplineSet
608 0 m 1xdac8
 350 0 l 1
 337 -53 l 1
 337 -53 349 -51 361 -51 c 0
 418 -51 457 -80 457 -130 c 0
 457 -193 406 -221 338 -221 c 0
 297 -221 270 -203 246 -184 c 1
 264 -152 l 1
 282 -164 304 -173 329 -173 c 0
 357 -173 379 -162 379 -132 c 0
 379 -111 364 -97 337 -97 c 0
 321 -97 304 -100 304 -100 c 1
 288 -84 l 1
 310 0 l 1
 35 0 l 1xdab8
 35 43 l 1
 103 43 128 52 128 126 c 2
 128 523 l 2
 128 598 117 613 35 613 c 1xe9c8
 35 657 l 1
 597 657 l 1xdac8
 603 476 l 1
 552 476 l 1xdcc8
 537 566 519 594 408 594 c 2
 276 594 l 1
 276 364 l 1
 365 364 l 2
 465 364 474 371 474 449 c 1
 521 449 l 1
 521 218 l 1
 474 218 l 1
 474 301 465 310 365 310 c 2
 276 310 l 1
 276 61 l 1
 394 61 l 2
 525 61 553 87 584 197 c 1
 632 197 l 1
 608 0 l 1xdac8
352 700 m 0
 259 700 197 744 193 850 c 1
 235 850 l 1
 246 803 297 779 351 779 c 0
 405 779 455 803 468 850 c 1
 510 850 l 1
 499 744 444 700 352 700 c 0
EndSplineSet
Substitution2: "'c2sc' Capitals to Small Capitals in Latin lookup 5 subtable" uni1E1C.c2sc
EndChar

StartChar: Eogonek
Encoding: 280 280 93
Width: 660
GlyphClass: 2
Flags: MW
HStem: -221 66<502.5 515.5> 0 43<35 69 35 472 35 69> 0 61<276 394 394 459.5> 310 54<276 365 276 365> 476 181<552 597 35 603 552 552> 594 63<276 408 276 276> 613 44<35 76>
VStem: 128 148<126 310 364 523 523 560.5> 372 96<-118.5 -97> 474 47<218 259.5 410 449>
AnchorPoint: "Anchor-5" 353 -250 basechar 0
AnchorPoint: "Anchor-4" 353 -250 basechar 0
AnchorPoint: "Anchor-3" 352 -250 basechar 0
AnchorPoint: "Anchor-0" 352 657 basechar 0
LayerCount: 2
Fore
SplineSet
486 -221 m 0xb580
 417 -221 372 -184 372 -134 c 0
 372 -60 433 -29 472 -4 c 1
 472 0 l 1
 35 0 l 1xb580
 35 43 l 1
 103 43 128 52 128 126 c 2
 128 523 l 2
 128 598 117 613 35 613 c 1xd340
 35 657 l 1
 597 657 l 1xb540
 603 476 l 1
 552 476 l 1xb940
 537 566 519 594 408 594 c 2
 276 594 l 1
 276 364 l 1
 365 364 l 2
 465 364 474 371 474 449 c 1
 521 449 l 1
 521 218 l 1
 474 218 l 1xb540
 474 301 465 310 365 310 c 2
 276 310 l 1
 276 61 l 1
 394 61 l 2
 525 61 553 87 584 197 c 1
 632 197 l 1
 608 0 l 1
 540 0 l 1
 505 -24 468 -45 468 -100 c 0
 468 -137 487 -155 518 -155 c 0
 556 -155 568 -148 598 -126 c 1
 621 -154 l 1
 582 -193 545 -221 486 -221 c 0xb580
EndSplineSet
Substitution2: "'c2sc' Capitals to Small Capitals in Latin lookup 5 subtable" Eogonek.c2sc
EndChar

StartChar: uni1E1E
Encoding: 7710 7710 94
Width: 618
GlyphClass: 2
Flags: MW
HStem: 0 43<35 72.5 340 380 35 72.5> 305 54<276 353 276 353> 473 184<552 597 35 604 552 552> 594 63<276 395 276 276> 613 44<35 73> 695 153<315.5 366.5>
VStem: 128 148<130 305 359 530 530 565.5> 260 161<748.5 795> 469 47<218 258.5 411.5 452>
AnchorPoint: "Anchor-5" 220 0 basechar 0
AnchorPoint: "Anchor-4" 204 0 basechar 0
AnchorPoint: "Anchor-2" 200 0 basechar 0
AnchorPoint: "Anchor-1" 341 848 basechar 0
LayerCount: 2
Fore
SplineSet
380 0 m 1xd280
 35 0 l 1
 35 43 l 1
 110 43 128 56 128 130 c 2
 128 530 l 2
 128 601 111 613 35 613 c 1xca80
 35 657 l 1
 597 657 l 1xd280
 604 473 l 1
 552 473 l 1xe280
 535 568 526 594 395 594 c 2
 276 594 l 1
 276 359 l 1
 353 359 l 2
 439 359 469 371 469 452 c 1
 516 452 l 1
 516 218 l 1
 469 218 l 1
 469 299 439 305 353 305 c 2
 276 305 l 1
 276 123 l 2
 276 55 300 43 380 43 c 1
 380 0 l 1xd280
341 695 m 0xd580
 290 695 260 725 260 772 c 0
 260 818 290 848 341 848 c 0
 393 848 421 818 421 772 c 0
 421 725 392 695 341 695 c 0xd580
EndSplineSet
Substitution2: "'c2sc' Capitals to Small Capitals in Latin lookup 5 subtable" uni1E1E.c2sc
EndChar

StartChar: Gcircumflex
Encoding: 284 284 95
Width: 739
GlyphClass: 2
Flags: MW
HStem: -11 60<315.5 408.5 315.5 434> 266 44<422 460 677 705> 612 20G<534.5 558.5> 615 54<318 432.5> 698 139<214 425 214 425 332 483 332 545> 766 71<379 379>
VStem: 45 157<246 433.5 246 444.5> 509 130<92 179 179 189 57 215> 581 44<428 669>
AnchorPoint: "Anchor-5" 368 0 basechar 0
AnchorPoint: "Anchor-4" 370 0 basechar 0
AnchorPoint: "Anchor-2" 368 0 basechar 0
AnchorPoint: "Anchor-1" 379 836 basechar 0
LayerCount: 2
Fore
SplineSet
379 -11 m 0xd280
 152 -11 45 112 45 327 c 0xd280
 45 562 189 669 381 669 c 0
 487 669 521 632 548 632 c 0xe280
 569 632 576 650 581 669 c 1
 625 669 l 1
 625 428 l 1
 576 428 l 1xd280
 550 560 485 615 380 615 c 0
 256 615 202 522 202 345 c 0
 202 147 252 49 379 49 c 0
 438 49 471 61 509 92 c 1
 509 179 l 2
 509 251 498 266 422 266 c 1
 422 310 l 1
 705 310 l 1
 705 266 l 1
 649 266 639 252 639 189 c 2
 639 57 l 1xd3
 566 15 489 -11 379 -11 c 0xd280
277 698 m 1xda80
 214 698 l 1
 332 837 l 1
 425 837 l 1
 545 698 l 1
 483 698 l 1xda80
 379 766 l 1xd680
 277 698 l 1xda80
EndSplineSet
Substitution2: "'c2sc' Capitals to Small Capitals in Latin lookup 5 subtable" Gcircumflex.c2sc
EndChar

StartChar: uni1E20
Encoding: 7712 7712 96
Width: 739
GlyphClass: 2
Flags: MW
HStem: -11 60<315.5 408.5 315.5 434> 266 44<422 460 677 705> 612 20G<534.5 558.5> 615 54<318 432.5> 726 78<222 536 222 536>
VStem: 45 157<246 433.5 246 444.5> 509 130<92 179 179 189 57 215> 581 44<428 669>
AnchorPoint: "Anchor-5" 368 0 basechar 0
AnchorPoint: "Anchor-4" 370 0 basechar 0
AnchorPoint: "Anchor-2" 368 0 basechar 0
AnchorPoint: "Anchor-1" 379 804 basechar 0
LayerCount: 2
Fore
SplineSet
379 -11 m 0xdd
 152 -11 45 112 45 327 c 0xdd
 45 562 189 669 381 669 c 0
 487 669 521 632 548 632 c 0xed
 569 632 576 650 581 669 c 1
 625 669 l 1
 625 428 l 1
 576 428 l 1xdd
 550 560 485 615 380 615 c 0
 256 615 202 522 202 345 c 0
 202 147 252 49 379 49 c 0
 438 49 471 61 509 92 c 1
 509 179 l 2
 509 251 498 266 422 266 c 1
 422 310 l 1
 705 310 l 1
 705 266 l 1
 649 266 639 252 639 189 c 2
 639 57 l 1xde
 566 15 489 -11 379 -11 c 0xdd
536 726 m 1
 222 726 l 1
 222 804 l 1
 536 804 l 1
 536 726 l 1
EndSplineSet
Substitution2: "'c2sc' Capitals to Small Capitals in Latin lookup 5 subtable" uni1E20.c2sc
EndChar

StartChar: Gbreve
Encoding: 286 286 97
Width: 739
GlyphClass: 2
Flags: MW
HStem: -11 60<315.5 408.5 315.5 434> 266 44<422 460 677 705> 612 20G<534.5 558.5> 615 54<318 432.5> 700 79<351 405 351 425>
VStem: 45 157<246 433.5 246 444.5> 220 42<850 850> 509 130<92 179 179 189 57 215> 581 44<428 669>
AnchorPoint: "Anchor-5" 368 0 basechar 0
AnchorPoint: "Anchor-4" 370 0 basechar 0
AnchorPoint: "Anchor-2" 368 0 basechar 0
AnchorPoint: "Anchor-1" 379 850 basechar 0
LayerCount: 2
Fore
SplineSet
379 -11 m 0xdc80
 152 -11 45 112 45 327 c 0xdc80
 45 562 189 669 381 669 c 0
 487 669 521 632 548 632 c 0xec80
 569 632 576 650 581 669 c 1
 625 669 l 1
 625 428 l 1
 576 428 l 1xdc80
 550 560 485 615 380 615 c 0
 256 615 202 522 202 345 c 0
 202 147 252 49 379 49 c 0
 438 49 471 61 509 92 c 1
 509 179 l 2
 509 251 498 266 422 266 c 1
 422 310 l 1
 705 310 l 1
 705 266 l 1
 649 266 639 252 639 189 c 2
 639 57 l 1xdd
 566 15 489 -11 379 -11 c 0xdc80
379 700 m 0xde80
 286 700 224 744 220 850 c 1
 262 850 l 1
 273 803 324 779 378 779 c 0
 432 779 482 803 495 850 c 1
 537 850 l 1
 526 744 471 700 379 700 c 0xde80
EndSplineSet
Substitution2: "'c2sc' Capitals to Small Capitals in Latin lookup 5 subtable" Gbreve.c2sc
EndChar

StartChar: Gdotaccent
Encoding: 288 288 98
Width: 739
GlyphClass: 2
Flags: MW
HStem: -11 60<315.5 408.5 315.5 434> 266 44<422 460 677 705> 612 20G<534.5 558.5> 615 54<318 432.5> 695 153<353.5 404.5>
VStem: 45 157<246 433.5 246 444.5> 298 161<748.5 795> 509 130<92 179 179 189 57 215> 581 44<428 669>
AnchorPoint: "Anchor-5" 368 0 basechar 0
AnchorPoint: "Anchor-4" 370 0 basechar 0
AnchorPoint: "Anchor-2" 368 0 basechar 0
AnchorPoint: "Anchor-1" 379 848 basechar 0
LayerCount: 2
Fore
SplineSet
379 -11 m 0xd480
 152 -11 45 112 45 327 c 0xd480
 45 562 189 669 381 669 c 0
 487 669 521 632 548 632 c 0xe480
 569 632 576 650 581 669 c 1
 625 669 l 1
 625 428 l 1
 576 428 l 1xd480
 550 560 485 615 380 615 c 0
 256 615 202 522 202 345 c 0
 202 147 252 49 379 49 c 0
 438 49 471 61 509 92 c 1
 509 179 l 2
 509 251 498 266 422 266 c 1
 422 310 l 1
 705 310 l 1
 705 266 l 1
 649 266 639 252 639 189 c 2
 639 57 l 1xd5
 566 15 489 -11 379 -11 c 0xd480
379 695 m 0xde80
 328 695 298 725 298 772 c 0
 298 818 328 848 379 848 c 0
 431 848 459 818 459 772 c 0
 459 725 430 695 379 695 c 0xde80
EndSplineSet
Substitution2: "'c2sc' Capitals to Small Capitals in Latin lookup 5 subtable" Gdotaccent.c2sc
EndChar

StartChar: Gcommaaccent
Encoding: 290 290 99
Width: 739
GlyphClass: 2
Flags: MW
HStem: -169 131<342 358.5> -11 60<315.5 408.5 315.5 434> 266 44<422 460 677 705> 612 20G<534.5 558.5> 615 54<318 432.5>
VStem: 45 157<246 433.5 246 444.5> 388 67<-194 -162> 509 130<92 179 179 189 57 215> 581 44<428 669>
AnchorPoint: "Anchor-5" 368 0 basechar 0
AnchorPoint: "Anchor-4" 370 0 basechar 0
AnchorPoint: "Anchor-3" 368 -302 basechar 0
AnchorPoint: "Anchor-0" 379 657 basechar 0
LayerCount: 2
Fore
SplineSet
379 -11 m 0x6e80
 152 -11 45 112 45 327 c 0x6e80
 45 562 189 669 381 669 c 0
 487 669 521 632 548 632 c 0x7680
 569 632 576 650 581 669 c 1
 625 669 l 1
 625 428 l 1
 576 428 l 1x6e80
 550 560 485 615 380 615 c 0
 256 615 202 522 202 345 c 0
 202 147 252 49 379 49 c 0
 438 49 471 61 509 92 c 1
 509 179 l 2
 509 251 498 266 422 266 c 1
 422 310 l 1
 705 310 l 1
 705 266 l 1
 649 266 639 252 639 189 c 2
 639 57 l 1x6f
 566 15 489 -11 379 -11 c 0x6e80
320 -302 m 1
 305 -270 l 1
 345 -254 388 -227 388 -162 c 1
 375 -167 364 -169 353 -169 c 0
 317 -169 293 -146 293 -108 c 0
 293 -69 317 -38 367 -38 c 0xee80
 424 -38 455 -78 455 -141 c 0
 455 -247 369 -285 320 -302 c 1
EndSplineSet
Substitution2: "'c2sc' Capitals to Small Capitals in Latin lookup 5 subtable" Gcommaaccent.c2sc
EndChar

StartChar: Hcircumflex
Encoding: 292 292 100
Width: 844
GlyphClass: 2
Flags: MW
HStem: 0 43<35 77.5 325.5 367 35 77.5 473 517 768 811> 305 55<277 567 277 567> 614 43<35 79.5 326 371 473 516.5 765.5 811> 698 139<258 469 258 469 376 527 376 589> 766 71<423 423>
VStem: 128 149<144 305 360 511> 567 149<144 305 305 305 360 511>
AnchorPoint: "Anchor-5" 666 0 basechar 0
AnchorPoint: "Anchor-4" 200 0 basechar 0
AnchorPoint: "Anchor-2" 422 0 basechar 0
AnchorPoint: "Anchor-1" 423 836 basechar 0
LayerCount: 2
Fore
SplineSet
367 0 m 1xf6
 35 0 l 1
 35 43 l 1
 120 43 128 56 128 144 c 2
 128 511 l 2
 128 589 124 614 35 614 c 1
 35 657 l 1
 371 657 l 1
 371 614 l 1
 281 614 277 590 277 511 c 2
 277 360 l 1
 567 360 l 1
 567 511 l 2
 567 590 560 614 473 614 c 1
 473 657 l 1
 811 657 l 1
 811 614 l 1
 720 614 716 590 716 511 c 2
 716 144 l 2
 716 57 725 43 811 43 c 1
 811 0 l 1
 473 0 l 1
 473 43 l 1
 561 43 567 57 567 144 c 2
 567 305 l 1
 277 305 l 1
 277 144 l 2
 277 56 284 43 367 43 c 1
 367 0 l 1xf6
321 698 m 1
 258 698 l 1
 376 837 l 1
 469 837 l 1
 589 698 l 1
 527 698 l 1xf6
 423 766 l 1xee
 321 698 l 1
EndSplineSet
Substitution2: "'c2sc' Capitals to Small Capitals in Latin lookup 5 subtable" Hcircumflex.c2sc
EndChar

StartChar: uni1E26
Encoding: 7718 7718 101
Width: 844
GlyphClass: 2
Flags: MW
HStem: 0 43<35 77.5 325.5 367 35 77.5 473 517 768 811> 305 55<277 567 277 567> 614 43<35 79.5 326 371 473 516.5 765.5 811> 700 145<289 335.5 510 556.5>
VStem: 128 149<144 305 360 511> 238 148<750.5 794.5> 459 148<750.5 794.5> 567 149<144 305 305 305 360 511>
AnchorPoint: "Anchor-5" 666 0 basechar 0
AnchorPoint: "Anchor-4" 200 0 basechar 0
AnchorPoint: "Anchor-2" 422 0 basechar 0
AnchorPoint: "Anchor-1" 423 845 basechar 0
LayerCount: 2
Fore
SplineSet
367 0 m 1xe9
 35 0 l 1
 35 43 l 1
 120 43 128 56 128 144 c 2
 128 511 l 2
 128 589 124 614 35 614 c 1
 35 657 l 1
 371 657 l 1
 371 614 l 1
 281 614 277 590 277 511 c 2
 277 360 l 1
 567 360 l 1
 567 511 l 2
 567 590 560 614 473 614 c 1
 473 657 l 1
 811 657 l 1
 811 614 l 1
 720 614 716 590 716 511 c 2
 716 144 l 2
 716 57 725 43 811 43 c 1
 811 0 l 1
 473 0 l 1
 473 43 l 1
 561 43 567 57 567 144 c 2
 567 305 l 1
 277 305 l 1
 277 144 l 2
 277 56 284 43 367 43 c 1
 367 0 l 1xe9
312 700 m 0xf6
 266 700 238 728 238 772 c 0
 238 817 265 845 312 845 c 0
 359 845 386 817 386 773 c 0
 386 728 359 700 312 700 c 0xf6
533 700 m 0
 487 700 459 728 459 772 c 0
 459 817 486 845 533 845 c 0
 580 845 607 817 607 773 c 0
 607 728 580 700 533 700 c 0
EndSplineSet
Substitution2: "'c2sc' Capitals to Small Capitals in Latin lookup 5 subtable" uni1E26.c2sc
EndChar

StartChar: uni1E22
Encoding: 7714 7714 102
Width: 844
GlyphClass: 2
Flags: MW
HStem: 0 43<35 77.5 325.5 367 35 77.5 473 517 768 811> 305 55<277 567 277 567> 614 43<35 79.5 326 371 473 516.5 765.5 811> 695 153<398.5 449.5>
VStem: 128 149<144 305 360 511> 343 161<748.5 795> 567 149<144 305 305 305 360 511>
AnchorPoint: "Anchor-5" 666 0 basechar 0
AnchorPoint: "Anchor-4" 200 0 basechar 0
AnchorPoint: "Anchor-2" 422 0 basechar 0
AnchorPoint: "Anchor-1" 424 848 basechar 0
LayerCount: 2
Fore
SplineSet
367 0 m 1
 35 0 l 1
 35 43 l 1
 120 43 128 56 128 144 c 2
 128 511 l 2
 128 589 124 614 35 614 c 1
 35 657 l 1
 371 657 l 1
 371 614 l 1
 281 614 277 590 277 511 c 2
 277 360 l 1
 567 360 l 1
 567 511 l 2
 567 590 560 614 473 614 c 1
 473 657 l 1
 811 657 l 1
 811 614 l 1
 720 614 716 590 716 511 c 2
 716 144 l 2
 716 57 725 43 811 43 c 1
 811 0 l 1
 473 0 l 1
 473 43 l 1
 561 43 567 57 567 144 c 2
 567 305 l 1
 277 305 l 1
 277 144 l 2
 277 56 284 43 367 43 c 1
 367 0 l 1
424 695 m 0
 373 695 343 725 343 772 c 0
 343 818 373 848 424 848 c 0
 476 848 504 818 504 772 c 0
 504 725 475 695 424 695 c 0
EndSplineSet
Substitution2: "'c2sc' Capitals to Small Capitals in Latin lookup 5 subtable" uni1E22.c2sc
EndChar

StartChar: uni1E2A
Encoding: 7722 7722 103
Width: 844
GlyphClass: 2
Flags: MW
HStem: -208 83<392.5 453.5 392.5 469> 0 43<35 77.5 325.5 367 35 77.5 473 517 768 811> 305 55<277 567 277 567> 614 43<35 79.5 326 371 473 516.5 765.5 811>
VStem: 128 149<144 305 360 511> 266 40<-50 -50> 266 101<-50 0> 567 149<144 305 305 305 360 511>
AnchorPoint: "Anchor-5" 666 0 basechar 0
AnchorPoint: "Anchor-4" 200 0 basechar 0
AnchorPoint: "Anchor-3" 423 -208 basechar 0
AnchorPoint: "Anchor-0" 423 657 basechar 0
LayerCount: 2
Fore
SplineSet
367 0 m 1xf3
 35 0 l 1
 35 43 l 1
 120 43 128 56 128 144 c 2
 128 511 l 2
 128 589 124 614 35 614 c 1
 35 657 l 1
 371 657 l 1
 371 614 l 1
 281 614 277 590 277 511 c 2
 277 360 l 1
 567 360 l 1
 567 511 l 2
 567 590 560 614 473 614 c 1
 473 657 l 1
 811 657 l 1
 811 614 l 1
 720 614 716 590 716 511 c 2
 716 144 l 2
 716 57 725 43 811 43 c 1
 811 0 l 1
 473 0 l 1
 473 43 l 1
 561 43 567 57 567 144 c 2
 567 305 l 1
 277 305 l 1
 277 144 l 2xf9
 277 56 284 43 367 43 c 1
 367 0 l 1xf3
423 -208 m 0xf5
 330 -208 270 -156 266 -50 c 1
 306 -50 l 1
 320 -112 362 -125 423 -125 c 0
 484 -125 520 -112 539 -50 c 1
 579 -50 l 1
 568 -156 515 -208 423 -208 c 0xf5
EndSplineSet
Substitution2: "'c2sc' Capitals to Small Capitals in Latin lookup 5 subtable" uni1E2A.c2sc
EndChar

StartChar: uni1E24
Encoding: 7716 7716 104
Width: 844
GlyphClass: 2
Flags: MW
HStem: -220 156<398 449.5> 0 43<35 77.5 325.5 367 35 77.5 473 517 768 811> 305 55<277 567 277 567> 614 43<35 79.5 326 371 473 516.5 765.5 811>
VStem: 128 149<144 305 360 511> 342 162<-165 -118.5> 567 149<144 305 305 305 360 511>
AnchorPoint: "Anchor-5" 666 0 basechar 0
AnchorPoint: "Anchor-4" 200 0 basechar 0
AnchorPoint: "Anchor-3" 423 -220 basechar 0
AnchorPoint: "Anchor-0" 423 657 basechar 0
LayerCount: 2
Fore
SplineSet
367 0 m 1
 35 0 l 1
 35 43 l 1
 120 43 128 56 128 144 c 2
 128 511 l 2
 128 589 124 614 35 614 c 1
 35 657 l 1
 371 657 l 1
 371 614 l 1
 281 614 277 590 277 511 c 2
 277 360 l 1
 567 360 l 1
 567 511 l 2
 567 590 560 614 473 614 c 1
 473 657 l 1
 811 657 l 1
 811 614 l 1
 720 614 716 590 716 511 c 2
 716 144 l 2
 716 57 725 43 811 43 c 1
 811 0 l 1
 473 0 l 1
 473 43 l 1
 561 43 567 57 567 144 c 2
 567 305 l 1
 277 305 l 1
 277 144 l 2
 277 56 284 43 367 43 c 1
 367 0 l 1
423 -220 m 0
 373 -220 342 -189 342 -142 c 0
 342 -95 372 -64 423 -64 c 0
 476 -64 504 -95 504 -141 c 0
 504 -189 476 -220 423 -220 c 0
EndSplineSet
Substitution2: "'c2sc' Capitals to Small Capitals in Latin lookup 5 subtable" uni1E24.c2sc
EndChar

StartChar: uni1E28
Encoding: 7720 7720 105
Width: 844
GlyphClass: 2
Flags: MW
HStem: -221 48<165.5 191 164.5 220> -97 46<177 237.5> 0 43<35 77.5 35 158 35 77.5 325.5 367 473 517 768 811> 305 55<277 567 277 567> 614 43<35 79.5 326 371 473 516.5 765.5 811>
VStem: 128 149<144 305 360 511> 227 78<-147 -121.5> 567 149<144 305 305 305 360 511>
AnchorPoint: "Anchor-5" 666 0 basechar 0
AnchorPoint: "Anchor-4" 200 0 basechar 0
AnchorPoint: "Anchor-3" 200 -242 basechar 0
AnchorPoint: "Anchor-0" 423 657 basechar 0
LayerCount: 2
Fore
SplineSet
367 0 m 1xfd
 198 0 l 1
 185 -53 l 1xfd
 185 -53 197 -51 209 -51 c 0
 266 -51 305 -80 305 -130 c 0
 305 -193 254 -221 186 -221 c 0
 145 -221 118 -203 94 -184 c 1
 112 -152 l 1
 130 -164 152 -173 177 -173 c 0
 205 -173 227 -162 227 -132 c 0
 227 -111 212 -97 185 -97 c 0
 169 -97 152 -100 152 -100 c 1
 136 -84 l 1
 158 0 l 1xfb
 35 0 l 1
 35 43 l 1
 120 43 128 56 128 144 c 2
 128 511 l 2
 128 589 124 614 35 614 c 1
 35 657 l 1
 371 657 l 1
 371 614 l 1
 281 614 277 590 277 511 c 2
 277 360 l 1
 567 360 l 1
 567 511 l 2
 567 590 560 614 473 614 c 1
 473 657 l 1
 811 657 l 1
 811 614 l 1
 720 614 716 590 716 511 c 2
 716 144 l 2
 716 57 725 43 811 43 c 1
 811 0 l 1
 473 0 l 1
 473 43 l 1
 561 43 567 57 567 144 c 2
 567 305 l 1
 277 305 l 1
 277 144 l 2
 277 56 284 43 367 43 c 1
 367 0 l 1xfd
EndSplineSet
Substitution2: "'c2sc' Capitals to Small Capitals in Latin lookup 5 subtable" uni1E28.c2sc
EndChar

StartChar: Hbar
Encoding: 294 294 106
Width: 854
GlyphClass: 2
Flags: MW
HStem: 0 43<40 82.5 330.5 372 40 82.5 478 522 773 816> 305 55<282 572 282 572> 464 56<40 133 40 133 282 572 721 815> 614 43<40 82.5 333 376 478 520 772.5 816>
VStem: 133 149<144 305 360 464 520 555.5> 572 149<144 305 305 305 360 464>
AnchorPoint: "Anchor-5" 676 0 basechar 0
AnchorPoint: "Anchor-4" 200 0 basechar 0
AnchorPoint: "Anchor-2" 425 0 basechar 0
AnchorPoint: "Anchor-0" 427 657 basechar 0
LayerCount: 2
Fore
SplineSet
372 0 m 1
 40 0 l 1
 40 43 l 1
 125 43 133 56 133 144 c 2
 133 464 l 1
 40 464 l 1
 40 520 l 1
 133 520 l 1
 133 591 125 614 40 614 c 1
 40 657 l 1
 376 657 l 1
 376 614 l 1
 290 614 282 592 282 520 c 1
 572 520 l 1
 571 592 562 614 478 614 c 1
 478 657 l 1
 816 657 l 1
 816 614 l 1
 729 614 721 592 721 520 c 1
 815 520 l 1
 815 464 l 1
 721 464 l 1
 721 144 l 2
 721 57 730 43 816 43 c 1
 816 0 l 1
 478 0 l 1
 478 43 l 1
 566 43 572 57 572 144 c 2
 572 305 l 1
 282 305 l 1
 282 144 l 2
 282 56 289 43 372 43 c 1
 372 0 l 1
572 464 m 1
 282 464 l 1
 282 360 l 1
 572 360 l 1
 572 464 l 1
EndSplineSet
Substitution2: "'c2sc' Capitals to Small Capitals in Latin lookup 5 subtable" Hbar.c2sc
EndChar

StartChar: Igrave
Encoding: 204 204 107
Width: 405
GlyphClass: 2
Flags: MW
HStem: 0 43<35 79 323.5 366 35 79> 614 43<35 78 325.5 370> 698 133<86 308 86 243> 799 32<86 207>
VStem: 128 149<144 511>
AnchorPoint: "Anchor-5" 220 0 basechar 0
AnchorPoint: "Anchor-4" 211 0 basechar 0
AnchorPoint: "Anchor-2" 203 0 basechar 0
AnchorPoint: "Anchor-1" 203 831 basechar 0
LayerCount: 2
Fore
SplineSet
366 0 m 1xd8
 35 0 l 1
 35 43 l 1
 123 43 128 58 128 144 c 2
 128 511 l 2
 128 590 121 614 35 614 c 1
 35 657 l 1
 370 657 l 1
 370 614 l 1
 281 614 277 589 277 511 c 2
 277 144 l 2
 277 59 281 43 366 43 c 1
 366 0 l 1xd8
308 698 m 1xe8
 243 698 l 1xe8
 86 799 l 1
 86 831 l 1
 207 831 l 1xd8
 308 698 l 1xe8
EndSplineSet
Substitution2: "'c2sc' Capitals to Small Capitals in Latin lookup 5 subtable" Igrave.c2sc
EndChar

StartChar: Iacute
Encoding: 205 205 108
Width: 405
GlyphClass: 2
Flags: MW
HStem: 0 43<35 79 323.5 366 35 79> 614 43<35 78 325.5 370> 698 133<98 320 98 320> 799 32<199 320>
VStem: 128 149<144 511>
AnchorPoint: "Anchor-5" 220 0 basechar 0
AnchorPoint: "Anchor-4" 211 0 basechar 0
AnchorPoint: "Anchor-2" 203 0 basechar 0
AnchorPoint: "Anchor-1" 203 830 basechar 0
LayerCount: 2
Fore
SplineSet
366 0 m 1xd8
 35 0 l 1
 35 43 l 1
 123 43 128 58 128 144 c 2
 128 511 l 2
 128 590 121 614 35 614 c 1
 35 657 l 1
 370 657 l 1
 370 614 l 1
 281 614 277 589 277 511 c 2
 277 144 l 2
 277 59 281 43 366 43 c 1
 366 0 l 1xd8
163 698 m 1xe8
 98 698 l 1xe8
 199 831 l 1
 320 831 l 1
 320 799 l 1xd8
 163 698 l 1xe8
EndSplineSet
Substitution2: "'c2sc' Capitals to Small Capitals in Latin lookup 5 subtable" Iacute.c2sc
EndChar

StartChar: Icircumflex
Encoding: 206 206 109
Width: 405
GlyphClass: 2
Flags: MW
HStem: 0 43<35 79 323.5 366 35 79> 614 43<35 78 325.5 370> 698 139<38 249 38 249 156 307 156 369> 766 71<203 203>
VStem: 128 149<144 511>
AnchorPoint: "Anchor-5" 220 0 basechar 0
AnchorPoint: "Anchor-4" 211 0 basechar 0
AnchorPoint: "Anchor-2" 203 0 basechar 0
AnchorPoint: "Anchor-1" 203 836 basechar 0
LayerCount: 2
Fore
SplineSet
366 0 m 1xe8
 35 0 l 1
 35 43 l 1
 123 43 128 58 128 144 c 2
 128 511 l 2
 128 590 121 614 35 614 c 1
 35 657 l 1
 370 657 l 1
 370 614 l 1
 281 614 277 589 277 511 c 2
 277 144 l 2
 277 59 281 43 366 43 c 1
 366 0 l 1xe8
101 698 m 1
 38 698 l 1
 156 837 l 1
 249 837 l 1
 369 698 l 1
 307 698 l 1xe8
 203 766 l 1xd8
 101 698 l 1
EndSplineSet
Substitution2: "'c2sc' Capitals to Small Capitals in Latin lookup 5 subtable" Icircumflex.c2sc
EndChar

StartChar: Itilde
Encoding: 296 296 110
Width: 405
GlyphClass: 2
Flags: MW
HStem: 0 43<35 79 323.5 366 35 79> 614 43<35 78 325.5 370> 706 78<262.5 299.5 262.5 302.5> 735 78<118 157>
VStem: 128 149<144 511>
AnchorPoint: "Anchor-5" 220 0 basechar 0
AnchorPoint: "Anchor-4" 211 0 basechar 0
AnchorPoint: "Anchor-2" 203 0 basechar 0
AnchorPoint: "Anchor-1" 203 813 basechar 0
LayerCount: 2
Fore
SplineSet
366 0 m 1xd8
 35 0 l 1
 35 43 l 1
 123 43 128 58 128 144 c 2
 128 511 l 2
 128 590 121 614 35 614 c 1
 35 657 l 1
 370 657 l 1
 370 614 l 1
 281 614 277 589 277 511 c 2
 277 144 l 2
 277 59 281 43 366 43 c 1
 366 0 l 1xd8
80 701 m 1
 41 701 l 1
 51 762 83 813 145 813 c 0xd8
 191 813 241 784 284 784 c 0
 315 784 330 799 337 816 c 1
 375 816 l 1
 361 744 332 706 273 706 c 0xe8
 221 706 179 735 135 735 c 0
 101 735 87 718 80 701 c 1
EndSplineSet
Substitution2: "'c2sc' Capitals to Small Capitals in Latin lookup 5 subtable" Itilde.c2sc
EndChar

StartChar: Idieresis
Encoding: 207 207 111
Width: 405
GlyphClass: 2
Flags: MW
HStem: 0 43<35 79 323.5 366 35 79> 614 43<35 78 325.5 370> 700 145<69 115.5 290 336.5>
VStem: 18 148<750.5 794.5> 128 149<144 511> 239 148<750.5 794.5>
AnchorPoint: "Anchor-5" 220 0 basechar 0
AnchorPoint: "Anchor-4" 211 0 basechar 0
AnchorPoint: "Anchor-2" 203 0 basechar 0
AnchorPoint: "Anchor-1" 203 845 basechar 0
LayerCount: 2
Fore
SplineSet
366 0 m 1xc8
 35 0 l 1
 35 43 l 1
 123 43 128 58 128 144 c 2
 128 511 l 2
 128 590 121 614 35 614 c 1
 35 657 l 1
 370 657 l 1
 370 614 l 1
 281 614 277 589 277 511 c 2
 277 144 l 2
 277 59 281 43 366 43 c 1
 366 0 l 1xc8
92 700 m 0xf4
 46 700 18 728 18 772 c 0
 18 817 45 845 92 845 c 0
 139 845 166 817 166 773 c 0
 166 728 139 700 92 700 c 0xf4
313 700 m 0
 267 700 239 728 239 772 c 0
 239 817 266 845 313 845 c 0
 360 845 387 817 387 773 c 0
 387 728 360 700 313 700 c 0
EndSplineSet
Substitution2: "'c2sc' Capitals to Small Capitals in Latin lookup 5 subtable" Idieresis.c2sc
EndChar

StartChar: uni1E2E
Encoding: 7726 7726 112
Width: 405
GlyphClass: 2
Flags: MW
HStem: 0 43<35 79 323.5 366 35 79> 614 43<35 78 325.5 370> 690 145<69 115.5 290 336.5> 853 133<98 320 98 320> 954 32<199 320>
VStem: 18 148<740.5 784.5> 128 149<144 511> 239 148<740.5 784.5>
AnchorPoint: "Anchor-5" 220 0 basechar 0
AnchorPoint: "Anchor-4" 211 0 basechar 0
AnchorPoint: "Anchor-2" 203 0 basechar 0
AnchorPoint: "Anchor-1" 203 985 basechar 0
LayerCount: 2
Fore
SplineSet
366 0 m 1xea
 35 0 l 1
 35 43 l 1
 123 43 128 58 128 144 c 2
 128 511 l 2
 128 590 121 614 35 614 c 1
 35 657 l 1
 370 657 l 1
 370 614 l 1
 281 614 277 589 277 511 c 2
 277 144 l 2
 277 59 281 43 366 43 c 1
 366 0 l 1xea
92 690 m 0xed
 46 690 18 718 18 762 c 0
 18 807 45 835 92 835 c 0
 139 835 166 807 166 763 c 0
 166 718 139 690 92 690 c 0xed
313 690 m 0
 267 690 239 718 239 762 c 0
 239 807 266 835 313 835 c 0
 360 835 387 807 387 763 c 0
 387 718 360 690 313 690 c 0
163 853 m 1xf4
 98 853 l 1xf2
 199 986 l 1
 320 986 l 1
 320 954 l 1xea
 163 853 l 1xf4
EndSplineSet
Substitution2: "'c2sc' Capitals to Small Capitals in Latin lookup 5 subtable" uni1E2E.c2sc
EndChar

StartChar: Imacron
Encoding: 298 298 113
Width: 405
GlyphClass: 2
Flags: MW
HStem: 0 43<35 79 323.5 366 35 79> 614 43<35 78 325.5 370> 726 78<46 360 46 360>
VStem: 128 149<144 511>
AnchorPoint: "Anchor-5" 220 0 basechar 0
AnchorPoint: "Anchor-4" 211 0 basechar 0
AnchorPoint: "Anchor-2" 203 0 basechar 0
AnchorPoint: "Anchor-1" 203 804 basechar 0
LayerCount: 2
Fore
SplineSet
366 0 m 1
 35 0 l 1
 35 43 l 1
 123 43 128 58 128 144 c 2
 128 511 l 2
 128 590 121 614 35 614 c 1
 35 657 l 1
 370 657 l 1
 370 614 l 1
 281 614 277 589 277 511 c 2
 277 144 l 2
 277 59 281 43 366 43 c 1
 366 0 l 1
360 726 m 1
 46 726 l 1
 46 804 l 1
 360 804 l 1
 360 726 l 1
EndSplineSet
Substitution2: "'c2sc' Capitals to Small Capitals in Latin lookup 5 subtable" Imacron.c2sc
EndChar

StartChar: Ibreve
Encoding: 300 300 114
Width: 405
GlyphClass: 2
Flags: MW
HStem: 0 43<35 79 323.5 366 35 79> 614 43<35 78 325.5 370> 700 79<175 229 175 249>
VStem: 44 42<850 850> 128 149<144 511>
AnchorPoint: "Anchor-5" 220 0 basechar 0
AnchorPoint: "Anchor-4" 211 0 basechar 0
AnchorPoint: "Anchor-2" 203 0 basechar 0
AnchorPoint: "Anchor-1" 203 850 basechar 0
LayerCount: 2
Fore
SplineSet
366 0 m 1
 35 0 l 1
 35 43 l 1
 123 43 128 58 128 144 c 2
 128 511 l 2
 128 590 121 614 35 614 c 1
 35 657 l 1
 370 657 l 1
 370 614 l 1
 281 614 277 589 277 511 c 2
 277 144 l 2
 277 59 281 43 366 43 c 1
 366 0 l 1
203 700 m 0
 110 700 48 744 44 850 c 1
 86 850 l 1
 97 803 148 779 202 779 c 0
 256 779 306 803 319 850 c 1
 361 850 l 1
 350 744 295 700 203 700 c 0
EndSplineSet
Substitution2: "'c2sc' Capitals to Small Capitals in Latin lookup 5 subtable" Ibreve.c2sc
EndChar

StartChar: Idotaccent
Encoding: 304 304 115
Width: 405
GlyphClass: 2
Flags: MW
HStem: 0 43<35 79 323.5 366 35 79> 614 43<35 78 325.5 370> 695 153<178.5 229.5>
VStem: 123 161<748.5 795> 128 149<144 511>
AnchorPoint: "Anchor-5" 220 0 basechar 0
AnchorPoint: "Anchor-4" 211 0 basechar 0
AnchorPoint: "Anchor-2" 203 0 basechar 0
AnchorPoint: "Anchor-1" 204 848 basechar 0
LayerCount: 2
Fore
SplineSet
366 0 m 1xc8
 35 0 l 1
 35 43 l 1
 123 43 128 58 128 144 c 2
 128 511 l 2
 128 590 121 614 35 614 c 1
 35 657 l 1
 370 657 l 1
 370 614 l 1
 281 614 277 589 277 511 c 2
 277 144 l 2
 277 59 281 43 366 43 c 1
 366 0 l 1xc8
204 695 m 0xf0
 153 695 123 725 123 772 c 0
 123 818 153 848 204 848 c 0
 256 848 284 818 284 772 c 0
 284 725 255 695 204 695 c 0xf0
EndSplineSet
Substitution2: "'c2sc' Capitals to Small Capitals in Latin lookup 5 subtable" Idotaccent.c2sc
EndChar

StartChar: uni1EC8
Encoding: 7880 7880 116
Width: 405
GlyphClass: 2
Flags: MW
HStem: 0 43<35 79 323.5 366 35 79> 614 43<35 78 325.5 370> 698 53<167 227 167 167> 865 40<181.5 210.5>
VStem: 128 149<144 511> 167 60<698 727 698 751 698 751> 229 87<794.5 838>
AnchorPoint: "Anchor-5" 220 0 basechar 0
AnchorPoint: "Anchor-4" 211 0 basechar 0
AnchorPoint: "Anchor-2" 203 0 basechar 0
AnchorPoint: "Anchor-0" 203 657 basechar 0
LayerCount: 2
Fore
SplineSet
366 0 m 1xd8
 35 0 l 1
 35 43 l 1
 123 43 128 58 128 144 c 2
 128 511 l 2
 128 590 121 614 35 614 c 1
 35 657 l 1
 370 657 l 1
 370 614 l 1
 281 614 277 589 277 511 c 2
 277 144 l 2
 277 59 281 43 366 43 c 1
 366 0 l 1xd8
227 698 m 1xf4
 167 698 l 1
 167 751 l 1xf4
 212 752 229 770 229 819 c 0
 229 857 219 865 202 865 c 0
 161 865 175 818 137 818 c 0
 115 818 103 833 103 850 c 0
 103 887 155 905 206 905 c 0
 278 905 316 868 316 817 c 0xf2
 316 756 259 733 227 727 c 1
 227 698 l 1xf4
EndSplineSet
Substitution2: "'c2sc' Capitals to Small Capitals in Latin lookup 5 subtable" uni1EC8.c2sc
EndChar

StartChar: uni1E2C
Encoding: 7724 7724 117
Width: 405
GlyphClass: 2
Flags: MW
HStem: -166 78<247.5 281.5 247.5 286> -127 78<112 146> 0 43<35 79 323.5 366 35 79> 614 43<35 78 325.5 370>
VStem: 128 149<144 511>
AnchorPoint: "Anchor-5" 220 0 basechar 0
AnchorPoint: "Anchor-4" 211 0 basechar 0
AnchorPoint: "Anchor-3" 203 -166 basechar 0
AnchorPoint: "Anchor-0" 203 657 basechar 0
LayerCount: 2
Fore
SplineSet
366 0 m 1x78
 35 0 l 1
 35 43 l 1
 123 43 128 58 128 144 c 2
 128 511 l 2
 128 590 121 614 35 614 c 1
 35 657 l 1
 370 657 l 1
 370 614 l 1
 281 614 277 589 277 511 c 2
 277 144 l 2
 277 59 281 43 366 43 c 1
 366 0 l 1x78
72 -169 m 1
 33 -169 l 1
 44 -102 83 -49 139 -49 c 0x78
 201 -49 225 -88 270 -88 c 0
 293 -88 316 -75 325 -45 c 1
 363 -45 l 1
 348 -122 317 -166 255 -166 c 0xb8
 196 -166 168 -127 124 -127 c 0
 100 -127 80 -142 72 -169 c 1
EndSplineSet
Substitution2: "'c2sc' Capitals to Small Capitals in Latin lookup 5 subtable" uni1E2C.c2sc
EndChar

StartChar: uni1ECA
Encoding: 7882 7882 118
Width: 405
GlyphClass: 2
Flags: MW
HStem: -220 156<178 229.5> 0 43<35 79 323.5 366 35 79> 614 43<35 78 325.5 370>
VStem: 122 162<-165 -118.5> 128 149<144 511>
AnchorPoint: "Anchor-5" 220 0 basechar 0
AnchorPoint: "Anchor-4" 211 0 basechar 0
AnchorPoint: "Anchor-3" 203 -220 basechar 0
AnchorPoint: "Anchor-0" 203 657 basechar 0
LayerCount: 2
Fore
SplineSet
366 0 m 1xe8
 35 0 l 1
 35 43 l 1
 123 43 128 58 128 144 c 2
 128 511 l 2
 128 590 121 614 35 614 c 1
 35 657 l 1
 370 657 l 1
 370 614 l 1
 281 614 277 589 277 511 c 2
 277 144 l 2
 277 59 281 43 366 43 c 1
 366 0 l 1xe8
203 -220 m 0xf0
 153 -220 122 -189 122 -142 c 0
 122 -95 152 -64 203 -64 c 0
 256 -64 284 -95 284 -141 c 0
 284 -189 256 -220 203 -220 c 0xf0
EndSplineSet
Substitution2: "'c2sc' Capitals to Small Capitals in Latin lookup 5 subtable" uni1ECA.c2sc
EndChar

StartChar: Iogonek
Encoding: 302 302 119
Width: 405
GlyphClass: 2
Flags: MW
HStem: -221 66<221.5 234.5> 0 43<35 79 35 191 35 79 323.5 366> 614 43<35 78 325.5 370>
VStem: 91 96<-118.5 -96.5> 128 149<144 511> 191 86
AnchorPoint: "Anchor-5" 217 -250 basechar 0
AnchorPoint: "Anchor-4" 205 -250 basechar 0
AnchorPoint: "Anchor-3" 205 -250 basechar 0
AnchorPoint: "Anchor-0" 203 657 basechar 0
LayerCount: 2
Fore
SplineSet
205 -221 m 0xf0
 136 -221 91 -184 91 -134 c 0xf0
 91 -59 151 -29 191 -4 c 1
 191 0 l 1xe4
 35 0 l 1
 35 43 l 1
 123 43 128 58 128 144 c 2
 128 511 l 2
 128 590 121 614 35 614 c 1
 35 657 l 1
 370 657 l 1
 370 614 l 1
 281 614 277 589 277 511 c 2
 277 144 l 2
 277 59 281 43 366 43 c 1
 366 0 l 1xe8
 259 0 l 1
 224 -24 187 -45 187 -100 c 0
 187 -137 206 -155 237 -155 c 0
 275 -155 287 -148 317 -126 c 1
 340 -154 l 1
 301 -193 264 -221 205 -221 c 0xf0
EndSplineSet
Substitution2: "'c2sc' Capitals to Small Capitals in Latin lookup 5 subtable" Iogonek.c2sc
EndChar

StartChar: Jcircumflex
Encoding: 308 308 120
Width: 470
GlyphClass: 2
Flags: MW
HStem: -13 47<143 185.5 143 190> 614 43<110 157.5 411.5 457> 698 139<118 329 118 329 236 387 236 449> 766 71<283 283>
VStem: 213 149<132 165 165 511>
AnchorPoint: "Anchor-5" 192 0 basechar 0
AnchorPoint: "Anchor-4" 179 0 basechar 0
AnchorPoint: "Anchor-2" 170 0 basechar 0
AnchorPoint: "Anchor-1" 283 836 basechar 0
LayerCount: 2
Fore
SplineSet
140 -13 m 0xe8
 73 -13 0 7 0 79 c 0
 0 117 22 143 60 143 c 0
 138 143 119 34 167 34 c 0
 204 34 213 53 213 132 c 2
 213 511 l 2
 213 590 205 614 110 614 c 1
 110 657 l 1
 457 657 l 1
 457 614 l 1
 366 614 362 589 362 511 c 2
 362 165 l 2
 362 9 240 -13 140 -13 c 0xe8
181 698 m 1
 118 698 l 1
 236 837 l 1
 329 837 l 1
 449 698 l 1
 387 698 l 1xe8
 283 766 l 1xd8
 181 698 l 1
EndSplineSet
Substitution2: "'c2sc' Capitals to Small Capitals in Latin lookup 5 subtable" Jcircumflex.c2sc
EndChar

StartChar: uni1E30
Encoding: 7728 7728 121
Width: 786
GlyphClass: 2
Flags: MW
HStem: 0 43<35 79 325 367 35 79 434 450 450 460.5 762 785> 303 35<277 282 277 285 277 282> 613 44<456 473> 614 43<35 79 325.5 371> 698 133<290 512 290 512> 799 32<391 512>
VStem: 128 149<144 303 338 510>
AnchorPoint: "Anchor-5" 651 0 basechar 0
AnchorPoint: "Anchor-4" 399 0 basechar 0
AnchorPoint: "Anchor-2" 398 0 basechar 0
AnchorPoint: "Anchor-1" 395 830 basechar 0
LayerCount: 2
Fore
SplineSet
367 0 m 1xd6
 35 0 l 1
 35 43 l 1
 123 43 128 58 128 144 c 2
 128 511 l 2
 128 590 123 614 35 614 c 1
 35 657 l 1
 371 657 l 1
 371 614 l 1xda
 280 614 277 589 277 510 c 2
 277 338 l 1
 282 338 l 1
 453 496 l 2
 494 535 510 552 510 581 c 0
 510 603 498 613 473 613 c 2
 456 613 l 1xe6
 456 657 l 1
 727 657 l 1xd6
 727 613 l 1
 670 610 647 598 592 547 c 2xe6
 405 379 l 1
 685 87 l 2
 716 55 739 43 785 43 c 1
 785 0 l 1
 434 0 l 1
 434 43 l 1
 450 43 l 2
 471 43 488 50 488 65 c 0
 488 94 462 117 366 216 c 2
 285 303 l 1
 277 303 l 1
 277 143 l 2
 277 59 283 43 367 43 c 1
 367 0 l 1xd6
355 698 m 1
 290 698 l 1xda
 391 831 l 1
 512 831 l 1
 512 799 l 1xd6
 355 698 l 1
EndSplineSet
Substitution2: "'c2sc' Capitals to Small Capitals in Latin lookup 5 subtable" uni1E30.c2sc
EndChar

StartChar: uni1E34
Encoding: 7732 7732 122
Width: 786
GlyphClass: 2
Flags: MW
HStem: -151 75<253 543 253 543> 0 43<35 79 325 367 35 79 434 450 450 460.5 762 785> 303 35<277 282 277 285 277 282> 613 44<456 473> 614 43<35 79 325.5 371>
VStem: 128 149<144 303 338 510> 253 114<-151 0 -76 0> 434 109
AnchorPoint: "Anchor-5" 651 0 basechar 0
AnchorPoint: "Anchor-4" 399 0 basechar 0
AnchorPoint: "Anchor-3" 398 -151 basechar 0
AnchorPoint: "Anchor-0" 393 657 basechar 0
LayerCount: 2
Fore
SplineSet
367 0 m 1xca
 35 0 l 1
 35 43 l 1
 123 43 128 58 128 144 c 2
 128 511 l 2
 128 590 123 614 35 614 c 1
 35 657 l 1
 371 657 l 1
 371 614 l 1xcd
 280 614 277 589 277 510 c 2
 277 338 l 1
 282 338 l 1
 453 496 l 2
 494 535 510 552 510 581 c 0
 510 603 498 613 473 613 c 2
 456 613 l 1xf4
 456 657 l 1
 727 657 l 1xcc
 727 613 l 1
 670 610 647 598 592 547 c 2
 405 379 l 1
 685 87 l 2
 716 55 739 43 785 43 c 1
 785 0 l 1
 434 0 l 1
 434 43 l 1
 450 43 l 2
 471 43 488 50 488 65 c 0
 488 94 462 117 366 216 c 2
 285 303 l 1
 277 303 l 1
 277 143 l 2xf5
 277 59 283 43 367 43 c 1
 367 0 l 1xca
543 -151 m 1
 253 -151 l 1
 253 -76 l 1xca
 543 -76 l 1
 543 -151 l 1
EndSplineSet
Substitution2: "'c2sc' Capitals to Small Capitals in Latin lookup 5 subtable" uni1E34.c2sc
EndChar

StartChar: uni1E32
Encoding: 7730 7730 123
Width: 786
GlyphClass: 2
Flags: MW
HStem: -220 156<373 424.5> 0 43<35 79 325 367 35 79 434 450 450 460.5 762 785> 303 35<277 282 277 285 277 282> 613 44<456 473> 614 43<35 79 325.5 371>
VStem: 128 149<144 303 338 510> 317 162<-165 -118.5>
AnchorPoint: "Anchor-5" 651 0 basechar 0
AnchorPoint: "Anchor-4" 399 0 basechar 0
AnchorPoint: "Anchor-3" 398 -220 basechar 0
AnchorPoint: "Anchor-0" 393 657 basechar 0
LayerCount: 2
Fore
SplineSet
367 0 m 1xec
 35 0 l 1
 35 43 l 1
 123 43 128 58 128 144 c 2
 128 511 l 2
 128 590 123 614 35 614 c 1
 35 657 l 1
 371 657 l 1
 371 614 l 1xee
 280 614 277 589 277 510 c 2
 277 338 l 1
 282 338 l 1
 453 496 l 2
 494 535 510 552 510 581 c 0
 510 603 498 613 473 613 c 2
 456 613 l 1xf4
 456 657 l 1
 727 657 l 1xec
 727 613 l 1
 670 610 647 598 592 547 c 2xf4
 405 379 l 1
 685 87 l 2
 716 55 739 43 785 43 c 1
 785 0 l 1
 434 0 l 1
 434 43 l 1
 450 43 l 2
 471 43 488 50 488 65 c 0
 488 94 462 117 366 216 c 2
 285 303 l 1
 277 303 l 1
 277 143 l 2
 277 59 283 43 367 43 c 1
 367 0 l 1xec
398 -220 m 0
 348 -220 317 -189 317 -142 c 0
 317 -95 347 -64 398 -64 c 0
 451 -64 479 -95 479 -141 c 0
 479 -189 451 -220 398 -220 c 0
EndSplineSet
Substitution2: "'c2sc' Capitals to Small Capitals in Latin lookup 5 subtable" uni1E32.c2sc
EndChar

StartChar: Kcommaaccent
Encoding: 310 310 124
Width: 786
GlyphClass: 2
Flags: MW
HStem: -169 131<372 388.5> 0 43<35 79 325 367 35 79 434 450 450 460.5 762 785> 303 35<277 282 277 285 277 282> 613 44<456 473> 614 43<35 79 325.5 371>
VStem: 128 149<144 303 338 510> 418 67<-194 -162>
AnchorPoint: "Anchor-5" 651 0 basechar 0
AnchorPoint: "Anchor-4" 399 0 basechar 0
AnchorPoint: "Anchor-3" 398 -302 basechar 0
AnchorPoint: "Anchor-0" 393 657 basechar 0
LayerCount: 2
Fore
SplineSet
367 0 m 1x6e
 35 0 l 1
 35 43 l 1
 123 43 128 58 128 144 c 2
 128 511 l 2
 128 590 123 614 35 614 c 1
 35 657 l 1
 371 657 l 1
 371 614 l 1xee
 280 614 277 589 277 510 c 2
 277 338 l 1
 282 338 l 1
 453 496 l 2
 494 535 510 552 510 581 c 0
 510 603 498 613 473 613 c 2
 456 613 l 1x76
 456 657 l 1
 727 657 l 1x6e
 727 613 l 1
 670 610 647 598 592 547 c 2x76
 405 379 l 1
 685 87 l 2
 716 55 739 43 785 43 c 1
 785 0 l 1
 434 0 l 1
 434 43 l 1
 450 43 l 2
 471 43 488 50 488 65 c 0
 488 94 462 117 366 216 c 2
 285 303 l 1
 277 303 l 1
 277 143 l 2
 277 59 283 43 367 43 c 1
 367 0 l 1x6e
350 -302 m 1
 335 -270 l 1
 375 -254 418 -227 418 -162 c 1
 405 -167 394 -169 383 -169 c 0
 347 -169 323 -146 323 -108 c 0
 323 -69 347 -38 397 -38 c 0
 454 -38 485 -78 485 -141 c 0
 485 -247 399 -285 350 -302 c 1
EndSplineSet
Substitution2: "'c2sc' Capitals to Small Capitals in Latin lookup 5 subtable" Kcommaaccent.c2sc
EndChar

StartChar: Lacute
Encoding: 313 313 125
Width: 648
GlyphClass: 2
Flags: MW
HStem: 0 43<34 76 34 603 34 76> 0 61<352 413 413 469.5 352 603> 614 43<35 77 332 375> 698 133<142 364 142 364> 799 32<243 364>
VStem: 128 149<136 516>
AnchorPoint: "Anchor-5" 469 0 basechar 0
AnchorPoint: "Anchor-4" 318 0 basechar 0
AnchorPoint: "Anchor-2" 319 0 basechar 0
AnchorPoint: "Anchor-1" 247 830 basechar 0
LayerCount: 2
Fore
SplineSet
603 0 m 1x6c
 34 0 l 1x74
 34 43 l 1
 118 43 128 58 128 136 c 2xac
 128 517 l 2
 128 593 119 614 35 614 c 1
 35 657 l 1
 375 657 l 1
 375 614 l 1
 289 614 277 594 277 516 c 2
 277 120 l 2
 277 70 293 61 352 61 c 2
 413 61 l 2
 526 61 550 94 580 211 c 1
 631 211 l 1
 603 0 l 1x6c
207 698 m 1
 142 698 l 1x74
 243 831 l 1
 364 831 l 1
 364 799 l 1x6c
 207 698 l 1
EndSplineSet
Substitution2: "'c2sc' Capitals to Small Capitals in Latin lookup 5 subtable" Lacute.c2sc
EndChar

StartChar: Lcaron
Encoding: 317 317 126
Width: 648
GlyphClass: 2
Flags: MW
HStem: 0 43<34 76 34 603 34 76> 0 61<352 413 413 469.5 352 603> 614 43<35 77 332 375>
VStem: 128 149<136 516> 446 111
AnchorPoint: "Anchor-5" 469 0 basechar 0
AnchorPoint: "Anchor-4" 318 0 basechar 0
AnchorPoint: "Anchor-2" 319 0 basechar 0
AnchorPoint: "Anchor-0" 205 657 basechar 0
LayerCount: 2
Fore
SplineSet
603 0 m 1x70
 34 0 l 1x78
 34 43 l 1
 118 43 128 58 128 136 c 2xb0
 128 517 l 2
 128 593 119 614 35 614 c 1
 35 657 l 1
 375 657 l 1
 375 614 l 1
 289 614 277 594 277 516 c 2
 277 120 l 2
 277 70 293 61 352 61 c 2
 413 61 l 2
 526 61 550 94 580 211 c 1
 631 211 l 1
 603 0 l 1x70
488 448 m 1
 440 455 l 1
 452 657 l 1
 557 657 l 1
 557 622 l 1
 553 566 520 499 488 448 c 1
EndSplineSet
Substitution2: "'c2sc' Capitals to Small Capitals in Latin lookup 5 subtable" Lcaron.c2sc
EndChar

StartChar: uni1E38
Encoding: 7736 7736 127
Width: 648
GlyphClass: 2
Flags: MW
HStem: -220 156<294 345.5> 0 43<34 76 34 603 34 76> 0 61<352 413 413 469.5 352 603> 614 43<35 77 332 375> 726 78<48 362 48 362>
VStem: 128 149<136 516> 238 162<-165 -118.5>
AnchorPoint: "Anchor-5" 469 0 basechar 0
AnchorPoint: "Anchor-4" 318 0 basechar 0
AnchorPoint: "Anchor-3" 319 -220 basechar 0
AnchorPoint: "Anchor-1" 205 804 basechar 0
LayerCount: 2
Fore
SplineSet
603 0 m 1xbc
 34 0 l 1xba
 34 43 l 1
 118 43 128 58 128 136 c 2xdc
 128 517 l 2
 128 593 119 614 35 614 c 1
 35 657 l 1
 375 657 l 1
 375 614 l 1
 289 614 277 594 277 516 c 2
 277 120 l 2
 277 70 293 61 352 61 c 2
 413 61 l 2
 526 61 550 94 580 211 c 1
 631 211 l 1
 603 0 l 1xbc
362 726 m 1
 48 726 l 1
 48 804 l 1
 362 804 l 1
 362 726 l 1
319 -220 m 0
 269 -220 238 -189 238 -142 c 0
 238 -95 268 -64 319 -64 c 0
 372 -64 400 -95 400 -141 c 0
 400 -189 372 -220 319 -220 c 0
EndSplineSet
Substitution2: "'c2sc' Capitals to Small Capitals in Latin lookup 5 subtable" uni1E38.c2sc
EndChar

StartChar: uni1E3C
Encoding: 7740 7740 128
Width: 648
GlyphClass: 2
Flags: MW
HStem: -203 153<166 366 166 366 273 414 273 472> -117 67<320 320> 0 43<34 76 34 603 34 76> 0 61<352 413 413 469.5 352 603> 614 43<35 77 332 375>
VStem: 128 149<136 516>
AnchorPoint: "Anchor-5" 469 0 basechar 0
AnchorPoint: "Anchor-4" 318 0 basechar 0
AnchorPoint: "Anchor-3" 319 -203 basechar 0
AnchorPoint: "Anchor-0" 205 657 basechar 0
LayerCount: 2
Fore
SplineSet
603 0 m 1x1c
 34 0 l 1x9c
 34 43 l 1
 118 43 128 58 128 136 c 2x2c
 128 517 l 2
 128 593 119 614 35 614 c 1
 35 657 l 1
 375 657 l 1
 375 614 l 1
 289 614 277 594 277 516 c 2
 277 120 l 2
 277 70 293 61 352 61 c 2
 413 61 l 2
 526 61 550 94 580 211 c 1
 631 211 l 1
 603 0 l 1x1c
225 -203 m 1
 166 -203 l 1
 273 -50 l 1
 366 -50 l 1
 472 -203 l 1
 414 -203 l 1x9c
 320 -117 l 1x5c
 225 -203 l 1
EndSplineSet
Substitution2: "'c2sc' Capitals to Small Capitals in Latin lookup 5 subtable" uni1E3C.c2sc
EndChar

StartChar: uni1E3A
Encoding: 7738 7738 129
Width: 648
GlyphClass: 2
Flags: MW
HStem: -151 75<174 464 174 464> 0 43<34 76 34 603 34 76> 0 61<352 413 413 469.5 352 603> 614 43<35 77 332 375>
VStem: 128 149<136 516> 174 103
AnchorPoint: "Anchor-5" 469 0 basechar 0
AnchorPoint: "Anchor-4" 318 0 basechar 0
AnchorPoint: "Anchor-3" 319 -151 basechar 0
AnchorPoint: "Anchor-0" 205 657 basechar 0
LayerCount: 2
Fore
SplineSet
603 0 m 1xb8
 34 0 l 1xb4
 34 43 l 1
 118 43 128 58 128 136 c 2xd8
 128 517 l 2
 128 593 119 614 35 614 c 1
 35 657 l 1
 375 657 l 1
 375 614 l 1
 289 614 277 594 277 516 c 2
 277 120 l 2
 277 70 293 61 352 61 c 2
 413 61 l 2
 526 61 550 94 580 211 c 1
 631 211 l 1
 603 0 l 1xb8
464 -151 m 1
 174 -151 l 1
 174 -76 l 1
 464 -76 l 1
 464 -151 l 1
EndSplineSet
Substitution2: "'c2sc' Capitals to Small Capitals in Latin lookup 5 subtable" uni1E3A.c2sc
EndChar

StartChar: uni1E36
Encoding: 7734 7734 130
Width: 648
GlyphClass: 2
Flags: MW
HStem: -220 156<294 345.5> 0 43<34 76 34 603 34 76> 0 61<352 413 413 469.5 352 603> 614 43<35 77 332 375>
VStem: 128 149<136 516> 238 162<-165 -118.5>
AnchorPoint: "Anchor-5" 469 0 basechar 0
AnchorPoint: "Anchor-4" 318 0 basechar 0
AnchorPoint: "Anchor-3" 319 -220 basechar 0
AnchorPoint: "Anchor-0" 205 657 basechar 0
LayerCount: 2
Fore
SplineSet
603 0 m 1xb8
 34 0 l 1xb4
 34 43 l 1
 118 43 128 58 128 136 c 2xd8
 128 517 l 2
 128 593 119 614 35 614 c 1
 35 657 l 1
 375 657 l 1
 375 614 l 1
 289 614 277 594 277 516 c 2
 277 120 l 2
 277 70 293 61 352 61 c 2
 413 61 l 2
 526 61 550 94 580 211 c 1
 631 211 l 1
 603 0 l 1xb8
319 -220 m 0
 269 -220 238 -189 238 -142 c 0
 238 -95 268 -64 319 -64 c 0
 372 -64 400 -95 400 -141 c 0
 400 -189 372 -220 319 -220 c 0
EndSplineSet
Substitution2: "'c2sc' Capitals to Small Capitals in Latin lookup 5 subtable" uni1E36.c2sc
EndChar

StartChar: Lcommaaccent
Encoding: 315 315 131
Width: 648
GlyphClass: 2
Flags: MW
HStem: -169 131<293 309.5> 0 43<34 76 34 603 34 76> 0 61<352 413 413 469.5 352 603> 614 43<35 77 332 375>
VStem: 128 149<136 516> 339 67<-194 -162>
AnchorPoint: "Anchor-5" 469 0 basechar 0
AnchorPoint: "Anchor-4" 318 0 basechar 0
AnchorPoint: "Anchor-3" 319 -302 basechar 0
AnchorPoint: "Anchor-0" 205 657 basechar 0
LayerCount: 2
Fore
SplineSet
603 0 m 1x3c
 34 0 l 1xbc
 34 43 l 1
 118 43 128 58 128 136 c 2x5c
 128 517 l 2
 128 593 119 614 35 614 c 1
 35 657 l 1
 375 657 l 1
 375 614 l 1
 289 614 277 594 277 516 c 2
 277 120 l 2
 277 70 293 61 352 61 c 2
 413 61 l 2
 526 61 550 94 580 211 c 1
 631 211 l 1
 603 0 l 1x3c
271 -302 m 1
 256 -270 l 1
 296 -254 339 -227 339 -162 c 1
 326 -167 315 -169 304 -169 c 0
 268 -169 244 -146 244 -108 c 0
 244 -69 268 -38 318 -38 c 0
 375 -38 406 -78 406 -141 c 0
 406 -247 320 -285 271 -302 c 1
EndSplineSet
Substitution2: "'c2sc' Capitals to Small Capitals in Latin lookup 5 subtable" Lcommaaccent.c2sc
EndChar

StartChar: Ldot
Encoding: 319 319 132
Width: 668
GlyphClass: 2
Flags: MW
HStem: 0 43<34 76 34 603 34 76> 0 61<352 413 413 469.5 352 603> 290 156<511 562.5> 614 43<35 77 332 375>
VStem: 128 149<136 516> 455 162<345 391.5>
AnchorPoint: "Anchor-5" 469 0 basechar 0
AnchorPoint: "Anchor-4" 318 0 basechar 0
AnchorPoint: "Anchor-2" 319 0 basechar 0
AnchorPoint: "Anchor-1" 536 446 basechar 0
LayerCount: 2
Fore
SplineSet
603 0 m 1x58
 34 0 l 1x7c
 34 43 l 1
 118 43 128 58 128 136 c 2x98
 128 517 l 2
 128 593 119 614 35 614 c 1
 35 657 l 1
 375 657 l 1
 375 614 l 1
 289 614 277 594 277 516 c 2
 277 120 l 2
 277 70 293 61 352 61 c 2
 413 61 l 2
 526 61 550 94 580 211 c 1
 631 211 l 1
 603 0 l 1x58
536 290 m 0
 486 290 455 321 455 368 c 0
 455 415 485 446 536 446 c 0
 589 446 617 415 617 369 c 0
 617 321 589 290 536 290 c 0
EndSplineSet
Substitution2: "'c2sc' Capitals to Small Capitals in Latin lookup 5 subtable" Ldot.c2sc
EndChar

StartChar: Lslash
Encoding: 321 321 133
Width: 653
GlyphClass: 2
Flags: MW
HStem: 0 43<39 81 39 608 39 81> 0 61<357 418 418 474.5 357 608> 461 20G<446 446> 614 43<40 82 337 380>
VStem: 133 149<136 228 228 228 295 317 383 516>
AnchorPoint: "Anchor-5" 475 0 basechar 0
AnchorPoint: "Anchor-4" 322 0 basechar 0
AnchorPoint: "Anchor-2" 323 0 basechar 0
AnchorPoint: "Anchor-0" 209 657 basechar 0
LayerCount: 2
Fore
SplineSet
608 0 m 1x78
 39 0 l 1x78
 39 43 l 1
 123 43 133 58 133 136 c 2xb8
 133 228 l 1
 58 183 l 1
 30 232 l 1
 133 295 l 1
 133 517 l 2
 133 593 124 614 40 614 c 1
 40 657 l 1
 380 657 l 1
 380 614 l 1
 294 614 282 594 282 516 c 2
 282 383 l 1
 446 481 l 1
 477 435 l 1
 282 317 l 1
 282 120 l 2
 282 70 298 61 357 61 c 2
 418 61 l 2
 531 61 555 94 585 211 c 1
 636 211 l 1
 608 0 l 1x78
EndSplineSet
Substitution2: "'c2sc' Capitals to Small Capitals in Latin lookup 5 subtable" Lslash.c2sc
EndChar

StartChar: uni1E3E
Encoding: 7742 7742 134
Width: 996
GlyphClass: 2
Flags: MW
HStem: 0 43<26 66 242.5 280 26 66 632 670 920.5 955> 614 43<28 66 919.5 954> 698 133<386 608 386 608> 799 32<487 608>
VStem: 118 74<152 521 521 522> 720 148<124 522>
AnchorPoint: "Anchor-5" 820 0 basechar 0
AnchorPoint: "Anchor-4" 459 0 basechar 0
AnchorPoint: "Anchor-2" 459 0 basechar 0
AnchorPoint: "Anchor-1" 491 830 basechar 0
LayerCount: 2
Fore
SplineSet
280 0 m 1xdc
 26 0 l 1
 26 43 l 1
 106 43 118 50 118 152 c 2
 118 521 l 2
 118 596 104 614 28 614 c 1
 28 657 l 1
 309 657 l 1
 497 194 l 1
 505 194 l 1
 692 657 l 1
 954 657 l 1
 954 614 l 1
 885 614 868 596 868 522 c 2
 868 124 l 2
 868 57 886 43 955 43 c 1
 955 0 l 1
 632 0 l 1
 632 43 l 1
 708 43 720 57 720 124 c 2
 720 522 l 1
 714 522 l 1
 497 0 l 1
 418 0 l 1
 198 522 l 1
 192 522 l 1
 192 152 l 2
 192 50 205 43 280 43 c 1
 280 0 l 1xdc
451 698 m 1xec
 386 698 l 1xec
 487 831 l 1
 608 831 l 1
 608 799 l 1xdc
 451 698 l 1xec
EndSplineSet
Substitution2: "'c2sc' Capitals to Small Capitals in Latin lookup 5 subtable" uni1E3E.c2sc
EndChar

StartChar: uni1E40
Encoding: 7744 7744 135
Width: 996
GlyphClass: 2
Flags: MW
HStem: 0 43<26 66 242.5 280 26 66 632 670 920.5 955> 614 43<28 66 919.5 954> 695 153<466.5 517.5>
VStem: 118 74<152 521 521 522> 411 161<748.5 795> 720 148<124 522>
AnchorPoint: "Anchor-5" 820 0 basechar 0
AnchorPoint: "Anchor-4" 459 0 basechar 0
AnchorPoint: "Anchor-2" 459 0 basechar 0
AnchorPoint: "Anchor-1" 492 848 basechar 0
LayerCount: 2
Fore
SplineSet
280 0 m 1
 26 0 l 1
 26 43 l 1
 106 43 118 50 118 152 c 2
 118 521 l 2
 118 596 104 614 28 614 c 1
 28 657 l 1
 309 657 l 1
 497 194 l 1
 505 194 l 1
 692 657 l 1
 954 657 l 1
 954 614 l 1
 885 614 868 596 868 522 c 2
 868 124 l 2
 868 57 886 43 955 43 c 1
 955 0 l 1
 632 0 l 1
 632 43 l 1
 708 43 720 57 720 124 c 2
 720 522 l 1
 714 522 l 1
 497 0 l 1
 418 0 l 1
 198 522 l 1
 192 522 l 1
 192 152 l 2
 192 50 205 43 280 43 c 1
 280 0 l 1
492 695 m 0
 441 695 411 725 411 772 c 0
 411 818 441 848 492 848 c 0
 544 848 572 818 572 772 c 0
 572 725 543 695 492 695 c 0
EndSplineSet
Substitution2: "'c2sc' Capitals to Small Capitals in Latin lookup 5 subtable" uni1E40.c2sc
EndChar

StartChar: uni1E42
Encoding: 7746 7746 136
Width: 996
GlyphClass: 2
Flags: MW
HStem: -220 156<434 485.5> 0 43<26 66 242.5 280 26 66 632 670 920.5 955> 614 43<28 66 919.5 954>
VStem: 118 74<152 521 521 522> 378 162<-165 -118.5> 720 148<124 522>
AnchorPoint: "Anchor-5" 820 0 basechar 0
AnchorPoint: "Anchor-4" 459 0 basechar 0
AnchorPoint: "Anchor-3" 459 -220 basechar 0
AnchorPoint: "Anchor-0" 498 657 basechar 0
LayerCount: 2
Fore
SplineSet
280 0 m 1
 26 0 l 1
 26 43 l 1
 106 43 118 50 118 152 c 2
 118 521 l 2
 118 596 104 614 28 614 c 1
 28 657 l 1
 309 657 l 1
 497 194 l 1
 505 194 l 1
 692 657 l 1
 954 657 l 1
 954 614 l 1
 885 614 868 596 868 522 c 2
 868 124 l 2
 868 57 886 43 955 43 c 1
 955 0 l 1
 632 0 l 1
 632 43 l 1
 708 43 720 57 720 124 c 2
 720 522 l 1
 714 522 l 1
 497 0 l 1
 418 0 l 1
 198 522 l 1
 192 522 l 1
 192 152 l 2
 192 50 205 43 280 43 c 1
 280 0 l 1
459 -220 m 0
 409 -220 378 -189 378 -142 c 0
 378 -95 408 -64 459 -64 c 0
 512 -64 540 -95 540 -141 c 0
 540 -189 512 -220 459 -220 c 0
EndSplineSet
Substitution2: "'c2sc' Capitals to Small Capitals in Latin lookup 5 subtable" uni1E42.c2sc
EndChar

StartChar: Nacute
Encoding: 323 323 137
Width: 795
GlyphClass: 2
Flags: MW
HStem: -7 21G<572 687 572 572> 0 43<24 64 237.5 275 24 64> 614 43<24 44 525 571.5 734 777> 698 133<312 534 312 534> 799 32<413 534>
VStem: 118 66<234 509> 620 67<186 485>
AnchorPoint: "Anchor-5" 388 0 basechar 0
AnchorPoint: "Anchor-4" 389 0 basechar 0
AnchorPoint: "Anchor-2" 387 0 basechar 0
AnchorPoint: "Anchor-1" 417 830 basechar 0
LayerCount: 2
Fore
SplineSet
687 -7 m 1xae
 572 -7 l 1xb6
 189 509 l 1
 184 509 l 1
 184 162 l 2
 184 62 200 43 275 43 c 1
 275 0 l 1
 24 0 l 1
 24 43 l 1x6e
 104 43 118 134 118 234 c 2
 118 565 l 1
 87 608 64 614 24 614 c 1
 24 657 l 1
 264 657 l 1
 615 186 l 1
 620 186 l 1
 620 485 l 2
 620 562 618 614 525 614 c 1
 525 657 l 1
 777 657 l 1
 777 614 l 1
 691 614 687 562 687 485 c 2
 687 -7 l 1xae
377 698 m 1
 312 698 l 1x76
 413 831 l 1
 534 831 l 1
 534 799 l 1x6e
 377 698 l 1
EndSplineSet
Substitution2: "'c2sc' Capitals to Small Capitals in Latin lookup 5 subtable" Nacute.c2sc
EndChar

StartChar: Ncaron
Encoding: 327 327 138
Width: 795
GlyphClass: 2
Flags: MW
HStem: -7 21G<572 687 572 572> 0 43<24 64 237.5 275 24 64> 614 43<24 44 525 571.5 734 777> 698 139<251 464 251 371>
VStem: 118 66<234 509> 620 67<186 485>
AnchorPoint: "Anchor-5" 388 0 basechar 0
AnchorPoint: "Anchor-4" 389 0 basechar 0
AnchorPoint: "Anchor-2" 387 0 basechar 0
AnchorPoint: "Anchor-1" 417 837 basechar 0
LayerCount: 2
Fore
SplineSet
687 -7 m 1xac
 572 -7 l 1xbc
 189 509 l 1
 184 509 l 1
 184 162 l 2
 184 62 200 43 275 43 c 1
 275 0 l 1
 24 0 l 1
 24 43 l 1x6c
 104 43 118 134 118 234 c 2
 118 565 l 1
 87 608 64 614 24 614 c 1
 24 657 l 1
 264 657 l 1
 615 186 l 1
 620 186 l 1
 620 485 l 2
 620 562 618 614 525 614 c 1
 525 657 l 1
 777 657 l 1
 777 614 l 1
 691 614 687 562 687 485 c 2
 687 -7 l 1xac
464 698 m 1
 371 698 l 1
 251 837 l 1
 313 837 l 1
 417 769 l 1
 519 837 l 1
 582 837 l 1
 464 698 l 1
EndSplineSet
Substitution2: "'c2sc' Capitals to Small Capitals in Latin lookup 5 subtable" Ncaron.c2sc
EndChar

StartChar: Ntilde
Encoding: 209 209 139
Width: 795
GlyphClass: 2
Flags: MW
HStem: -7 21G<572 687 572 572> 0 43<24 64 237.5 275 24 64> 614 43<24 44 525 571.5 734 777> 706 78<476.5 513.5 476.5 516.5> 735 78<332 371>
VStem: 118 66<234 509> 620 67<186 485>
AnchorPoint: "Anchor-5" 388 0 basechar 0
AnchorPoint: "Anchor-4" 389 0 basechar 0
AnchorPoint: "Anchor-2" 387 0 basechar 0
AnchorPoint: "Anchor-1" 417 813 basechar 0
LayerCount: 2
Fore
SplineSet
687 -7 m 1xae
 572 -7 l 1xae
 189 509 l 1
 184 509 l 1
 184 162 l 2
 184 62 200 43 275 43 c 1
 275 0 l 1
 24 0 l 1
 24 43 l 1x6e
 104 43 118 134 118 234 c 2
 118 565 l 1
 87 608 64 614 24 614 c 1
 24 657 l 1
 264 657 l 1
 615 186 l 1
 620 186 l 1
 620 485 l 2
 620 562 618 614 525 614 c 1
 525 657 l 1
 777 657 l 1
 777 614 l 1
 691 614 687 562 687 485 c 2
 687 -7 l 1xae
294 701 m 1
 255 701 l 1
 265 762 297 813 359 813 c 0x6e
 405 813 455 784 498 784 c 0
 529 784 544 799 551 816 c 1
 589 816 l 1
 575 744 546 706 487 706 c 0x76
 435 706 393 735 349 735 c 0
 315 735 301 718 294 701 c 1
EndSplineSet
Substitution2: "'c2sc' Capitals to Small Capitals in Latin lookup 5 subtable" Ntilde.c2sc
EndChar

StartChar: uni1E44
Encoding: 7748 7748 140
Width: 795
GlyphClass: 2
Flags: MW
HStem: -7 21G<572 687 572 572> 0 43<24 64 237.5 275 24 64> 614 43<24 44 525 571.5 734 777> 695 153<392.5 443.5>
VStem: 118 66<234 509> 337 161<748.5 795> 620 67<186 485>
AnchorPoint: "Anchor-5" 388 0 basechar 0
AnchorPoint: "Anchor-4" 389 0 basechar 0
AnchorPoint: "Anchor-2" 387 0 basechar 0
AnchorPoint: "Anchor-1" 418 848 basechar 0
LayerCount: 2
Fore
SplineSet
687 -7 m 1xaa
 572 -7 l 1xbe
 189 509 l 1
 184 509 l 1
 184 162 l 2
 184 62 200 43 275 43 c 1
 275 0 l 1
 24 0 l 1
 24 43 l 1x6a
 104 43 118 134 118 234 c 2
 118 565 l 1
 87 608 64 614 24 614 c 1
 24 657 l 1
 264 657 l 1
 615 186 l 1
 620 186 l 1
 620 485 l 2
 620 562 618 614 525 614 c 1
 525 657 l 1
 777 657 l 1
 777 614 l 1
 691 614 687 562 687 485 c 2
 687 -7 l 1xaa
418 695 m 0
 367 695 337 725 337 772 c 0
 337 818 367 848 418 848 c 0
 470 848 498 818 498 772 c 0
 498 725 469 695 418 695 c 0
EndSplineSet
Substitution2: "'c2sc' Capitals to Small Capitals in Latin lookup 5 subtable" uni1E44.c2sc
EndChar

StartChar: uni1E4A
Encoding: 7754 7754 141
Width: 795
GlyphClass: 2
Flags: MW
HStem: -203 153<234 434 234 434 341 482 341 540> -117 67<388 388> -7 21G<572 687 572 572> 0 43<24 64 237.5 275 24 64> 614 43<24 44 525 571.5 734 777>
VStem: 118 66<234 509> 620 67<186 485>
AnchorPoint: "Anchor-5" 388 0 basechar 0
AnchorPoint: "Anchor-4" 389 0 basechar 0
AnchorPoint: "Anchor-3" 387 -203 basechar 0
AnchorPoint: "Anchor-0" 417 657 basechar 0
LayerCount: 2
Fore
SplineSet
687 -7 m 1x2e
 572 -7 l 1xae
 189 509 l 1
 184 509 l 1
 184 162 l 2
 184 62 200 43 275 43 c 1
 275 0 l 1
 24 0 l 1
 24 43 l 1x1e
 104 43 118 134 118 234 c 2
 118 565 l 1
 87 608 64 614 24 614 c 1
 24 657 l 1
 264 657 l 1
 615 186 l 1
 620 186 l 1
 620 485 l 2
 620 562 618 614 525 614 c 1
 525 657 l 1
 777 657 l 1
 777 614 l 1
 691 614 687 562 687 485 c 2
 687 -7 l 1x2e
293 -203 m 1
 234 -203 l 1
 341 -50 l 1
 434 -50 l 1
 540 -203 l 1
 482 -203 l 1x9e
 388 -117 l 1x5e
 293 -203 l 1
EndSplineSet
Substitution2: "'c2sc' Capitals to Small Capitals in Latin lookup 5 subtable" uni1E4A.c2sc
EndChar

StartChar: uni1E48
Encoding: 7752 7752 142
Width: 795
GlyphClass: 2
Flags: MW
HStem: -151 75<242 532 242 532> -7 21G<572 687 572 572> 0 43<24 64 237.5 275 24 64> 614 43<24 44 525 571.5 734 777>
VStem: 118 66<234 509> 620 67<186 485>
AnchorPoint: "Anchor-5" 388 0 basechar 0
AnchorPoint: "Anchor-4" 389 0 basechar 0
AnchorPoint: "Anchor-3" 387 -151 basechar 0
AnchorPoint: "Anchor-0" 417 657 basechar 0
LayerCount: 2
Fore
SplineSet
687 -7 m 1xdc
 572 -7 l 1xdc
 189 509 l 1
 184 509 l 1
 184 162 l 2
 184 62 200 43 275 43 c 1
 275 0 l 1
 24 0 l 1
 24 43 l 1xbc
 104 43 118 134 118 234 c 2
 118 565 l 1
 87 608 64 614 24 614 c 1
 24 657 l 1
 264 657 l 1
 615 186 l 1
 620 186 l 1
 620 485 l 2
 620 562 618 614 525 614 c 1
 525 657 l 1
 777 657 l 1
 777 614 l 1
 691 614 687 562 687 485 c 2
 687 -7 l 1xdc
532 -151 m 1
 242 -151 l 1
 242 -76 l 1
 532 -76 l 1
 532 -151 l 1
EndSplineSet
Substitution2: "'c2sc' Capitals to Small Capitals in Latin lookup 5 subtable" uni1E48.c2sc
EndChar

StartChar: uni1E46
Encoding: 7750 7750 143
Width: 795
GlyphClass: 2
Flags: MW
HStem: -220 156<362 413.5> -7 21G<572 687 572 572> 0 43<24 64 237.5 275 24 64> 614 43<24 44 525 571.5 734 777>
VStem: 118 66<234 509> 306 162<-165 -118.5> 620 67<186 485>
AnchorPoint: "Anchor-5" 388 0 basechar 0
AnchorPoint: "Anchor-4" 389 0 basechar 0
AnchorPoint: "Anchor-3" 387 -220 basechar 0
AnchorPoint: "Anchor-0" 417 657 basechar 0
LayerCount: 2
Fore
SplineSet
687 -7 m 1xda
 572 -7 l 1xde
 189 509 l 1
 184 509 l 1
 184 162 l 2
 184 62 200 43 275 43 c 1
 275 0 l 1
 24 0 l 1
 24 43 l 1xba
 104 43 118 134 118 234 c 2
 118 565 l 1
 87 608 64 614 24 614 c 1
 24 657 l 1
 264 657 l 1
 615 186 l 1
 620 186 l 1
 620 485 l 2
 620 562 618 614 525 614 c 1
 525 657 l 1
 777 657 l 1
 777 614 l 1
 691 614 687 562 687 485 c 2
 687 -7 l 1xda
387 -220 m 0
 337 -220 306 -189 306 -142 c 0
 306 -95 336 -64 387 -64 c 0
 440 -64 468 -95 468 -141 c 0
 468 -189 440 -220 387 -220 c 0
EndSplineSet
Substitution2: "'c2sc' Capitals to Small Capitals in Latin lookup 5 subtable" uni1E46.c2sc
EndChar

StartChar: Ncommaaccent
Encoding: 325 325 144
Width: 795
GlyphClass: 2
Flags: MW
HStem: -169 131<361 377.5> -7 21G<572 687 572 572> 0 43<24 64 237.5 275 24 64> 614 43<24 44 525 571.5 734 777>
VStem: 118 66<234 509> 407 67<-194 -162> 620 67<186 485>
AnchorPoint: "Anchor-5" 388 0 basechar 0
AnchorPoint: "Anchor-4" 389 0 basechar 0
AnchorPoint: "Anchor-3" 387 -302 basechar 0
AnchorPoint: "Anchor-0" 417 657 basechar 0
LayerCount: 2
Fore
SplineSet
687 -7 m 1x5e
 572 -7 l 1xde
 189 509 l 1
 184 509 l 1
 184 162 l 2
 184 62 200 43 275 43 c 1
 275 0 l 1
 24 0 l 1
 24 43 l 1x3e
 104 43 118 134 118 234 c 2
 118 565 l 1
 87 608 64 614 24 614 c 1
 24 657 l 1
 264 657 l 1
 615 186 l 1
 620 186 l 1
 620 485 l 2
 620 562 618 614 525 614 c 1
 525 657 l 1
 777 657 l 1
 777 614 l 1
 691 614 687 562 687 485 c 2
 687 -7 l 1x5e
339 -302 m 1
 324 -270 l 1
 364 -254 407 -227 407 -162 c 1
 394 -167 383 -169 372 -169 c 0
 336 -169 312 -146 312 -108 c 0
 312 -69 336 -38 386 -38 c 0
 443 -38 474 -78 474 -141 c 0
 474 -247 388 -285 339 -302 c 1
EndSplineSet
Substitution2: "'c2sc' Capitals to Small Capitals in Latin lookup 5 subtable" Ncommaaccent.c2sc
EndChar

StartChar: Ograve
Encoding: 210 210 145
Width: 748
GlyphClass: 2
Flags: MW
HStem: -14 52<316 433 316 479> 619 50<318.5 424.5> 698 133<256 478 256 413> 799 32<256 377>
VStem: 45 156<241 427 241 433.5> 547 156<232.5 427.5>
AnchorPoint: "Anchor-5" 442 0 basechar 0
AnchorPoint: "Anchor-4" 376 0 basechar 0
AnchorPoint: "Anchor-2" 374 0 basechar 0
AnchorPoint: "Anchor-1" 373 831 basechar 0
LayerCount: 2
Fore
SplineSet
374 -14 m 0xdc
 163 -14 45 110 45 329 c 0
 45 538 167 669 374 669 c 0
 583 669 703 546 703 338 c 0
 703 119 584 -14 374 -14 c 0xdc
375 38 m 0
 491 38 547 130 547 335 c 0
 547 520 478 619 371 619 c 0
 266 619 201 519 201 335 c 0
 201 147 257 38 375 38 c 0
478 698 m 1xec
 413 698 l 1xec
 256 799 l 1
 256 831 l 1
 377 831 l 1xdc
 478 698 l 1xec
EndSplineSet
Substitution2: "'c2sc' Capitals to Small Capitals in Latin lookup 5 subtable" Ograve.c2sc
EndChar

StartChar: Oacute
Encoding: 211 211 146
Width: 748
GlyphClass: 2
Flags: MW
HStem: -14 52<316 433 316 479> 619 50<318.5 424.5> 698 133<268 490 268 490> 799 32<369 490>
VStem: 45 156<241 427 241 433.5> 547 156<232.5 427.5>
AnchorPoint: "Anchor-5" 442 0 basechar 0
AnchorPoint: "Anchor-4" 376 0 basechar 0
AnchorPoint: "Anchor-2" 374 0 basechar 0
AnchorPoint: "Anchor-1" 373 830 basechar 0
LayerCount: 2
Fore
SplineSet
374 -14 m 0xdc
 163 -14 45 110 45 329 c 0
 45 538 167 669 374 669 c 0
 583 669 703 546 703 338 c 0
 703 119 584 -14 374 -14 c 0xdc
375 38 m 0
 491 38 547 130 547 335 c 0
 547 520 478 619 371 619 c 0
 266 619 201 519 201 335 c 0
 201 147 257 38 375 38 c 0
333 698 m 1xec
 268 698 l 1xec
 369 831 l 1
 490 831 l 1
 490 799 l 1xdc
 333 698 l 1xec
EndSplineSet
Substitution2: "'c2sc' Capitals to Small Capitals in Latin lookup 5 subtable" Oacute.c2sc
EndChar

StartChar: Ocircumflex
Encoding: 212 212 147
Width: 748
GlyphClass: 2
Flags: MW
HStem: -14 52<316 433 316 479> 619 50<318.5 424.5> 698 139<208 419 208 419 326 477 326 539> 766 71<373 373>
VStem: 45 156<241 427 241 433.5> 547 156<232.5 427.5>
AnchorPoint: "Anchor-5" 442 0 basechar 0
AnchorPoint: "Anchor-4" 376 0 basechar 0
AnchorPoint: "Anchor-2" 374 0 basechar 0
AnchorPoint: "Anchor-1" 373 836 basechar 0
LayerCount: 2
Fore
SplineSet
374 -14 m 0xcc
 163 -14 45 110 45 329 c 0
 45 538 167 669 374 669 c 0
 583 669 703 546 703 338 c 0
 703 119 584 -14 374 -14 c 0xcc
375 38 m 0
 491 38 547 130 547 335 c 0
 547 520 478 619 371 619 c 0
 266 619 201 519 201 335 c 0
 201 147 257 38 375 38 c 0
271 698 m 1xec
 208 698 l 1
 326 837 l 1
 419 837 l 1
 539 698 l 1
 477 698 l 1xec
 373 766 l 1xdc
 271 698 l 1xec
EndSplineSet
Substitution2: "'c2sc' Capitals to Small Capitals in Latin lookup 5 subtable" Ocircumflex.c2sc
EndChar

StartChar: uni1ED2
Encoding: 7890 7890 148
Width: 748
GlyphClass: 2
Flags: MW
HStem: -14 52<316 433 316 479> 619 50<318.5 424.5> 693 134<208 418 208 418 327 477 327 539> 762 65<373 373> 763 123<438 632 438 573> 854 32<438 531>
VStem: 45 156<241 427 241 433.5> 547 156<232.5 427.5>
AnchorPoint: "Anchor-5" 442 0 basechar 0
AnchorPoint: "Anchor-4" 376 0 basechar 0
AnchorPoint: "Anchor-2" 374 0 basechar 0
AnchorPoint: "Anchor-0" 374 657 basechar 0
LayerCount: 2
Fore
SplineSet
374 -14 m 0xc3
 163 -14 45 110 45 329 c 0
 45 538 167 669 374 669 c 0
 583 669 703 546 703 338 c 0
 703 119 584 -14 374 -14 c 0xc3
375 38 m 0
 491 38 547 130 547 335 c 0
 547 520 478 619 371 619 c 0
 266 619 201 519 201 335 c 0
 201 147 257 38 375 38 c 0
271 693 m 1xe3
 208 693 l 1
 327 827 l 1
 418 827 l 1
 539 693 l 1
 477 693 l 1xe3
 373 762 l 1xd3
 271 693 l 1xe3
632 763 m 1xcb
 573 763 l 1xcb
 438 854 l 1
 438 886 l 1
 531 886 l 1xc7
 632 763 l 1xcb
EndSplineSet
Substitution2: "'c2sc' Capitals to Small Capitals in Latin lookup 5 subtable" uni1ED2.c2sc
EndChar

StartChar: uni1ED0
Encoding: 7888 7888 149
Width: 748
GlyphClass: 2
Flags: MW
HStem: -14 52<316 433 316 479> 619 50<318.5 424.5> 693 134<208 418 208 418 327 477 327 539> 762 65<373 373> 763 64 854 32<587 680>
VStem: 45 156<241 427 241 433.5> 547 156<232.5 427.5>
AnchorPoint: "Anchor-5" 442 0 basechar 0
AnchorPoint: "Anchor-4" 376 0 basechar 0
AnchorPoint: "Anchor-2" 374 0 basechar 0
AnchorPoint: "Anchor-0" 374 657 basechar 0
LayerCount: 2
Fore
SplineSet
374 -14 m 0xc3
 163 -14 45 110 45 329 c 0
 45 538 167 669 374 669 c 0
 583 669 703 546 703 338 c 0
 703 119 584 -14 374 -14 c 0xc3
375 38 m 0
 491 38 547 130 547 335 c 0
 547 520 478 619 371 619 c 0
 266 619 201 519 201 335 c 0
 201 147 257 38 375 38 c 0
271 693 m 1xe3
 208 693 l 1
 327 827 l 1
 418 827 l 1
 539 693 l 1
 477 693 l 1xe3
 373 762 l 1xd3
 271 693 l 1xe3
545 763 m 1xcb
 486 763 l 1xcb
 587 886 l 1
 680 886 l 1
 680 854 l 1xc7
 545 763 l 1xcb
EndSplineSet
Substitution2: "'c2sc' Capitals to Small Capitals in Latin lookup 5 subtable" uni1ED0.c2sc
EndChar

StartChar: uni1ED6
Encoding: 7894 7894 150
Width: 748
GlyphClass: 2
Flags: MW
HStem: -14 52<316 433 316 479> 619 50<318.5 424.5> 693 134<208 418 208 418 327 477 327 539> 762 65<373 373> 844 71<435 468 435 470.5> 872 71<291.5 325.5>
VStem: 45 156<241 427 241 433.5> 547 156<232.5 427.5>
AnchorPoint: "Anchor-5" 442 0 basechar 0
AnchorPoint: "Anchor-4" 376 0 basechar 0
AnchorPoint: "Anchor-2" 374 0 basechar 0
AnchorPoint: "Anchor-0" 374 657 basechar 0
LayerCount: 2
Fore
SplineSet
374 -14 m 0xc7
 163 -14 45 110 45 329 c 0
 45 538 167 669 374 669 c 0
 583 669 703 546 703 338 c 0
 703 119 584 -14 374 -14 c 0xc7
375 38 m 0
 491 38 547 130 547 335 c 0
 547 520 478 619 371 619 c 0
 266 619 201 519 201 335 c 0
 201 147 257 38 375 38 c 0
252 837 m 1
 213 837 l 1
 224 901 262 943 313 943 c 0xe7
 354 943 415 915 455 915 c 0
 481 915 498 928 505 947 c 1
 543 947 l 1
 529 874 495 844 446 844 c 0xcb
 399 844 345 872 306 872 c 0
 277 872 259 857 252 837 c 1
271 693 m 1
 208 693 l 1
 327 827 l 1
 418 827 l 1
 539 693 l 1
 477 693 l 1xe7
 373 762 l 1xd7
 271 693 l 1
EndSplineSet
Substitution2: "'c2sc' Capitals to Small Capitals in Latin lookup 5 subtable" uni1ED6.c2sc
EndChar

StartChar: uni1ED4
Encoding: 7892 7892 151
Width: 748
GlyphClass: 2
Flags: MW
HStem: -14 52<316 433 316 479> 619 50<318.5 424.5> 693 134<208 418 208 418 327 477 327 539> 762 65<373 373> 763 50<487 545 487 487> 793 20G<487 487> 921 38<501 529>
VStem: 45 156<241 427 241 433.5> 487 58<763 791 763 813 763 813> 547 82<854.5 896> 547 156<232.5 427.5>
AnchorPoint: "Anchor-5" 442 0 basechar 0
AnchorPoint: "Anchor-4" 376 0 basechar 0
AnchorPoint: "Anchor-2" 374 0 basechar 0
AnchorPoint: "Anchor-0" 374 657 basechar 0
LayerCount: 2
Fore
SplineSet
374 -14 m 0xcb20
 163 -14 45 110 45 329 c 0
 45 538 167 669 374 669 c 0
 583 669 703 546 703 338 c 0
 703 119 584 -14 374 -14 c 0xcb20
375 38 m 0
 491 38 547 130 547 335 c 0
 547 520 478 619 371 619 c 0
 266 619 201 519 201 335 c 0
 201 147 257 38 375 38 c 0
271 693 m 1xe320
 208 693 l 1
 327 827 l 1
 418 827 l 1
 539 693 l 1
 477 693 l 1xe320
 373 762 l 1xd320
 271 693 l 1xe320
545 763 m 1xcb80
 487 763 l 1
 487 813 l 1xcb80
 530 814 547 831 547 878 c 0
 547 914 537 921 521 921 c 0
 481 921 495 877 460 877 c 0
 438 877 427 891 427 907 c 0
 427 942 477 959 525 959 c 0
 592 959 629 924 629 876 c 0xc740
 629 817 575 796 545 791 c 1xc780
 545 763 l 1xcb80
EndSplineSet
Substitution2: "'c2sc' Capitals to Small Capitals in Latin lookup 5 subtable" uni1ED4.c2sc
EndChar

StartChar: uni1ED8
Encoding: 7896 7896 152
Width: 748
GlyphClass: 2
Flags: MW
HStem: -220 156<348 399.5> -14 52<316 433 316 479> 619 50<318.5 424.5> 698 139<208 419 208 419 326 477 326 539> 766 71<373 373>
VStem: 45 156<241 427 241 433.5> 292 162<-165 -118.5> 547 156<232.5 427.5>
AnchorPoint: "Anchor-5" 442 0 basechar 0
AnchorPoint: "Anchor-4" 376 0 basechar 0
AnchorPoint: "Anchor-3" 373 -220 basechar 0
AnchorPoint: "Anchor-1" 373 836 basechar 0
LayerCount: 2
Fore
SplineSet
374 -14 m 0xed
 163 -14 45 110 45 329 c 0
 45 538 167 669 374 669 c 0
 583 669 703 546 703 338 c 0
 703 119 584 -14 374 -14 c 0xed
375 38 m 0
 491 38 547 130 547 335 c 0
 547 520 478 619 371 619 c 0
 266 619 201 519 201 335 c 0
 201 147 257 38 375 38 c 0
271 698 m 1xf5
 208 698 l 1
 326 837 l 1
 419 837 l 1
 539 698 l 1
 477 698 l 1xf7
 373 766 l 1xed
 271 698 l 1xf5
373 -220 m 0
 323 -220 292 -189 292 -142 c 0
 292 -95 322 -64 373 -64 c 0
 426 -64 454 -95 454 -141 c 0
 454 -189 426 -220 373 -220 c 0
EndSplineSet
Substitution2: "'c2sc' Capitals to Small Capitals in Latin lookup 5 subtable" uni1ED8.c2sc
EndChar

StartChar: Otilde
Encoding: 213 213 153
Width: 748
GlyphClass: 2
Flags: MW
HStem: -14 52<316 433 316 479> 619 50<318.5 424.5> 706 78<432.5 469.5 432.5 472.5> 735 78<288 327>
VStem: 45 156<241 427 241 433.5> 547 156<232.5 427.5>
AnchorPoint: "Anchor-5" 442 0 basechar 0
AnchorPoint: "Anchor-4" 376 0 basechar 0
AnchorPoint: "Anchor-2" 374 0 basechar 0
AnchorPoint: "Anchor-1" 373 813 basechar 0
LayerCount: 2
Fore
SplineSet
374 -14 m 0xdc
 163 -14 45 110 45 329 c 0
 45 538 167 669 374 669 c 0
 583 669 703 546 703 338 c 0
 703 119 584 -14 374 -14 c 0xdc
375 38 m 0
 491 38 547 130 547 335 c 0
 547 520 478 619 371 619 c 0
 266 619 201 519 201 335 c 0
 201 147 257 38 375 38 c 0
250 701 m 1
 211 701 l 1
 221 762 253 813 315 813 c 0xdc
 361 813 411 784 454 784 c 0
 485 784 500 799 507 816 c 1
 545 816 l 1
 531 744 502 706 443 706 c 0xec
 391 706 349 735 305 735 c 0
 271 735 257 718 250 701 c 1
EndSplineSet
Substitution2: "'c2sc' Capitals to Small Capitals in Latin lookup 5 subtable" Otilde.c2sc
EndChar

StartChar: uni1E4C
Encoding: 7756 7756 154
Width: 748
GlyphClass: 2
Flags: MW
HStem: -14 52<316 433 316 479> 619 50<318.5 424.5> 696 78<432.5 469.5 432.5 472.5> 725 78<288 327> 838 133<268 490 268 490> 939 32<369 490>
VStem: 45 156<241 427 241 433.5> 547 156<232.5 427.5>
AnchorPoint: "Anchor-5" 442 0 basechar 0
AnchorPoint: "Anchor-4" 376 0 basechar 0
AnchorPoint: "Anchor-2" 374 0 basechar 0
AnchorPoint: "Anchor-1" 373 970 basechar 0
LayerCount: 2
Fore
SplineSet
374 -14 m 0xd7
 163 -14 45 110 45 329 c 0
 45 538 167 669 374 669 c 0
 583 669 703 546 703 338 c 0
 703 119 584 -14 374 -14 c 0xd7
375 38 m 0
 491 38 547 130 547 335 c 0
 547 520 478 619 371 619 c 0
 266 619 201 519 201 335 c 0
 201 147 257 38 375 38 c 0
250 691 m 1
 211 691 l 1
 221 752 253 803 315 803 c 0xdb
 361 803 411 774 454 774 c 0
 485 774 500 789 507 806 c 1
 545 806 l 1
 531 734 502 696 443 696 c 0xe7
 391 696 349 725 305 725 c 0
 271 725 257 708 250 691 c 1
333 838 m 1
 268 838 l 1xdb
 369 971 l 1
 490 971 l 1
 490 939 l 1xd7
 333 838 l 1
EndSplineSet
Substitution2: "'c2sc' Capitals to Small Capitals in Latin lookup 5 subtable" uni1E4C.c2sc
EndChar

StartChar: uni1E4E
Encoding: 7758 7758 155
Width: 748
GlyphClass: 2
Flags: MW
HStem: -14 52<316 433 316 479> 619 50<318.5 424.5> 696 78<432.5 469.5 432.5 472.5> 725 78<288 327> 830 145<239 285.5 460 506.5>
VStem: 45 156<241 427 241 433.5> 188 148<880.5 924.5> 409 148<880.5 924.5> 547 156<232.5 427.5>
AnchorPoint: "Anchor-5" 442 0 basechar 0
AnchorPoint: "Anchor-4" 376 0 basechar 0
AnchorPoint: "Anchor-2" 374 0 basechar 0
AnchorPoint: "Anchor-1" 373 975 basechar 0
LayerCount: 2
Fore
SplineSet
374 -14 m 0xd480
 163 -14 45 110 45 329 c 0
 45 538 167 669 374 669 c 0
 583 669 703 546 703 338 c 0
 703 119 584 -14 374 -14 c 0xd480
375 38 m 0
 491 38 547 130 547 335 c 0
 547 520 478 619 371 619 c 0
 266 619 201 519 201 335 c 0
 201 147 257 38 375 38 c 0
250 691 m 1
 211 691 l 1
 221 752 253 803 315 803 c 0xd480
 361 803 411 774 454 774 c 0
 485 774 500 789 507 806 c 1
 545 806 l 1
 531 734 502 696 443 696 c 0xe480
 391 696 349 725 305 725 c 0
 271 725 257 708 250 691 c 1
262 830 m 0xdb
 216 830 188 858 188 902 c 0
 188 947 215 975 262 975 c 0
 309 975 336 947 336 903 c 0
 336 858 309 830 262 830 c 0xdb
483 830 m 0
 437 830 409 858 409 902 c 0
 409 947 436 975 483 975 c 0
 530 975 557 947 557 903 c 0
 557 858 530 830 483 830 c 0
EndSplineSet
Substitution2: "'c2sc' Capitals to Small Capitals in Latin lookup 5 subtable" uni1E4E.c2sc
EndChar

StartChar: Odieresis
Encoding: 214 214 156
Width: 748
GlyphClass: 2
Flags: MW
HStem: -14 52<316 433 316 479> 619 50<318.5 424.5> 700 145<239 285.5 460 506.5>
VStem: 45 156<241 427 241 433.5> 188 148<750.5 794.5> 409 148<750.5 794.5> 547 156<232.5 427.5>
AnchorPoint: "Anchor-5" 442 0 basechar 0
AnchorPoint: "Anchor-4" 376 0 basechar 0
AnchorPoint: "Anchor-2" 374 0 basechar 0
AnchorPoint: "Anchor-1" 373 845 basechar 0
LayerCount: 2
Fore
SplineSet
374 -14 m 0xd2
 163 -14 45 110 45 329 c 0
 45 538 167 669 374 669 c 0
 583 669 703 546 703 338 c 0
 703 119 584 -14 374 -14 c 0xd2
375 38 m 0
 491 38 547 130 547 335 c 0
 547 520 478 619 371 619 c 0
 266 619 201 519 201 335 c 0
 201 147 257 38 375 38 c 0
262 700 m 0xec
 216 700 188 728 188 772 c 0
 188 817 215 845 262 845 c 0
 309 845 336 817 336 773 c 0
 336 728 309 700 262 700 c 0xec
483 700 m 0
 437 700 409 728 409 772 c 0
 409 817 436 845 483 845 c 0
 530 845 557 817 557 773 c 0
 557 728 530 700 483 700 c 0
EndSplineSet
Substitution2: "'c2sc' Capitals to Small Capitals in Latin lookup 5 subtable" Odieresis.c2sc
EndChar

StartChar: Omacron
Encoding: 332 332 157
Width: 748
GlyphClass: 2
Flags: MW
HStem: -14 52<316 433 316 479> 619 50<318.5 424.5> 726 78<216 530 216 530>
VStem: 45 156<241 427 241 433.5> 547 156<232.5 427.5>
AnchorPoint: "Anchor-5" 442 0 basechar 0
AnchorPoint: "Anchor-4" 376 0 basechar 0
AnchorPoint: "Anchor-2" 374 0 basechar 0
AnchorPoint: "Anchor-1" 373 804 basechar 0
LayerCount: 2
Fore
SplineSet
374 -14 m 0
 163 -14 45 110 45 329 c 0
 45 538 167 669 374 669 c 0
 583 669 703 546 703 338 c 0
 703 119 584 -14 374 -14 c 0
375 38 m 0
 491 38 547 130 547 335 c 0
 547 520 478 619 371 619 c 0
 266 619 201 519 201 335 c 0
 201 147 257 38 375 38 c 0
530 726 m 1
 216 726 l 1
 216 804 l 1
 530 804 l 1
 530 726 l 1
EndSplineSet
Substitution2: "'c2sc' Capitals to Small Capitals in Latin lookup 5 subtable" Omacron.c2sc
EndChar

StartChar: uni1E50
Encoding: 7760 7760 158
Width: 748
GlyphClass: 2
Flags: MW
HStem: -14 52<316 433 316 479> 619 50<318.5 424.5> 716 78<216 530 216 530> 828 133<256 478 256 413> 929 32<256 377>
VStem: 45 156<241 427 241 433.5> 547 156<232.5 427.5>
AnchorPoint: "Anchor-5" 442 0 basechar 0
AnchorPoint: "Anchor-4" 376 0 basechar 0
AnchorPoint: "Anchor-2" 374 0 basechar 0
AnchorPoint: "Anchor-1" 373 961 basechar 0
LayerCount: 2
Fore
SplineSet
374 -14 m 0xee
 163 -14 45 110 45 329 c 0
 45 538 167 669 374 669 c 0
 583 669 703 546 703 338 c 0
 703 119 584 -14 374 -14 c 0xee
375 38 m 0
 491 38 547 130 547 335 c 0
 547 520 478 619 371 619 c 0
 266 619 201 519 201 335 c 0
 201 147 257 38 375 38 c 0
530 716 m 1
 216 716 l 1
 216 794 l 1
 530 794 l 1
 530 716 l 1
478 828 m 1xf6
 413 828 l 1xf6
 256 929 l 1
 256 961 l 1
 377 961 l 1xee
 478 828 l 1xf6
EndSplineSet
Substitution2: "'c2sc' Capitals to Small Capitals in Latin lookup 5 subtable" uni1E50.c2sc
EndChar

StartChar: uni1E52
Encoding: 7762 7762 159
Width: 748
GlyphClass: 2
Flags: MW
HStem: -14 52<316 433 316 479> 619 50<318.5 424.5> 716 78<216 530 216 530> 828 133<268 490 268 490> 929 32<369 490>
VStem: 45 156<241 427 241 433.5> 547 156<232.5 427.5>
AnchorPoint: "Anchor-5" 442 0 basechar 0
AnchorPoint: "Anchor-4" 376 0 basechar 0
AnchorPoint: "Anchor-2" 374 0 basechar 0
AnchorPoint: "Anchor-1" 373 960 basechar 0
LayerCount: 2
Fore
SplineSet
374 -14 m 0xee
 163 -14 45 110 45 329 c 0
 45 538 167 669 374 669 c 0
 583 669 703 546 703 338 c 0
 703 119 584 -14 374 -14 c 0xee
375 38 m 0
 491 38 547 130 547 335 c 0
 547 520 478 619 371 619 c 0
 266 619 201 519 201 335 c 0
 201 147 257 38 375 38 c 0
530 716 m 1
 216 716 l 1
 216 794 l 1
 530 794 l 1
 530 716 l 1
333 828 m 1xf6
 268 828 l 1xf6
 369 961 l 1
 490 961 l 1
 490 929 l 1xee
 333 828 l 1xf6
EndSplineSet
Substitution2: "'c2sc' Capitals to Small Capitals in Latin lookup 5 subtable" uni1E52.c2sc
EndChar

StartChar: Obreve
Encoding: 334 334 160
Width: 748
GlyphClass: 2
Flags: MW
HStem: -14 52<316 433 316 479> 619 50<318.5 424.5> 700 79<345 399 345 419>
VStem: 45 156<241 427 241 433.5> 214 42<850 850> 547 156<232.5 427.5>
AnchorPoint: "Anchor-5" 442 0 basechar 0
AnchorPoint: "Anchor-4" 376 0 basechar 0
AnchorPoint: "Anchor-2" 374 0 basechar 0
AnchorPoint: "Anchor-1" 373 850 basechar 0
LayerCount: 2
Fore
SplineSet
374 -14 m 0
 163 -14 45 110 45 329 c 0
 45 538 167 669 374 669 c 0
 583 669 703 546 703 338 c 0
 703 119 584 -14 374 -14 c 0
375 38 m 0
 491 38 547 130 547 335 c 0
 547 520 478 619 371 619 c 0
 266 619 201 519 201 335 c 0
 201 147 257 38 375 38 c 0
373 700 m 0xfc
 280 700 218 744 214 850 c 1
 256 850 l 1
 267 803 318 779 372 779 c 0
 426 779 476 803 489 850 c 1
 531 850 l 1
 520 744 465 700 373 700 c 0xfc
EndSplineSet
Substitution2: "'c2sc' Capitals to Small Capitals in Latin lookup 5 subtable" Obreve.c2sc
EndChar

StartChar: uni1ECE
Encoding: 7886 7886 161
Width: 748
GlyphClass: 2
Flags: MW
HStem: -14 52<316 433 316 479> 619 50<318.5 424.5> 698 53<337 397 337 337> 865 40<351.5 380.5>
VStem: 45 156<241 427 241 433.5> 337 60<698 727 698 751 698 751> 399 87<794.5 838> 547 156<232.5 427.5>
AnchorPoint: "Anchor-5" 442 0 basechar 0
AnchorPoint: "Anchor-4" 376 0 basechar 0
AnchorPoint: "Anchor-2" 374 0 basechar 0
AnchorPoint: "Anchor-0" 374 657 basechar 0
LayerCount: 2
Fore
SplineSet
374 -14 m 0
 163 -14 45 110 45 329 c 0
 45 538 167 669 374 669 c 0
 583 669 703 546 703 338 c 0
 703 119 584 -14 374 -14 c 0
375 38 m 0
 491 38 547 130 547 335 c 0
 547 520 478 619 371 619 c 0
 266 619 201 519 201 335 c 0
 201 147 257 38 375 38 c 0
397 698 m 1xfd
 337 698 l 1
 337 751 l 1xfd
 382 752 399 770 399 819 c 0
 399 857 389 865 372 865 c 0
 331 865 345 818 307 818 c 0
 285 818 273 833 273 850 c 0
 273 887 325 905 376 905 c 0
 448 905 486 868 486 817 c 0xfb
 486 756 429 733 397 727 c 1
 397 698 l 1xfd
EndSplineSet
Substitution2: "'c2sc' Capitals to Small Capitals in Latin lookup 5 subtable" uni1ECE.c2sc
EndChar

StartChar: Ohungarumlaut
Encoding: 336 336 162
Width: 748
GlyphClass: 2
Flags: MW
HStem: -14 52<316 433 316 479> 619 50<318.5 424.5> 698 133<229 432 229 432 409 409 409 432 311 474> 799 32<311 432>
VStem: 45 156<241 427 241 433.5> 547 156<232.5 427.5>
AnchorPoint: "Anchor-5" 442 0 basechar 0
AnchorPoint: "Anchor-4" 376 0 basechar 0
AnchorPoint: "Anchor-2" 374 0 basechar 0
AnchorPoint: "Anchor-1" 373 831 basechar 0
LayerCount: 2
Fore
SplineSet
374 -14 m 0xdc
 163 -14 45 110 45 329 c 0
 45 538 167 669 374 669 c 0
 583 669 703 546 703 338 c 0
 703 119 584 -14 374 -14 c 0xdc
375 38 m 0
 491 38 547 130 547 335 c 0
 547 520 478 619 371 619 c 0
 266 619 201 519 201 335 c 0
 201 147 257 38 375 38 c 0
294 698 m 1xec
 229 698 l 1
 311 831 l 1
 432 831 l 1xec
 432 799 l 1xdc
 294 698 l 1xec
474 698 m 1
 409 698 l 1
 491 831 l 1
 612 831 l 1xec
 612 799 l 1xdc
 474 698 l 1
EndSplineSet
Substitution2: "'c2sc' Capitals to Small Capitals in Latin lookup 5 subtable" Ohungarumlaut.c2sc
EndChar

StartChar: uni1ECC
Encoding: 7884 7884 163
Width: 748
GlyphClass: 2
Flags: MW
HStem: -220 156<348 399.5> -14 52<316 433 316 479> 619 50<318.5 424.5>
VStem: 45 156<241 427 241 433.5> 292 162<-165 -118.5> 547 156<232.5 427.5>
AnchorPoint: "Anchor-5" 442 0 basechar 0
AnchorPoint: "Anchor-4" 376 0 basechar 0
AnchorPoint: "Anchor-3" 373 -220 basechar 0
AnchorPoint: "Anchor-0" 374 657 basechar 0
LayerCount: 2
Fore
SplineSet
374 -14 m 0
 163 -14 45 110 45 329 c 0
 45 538 167 669 374 669 c 0
 583 669 703 546 703 338 c 0
 703 119 584 -14 374 -14 c 0
375 38 m 0
 491 38 547 130 547 335 c 0
 547 520 478 619 371 619 c 0
 266 619 201 519 201 335 c 0
 201 147 257 38 375 38 c 0
373 -220 m 0
 323 -220 292 -189 292 -142 c 0
 292 -95 322 -64 373 -64 c 0
 426 -64 454 -95 454 -141 c 0
 454 -189 426 -220 373 -220 c 0
EndSplineSet
Substitution2: "'c2sc' Capitals to Small Capitals in Latin lookup 5 subtable" uni1ECC.c2sc
EndChar

StartChar: Ohorn
Encoding: 416 416 164
Width: 749
GlyphClass: 2
Flags: MW
HStem: -14 52<318 435 318 478.5> 604 39<629.5 630.5 560.5 684.5> 619 50<320.5 412.5 268.5 426.5> 795 20G<681 711>
VStem: 46 156<238.5 426 238.5 431> 548 156<230 398.5 227 424> 642 121<749 762 709 782> 676 87<668.5 762>
AnchorPoint: "Anchor-5" 442 0 basechar 0
AnchorPoint: "Anchor-4" 376 0 basechar 0
AnchorPoint: "Anchor-2" 375 0 basechar 0
AnchorPoint: "Anchor-0" 375 657 basechar 0
LayerCount: 2
Fore
SplineSet
372 -14 m 0xbc
 164 -14 46 114 46 324 c 0xbc
 46 538 169 669 368 669 c 0
 457 669 519 643 602 643 c 0
 659 643 676 655 676 682 c 0xd9
 676 720 642 731 642 767 c 0xba
 642 797 667 815 695 815 c 0
 727 815 763 790 763 734 c 0xd9
 763 684 734 604 635 604 c 0
 624 604 606 605 596 607 c 1
 596 601 l 1xdc
 663 547 704 462 704 335 c 0
 704 119 585 -14 372 -14 c 0xbc
378 38 m 0
 492 38 548 138 548 322 c 0
 548 526 479 619 374 619 c 0
 267 619 202 523 202 329 c 0
 202 148 258 38 378 38 c 0
EndSplineSet
Substitution2: "'c2sc' Capitals to Small Capitals in Latin lookup 5 subtable" Ohorn.c2sc
EndChar

StartChar: uni1EDC
Encoding: 7900 7900 165
Width: 749
GlyphClass: 2
Flags: MW
HStem: -14 52<318 435 318 478.5> 604 39<629.5 630.5 560.5 684.5> 619 50<320.5 412.5 268.5 426.5> 698 133<257 479 257 414> 795 20G<681 711> 799 32<257 378>
VStem: 46 156<238.5 426 238.5 431> 548 156<230 398.5 227 424> 642 121<749 762 709 782> 676 87<668.5 762>
AnchorPoint: "Anchor-5" 442 0 basechar 0
AnchorPoint: "Anchor-4" 376 0 basechar 0
AnchorPoint: "Anchor-2" 375 0 basechar 0
AnchorPoint: "Anchor-1" 374 831 basechar 0
LayerCount: 2
Fore
SplineSet
372 -14 m 0xab
 164 -14 46 114 46 324 c 0xab
 46 538 169 669 368 669 c 0
 457 669 519 643 602 643 c 0
 659 643 676 655 676 682 c 0xca40
 676 720 642 731 642 767 c 0xaa80
 642 797 667 815 695 815 c 0
 727 815 763 790 763 734 c 0xca40
 763 684 734 604 635 604 c 0
 624 604 606 605 596 607 c 1
 596 601 l 1xcb
 663 547 704 462 704 335 c 0
 704 119 585 -14 372 -14 c 0xab
378 38 m 0
 492 38 548 138 548 322 c 0
 548 526 479 619 374 619 c 0
 267 619 202 523 202 329 c 0
 202 148 258 38 378 38 c 0
479 698 m 1xb3
 414 698 l 1xb3
 257 799 l 1
 257 831 l 1
 378 831 l 1xa7
 479 698 l 1xb3
EndSplineSet
Substitution2: "'c2sc' Capitals to Small Capitals in Latin lookup 5 subtable" uni1EDC.c2sc
EndChar

StartChar: uni1EDA
Encoding: 7898 7898 166
Width: 749
GlyphClass: 2
Flags: MW
HStem: -14 52<318 435 318 478.5> 604 39<629.5 630.5 560.5 684.5> 619 50<320.5 412.5 268.5 426.5> 698 133<269 491 269 491> 795 20G<681 711> 799 32<370 491>
VStem: 46 156<238.5 426 238.5 431> 548 156<230 398.5 227 424> 642 121<749 762 709 782> 676 87<668.5 762>
AnchorPoint: "Anchor-5" 442 0 basechar 0
AnchorPoint: "Anchor-4" 376 0 basechar 0
AnchorPoint: "Anchor-2" 375 0 basechar 0
AnchorPoint: "Anchor-1" 374 830 basechar 0
LayerCount: 2
Fore
SplineSet
372 -14 m 0xab
 164 -14 46 114 46 324 c 0xab
 46 538 169 669 368 669 c 0
 457 669 519 643 602 643 c 0
 659 643 676 655 676 682 c 0xca40
 676 720 642 731 642 767 c 0xaa80
 642 797 667 815 695 815 c 0
 727 815 763 790 763 734 c 0xca40
 763 684 734 604 635 604 c 0
 624 604 606 605 596 607 c 1
 596 601 l 1xcb
 663 547 704 462 704 335 c 0
 704 119 585 -14 372 -14 c 0xab
378 38 m 0
 492 38 548 138 548 322 c 0
 548 526 479 619 374 619 c 0
 267 619 202 523 202 329 c 0
 202 148 258 38 378 38 c 0
334 698 m 1xb3
 269 698 l 1xb3
 370 831 l 1
 491 831 l 1
 491 799 l 1xa7
 334 698 l 1xb3
EndSplineSet
Substitution2: "'c2sc' Capitals to Small Capitals in Latin lookup 5 subtable" uni1EDA.c2sc
EndChar

StartChar: uni1EE0
Encoding: 7904 7904 167
Width: 749
GlyphClass: 2
Flags: MW
HStem: -14 52<318 435 318 478.5> 604 39<629.5 630.5 560.5 684.5> 619 50<320.5 412.5 268.5 426.5> 706 78<433.5 470.5 433.5 473.5> 735 78<289 328>
VStem: 46 156<238.5 426 238.5 431> 548 156<230 398.5 227 424> 642 121<749 762 709 782> 676 87<668.5 762>
AnchorPoint: "Anchor-5" 442 0 basechar 0
AnchorPoint: "Anchor-4" 376 0 basechar 0
AnchorPoint: "Anchor-2" 375 0 basechar 0
AnchorPoint: "Anchor-1" 374 813 basechar 0
LayerCount: 2
Fore
SplineSet
372 -14 m 0xae
 164 -14 46 114 46 324 c 0xae
 46 538 169 669 368 669 c 0
 457 669 519 643 602 643 c 0
 659 643 676 655 676 682 c 0xcc80
 676 720 642 731 642 767 c 0xad
 642 797 667 815 695 815 c 0
 727 815 763 790 763 734 c 0xcc80
 763 684 734 604 635 604 c 0
 624 604 606 605 596 607 c 1
 596 601 l 1xce
 663 547 704 462 704 335 c 0
 704 119 585 -14 372 -14 c 0xae
378 38 m 0
 492 38 548 138 548 322 c 0
 548 526 479 619 374 619 c 0
 267 619 202 523 202 329 c 0
 202 148 258 38 378 38 c 0
251 701 m 1
 212 701 l 1
 222 762 254 813 316 813 c 0xae
 362 813 412 784 455 784 c 0
 486 784 501 799 508 816 c 1
 546 816 l 1
 532 744 503 706 444 706 c 0xb6
 392 706 350 735 306 735 c 0
 272 735 258 718 251 701 c 1
EndSplineSet
Substitution2: "'c2sc' Capitals to Small Capitals in Latin lookup 5 subtable" uni1EE0.c2sc
EndChar

StartChar: uni1EDE
Encoding: 7902 7902 168
Width: 749
GlyphClass: 2
Flags: MW
HStem: -14 52<318 435 318 478.5> 604 39<629.5 630.5 560.5 684.5> 619 50<320.5 412.5 268.5 426.5> 698 53<338 398 338 338> 795 20G<681 711> 865 40<352.5 381.5>
VStem: 46 156<238.5 426 238.5 431> 338 60<698 727 698 751 698 751> 400 87<794.5 838> 548 156<230 398.5 227 424> 642 121<749 762 709 782> 676 87<668.5 762>
AnchorPoint: "Anchor-5" 442 0 basechar 0
AnchorPoint: "Anchor-4" 376 0 basechar 0
AnchorPoint: "Anchor-2" 375 0 basechar 0
AnchorPoint: "Anchor-0" 375 657 basechar 0
LayerCount: 2
Fore
SplineSet
372 -14 m 0xaf40
 164 -14 46 114 46 324 c 0xaf40
 46 538 169 669 368 669 c 0
 457 669 519 643 602 643 c 0
 659 643 676 655 676 682 c 0xcf10
 676 720 642 731 642 767 c 0xaf20
 642 797 667 815 695 815 c 0
 727 815 763 790 763 734 c 0xcf10
 763 684 734 604 635 604 c 0
 624 604 606 605 596 607 c 1
 596 601 l 1xcf40
 663 547 704 462 704 335 c 0
 704 119 585 -14 372 -14 c 0xaf40
378 38 m 0
 492 38 548 138 548 322 c 0
 548 526 479 619 374 619 c 0
 267 619 202 523 202 329 c 0
 202 148 258 38 378 38 c 0
398 698 m 1xbf40
 338 698 l 1
 338 751 l 1xbf40
 383 752 400 770 400 819 c 0
 400 857 390 865 373 865 c 0
 332 865 346 818 308 818 c 0
 286 818 274 833 274 850 c 0
 274 887 326 905 377 905 c 0
 449 905 487 868 487 817 c 0xbec0
 487 756 430 733 398 727 c 1
 398 698 l 1xbf40
EndSplineSet
Substitution2: "'c2sc' Capitals to Small Capitals in Latin lookup 5 subtable" uni1EDE.c2sc
EndChar

StartChar: uni1EE2
Encoding: 7906 7906 169
Width: 749
GlyphClass: 2
Flags: MW
HStem: -220 156<349 400.5> -14 52<318 435 318 478.5> 604 39<629.5 630.5 560.5 684.5> 619 50<320.5 412.5 268.5 426.5> 795 20G<681 711>
VStem: 46 156<238.5 426 238.5 431> 293 162<-165 -118.5> 548 156<230 398.5 227 424> 642 121<749 762 709 782> 676 87<668.5 762>
AnchorPoint: "Anchor-5" 442 0 basechar 0
AnchorPoint: "Anchor-4" 376 0 basechar 0
AnchorPoint: "Anchor-3" 374 -220 basechar 0
AnchorPoint: "Anchor-0" 375 657 basechar 0
LayerCount: 2
Fore
SplineSet
372 -14 m 0xdd
 164 -14 46 114 46 324 c 0xdd
 46 538 169 669 368 669 c 0
 457 669 519 643 602 643 c 0
 659 643 676 655 676 682 c 0xec40
 676 720 642 731 642 767 c 0xdc80
 642 797 667 815 695 815 c 0
 727 815 763 790 763 734 c 0xec40
 763 684 734 604 635 604 c 0
 624 604 606 605 596 607 c 1
 596 601 l 1xed
 663 547 704 462 704 335 c 0
 704 119 585 -14 372 -14 c 0xdd
378 38 m 0
 492 38 548 138 548 322 c 0
 548 526 479 619 374 619 c 0
 267 619 202 523 202 329 c 0
 202 148 258 38 378 38 c 0
374 -220 m 0xdf
 324 -220 293 -189 293 -142 c 0
 293 -95 323 -64 374 -64 c 0
 427 -64 455 -95 455 -141 c 0
 455 -189 427 -220 374 -220 c 0xdf
EndSplineSet
Substitution2: "'c2sc' Capitals to Small Capitals in Latin lookup 5 subtable" uni1EE2.c2sc
EndChar

StartChar: Oslash
Encoding: 216 216 170
Width: 749
GlyphClass: 2
Flags: MW
HStem: -14 52<345 434 345 480> 79 21G<127 127> 613 20G 619 50<319.5 404>
VStem: 46 156<308 427 308 433.5> 548 156<232.5 357>
AnchorPoint: "Anchor-5" 442 0 basechar 0
AnchorPoint: "Anchor-4" 376 0 basechar 0
AnchorPoint: "Anchor-2" 374 0 basechar 0
AnchorPoint: "Anchor-0" 374 657 basechar 0
LayerCount: 2
Fore
SplineSet
375 -14 m 0xdc
 295 -14 229 4 177 37 c 1
 132 -16 l 1
 82 26 l 1
 127 79 l 1
 74 138 46 222 46 329 c 0
 46 538 168 669 375 669 c 0
 458 669 526 649 579 613 c 1
 632 675 l 1xdc
 682 633 l 1
 628 569 l 1xec
 678 512 704 433 704 338 c 0
 704 119 585 -14 375 -14 c 0xdc
218 186 m 1
 509 530 l 1
 480 585 436 619 372 619 c 0
 267 619 202 519 202 335 c 0
 202 281 207 230 218 186 c 1
376 38 m 0
 492 38 548 130 548 335 c 0
 548 379 544 421 535 459 c 1
 245 117 l 1
 272 68 314 38 376 38 c 0
EndSplineSet
Substitution2: "'c2sc' Capitals to Small Capitals in Latin lookup 5 subtable" Oslash.c2sc
EndChar

StartChar: Oslashacute
Encoding: 510 510 171
Width: 749
GlyphClass: 2
Flags: MW
HStem: -14 52<345 434 345 480> 79 21G<127 127> 613 20G 619 50<319.5 404> 698 133<269 491 269 491> 799 32<370 491>
VStem: 46 156<308 427 308 433.5> 548 156<232.5 357>
AnchorPoint: "Anchor-5" 442 0 basechar 0
AnchorPoint: "Anchor-4" 376 0 basechar 0
AnchorPoint: "Anchor-2" 374 0 basechar 0
AnchorPoint: "Anchor-1" 374 830 basechar 0
LayerCount: 2
Fore
SplineSet
375 -14 m 0xd7
 295 -14 229 4 177 37 c 1
 132 -16 l 1
 82 26 l 1
 127 79 l 1
 74 138 46 222 46 329 c 0
 46 538 168 669 375 669 c 0
 458 669 526 649 579 613 c 1
 632 675 l 1xd7
 682 633 l 1
 628 569 l 1xe7
 678 512 704 433 704 338 c 0
 704 119 585 -14 375 -14 c 0xd7
218 186 m 1
 509 530 l 1
 480 585 436 619 372 619 c 0
 267 619 202 519 202 335 c 0
 202 281 207 230 218 186 c 1
376 38 m 0
 492 38 548 130 548 335 c 0
 548 379 544 421 535 459 c 1
 245 117 l 1
 272 68 314 38 376 38 c 0
334 698 m 1xdb
 269 698 l 1xdb
 370 831 l 1
 491 831 l 1
 491 799 l 1xd7
 334 698 l 1xdb
EndSplineSet
Substitution2: "'c2sc' Capitals to Small Capitals in Latin lookup 5 subtable" Oslashacute.c2sc
EndChar

StartChar: OE
Encoding: 338 338 172
Width: 1007
GlyphClass: 2
Flags: MW
HStem: -14 52<316 389.5> 0 61<623 741 741 806.5> 310 54<623 712 623 712> 476 181<899 944 479 950 899 899> 594 63<623 755 623 623> 619 50<318.5 390.5 270.5 405>
VStem: 45 156<241 427 241 433.5> 475 148<126 310 364 523 523 557> 821 47<218 259.5 410 449>
AnchorPoint: "Anchor-5" 858 0 basechar 0
AnchorPoint: "Anchor-4" 536 0 basechar 0
AnchorPoint: "Anchor-2" 535 0 basechar 0
AnchorPoint: "Anchor-0" 554 657 basechar 0
LayerCount: 2
Fore
SplineSet
374 -14 m 0xab80
 163 -14 45 110 45 329 c 0
 45 538 167 669 374 669 c 0x6780
 407 669 449 665 479 657 c 1
 944 657 l 1x6b80
 950 476 l 1
 899 476 l 1x7380
 884 566 866 594 755 594 c 2
 623 594 l 1
 623 364 l 1
 712 364 l 2
 812 364 821 371 821 449 c 1
 868 449 l 1
 868 218 l 1
 821 218 l 1
 821 301 812 310 712 310 c 2
 623 310 l 1
 623 61 l 1
 741 61 l 2
 872 61 900 87 931 197 c 1
 979 197 l 1
 955 0 l 1
 483 0 l 1x6b80
 454 -6 405 -14 374 -14 c 0xab80
375 38 m 0xa780
 440 38 475 52 475 126 c 2
 475 523 l 2
 475 591 439 619 371 619 c 0
 266 619 201 519 201 335 c 0
 201 147 257 38 375 38 c 0xa780
EndSplineSet
Substitution2: "'c2sc' Capitals to Small Capitals in Latin lookup 5 subtable" OE.c2sc
EndChar

StartChar: uni1E54
Encoding: 7764 7764 173
Width: 648
GlyphClass: 2
Flags: MW
HStem: 0 43<35 77.5 337.5 389 35 77.5> 272 58<340 376 315.5 423> 608 49<317 358 358 377> 614 43<35 70> 698 133<219 441 219 441> 799 32<320 441>
VStem: 128 149<139 284 335 535 535 567.5> 467 154<414.5 520>
AnchorPoint: "Anchor-5" 220 0 basechar 0
AnchorPoint: "Anchor-4" 211 0 basechar 0
AnchorPoint: "Anchor-2" 198 0 basechar 0
AnchorPoint: "Anchor-1" 324 830 basechar 0
LayerCount: 2
Fore
SplineSet
389 0 m 1xe7
 35 0 l 1
 35 43 l 1
 120 43 128 56 128 139 c 2
 128 535 l 2
 128 600 105 614 35 614 c 1xd7
 35 657 l 1
 358 657 l 2
 495 657 621 628 621 481 c 0
 621 320 494 272 352 272 c 0
 328 272 299 279 277 284 c 1
 277 136 l 2
 277 55 286 43 389 43 c 1
 389 0 l 1xe7
330 330 m 0
 422 330 467 355 467 474 c 0
 467 566 428 608 326 608 c 0
 308 608 297 607 277 605 c 1xe7
 277 335 l 1
 291 333 301 330 330 330 c 0
284 698 m 1xeb
 219 698 l 1xeb
 320 831 l 1
 441 831 l 1
 441 799 l 1xe7
 284 698 l 1xeb
EndSplineSet
Substitution2: "'c2sc' Capitals to Small Capitals in Latin lookup 5 subtable" uni1E54.c2sc
EndChar

StartChar: uni1E56
Encoding: 7766 7766 174
Width: 648
GlyphClass: 2
Flags: MW
HStem: 0 43<35 77.5 337.5 389 35 77.5> 272 58<340 376 315.5 423> 608 49<317 358 358 377> 614 43<35 70> 695 153<299.5 350.5>
VStem: 128 149<139 284 335 535 535 567.5> 244 161<748.5 795> 467 154<414.5 520>
AnchorPoint: "Anchor-5" 220 0 basechar 0
AnchorPoint: "Anchor-4" 211 0 basechar 0
AnchorPoint: "Anchor-2" 198 0 basechar 0
AnchorPoint: "Anchor-1" 325 848 basechar 0
LayerCount: 2
Fore
SplineSet
389 0 m 1xe5
 35 0 l 1
 35 43 l 1
 120 43 128 56 128 139 c 2
 128 535 l 2
 128 600 105 614 35 614 c 1xd5
 35 657 l 1
 358 657 l 2
 495 657 621 628 621 481 c 0
 621 320 494 272 352 272 c 0
 328 272 299 279 277 284 c 1
 277 136 l 2
 277 55 286 43 389 43 c 1
 389 0 l 1xe5
330 330 m 0
 422 330 467 355 467 474 c 0
 467 566 428 608 326 608 c 0
 308 608 297 607 277 605 c 1xe5
 277 335 l 1
 291 333 301 330 330 330 c 0
325 695 m 0xeb
 274 695 244 725 244 772 c 0
 244 818 274 848 325 848 c 0
 377 848 405 818 405 772 c 0
 405 725 376 695 325 695 c 0xeb
EndSplineSet
Substitution2: "'c2sc' Capitals to Small Capitals in Latin lookup 5 subtable" uni1E56.c2sc
EndChar

StartChar: Racute
Encoding: 340 340 175
Width: 729
GlyphClass: 2
Flags: MW
HStem: 0 43<35 73 333 376 35 73 716 739> 290 48.5 608 49<326.5 361 361 383.5> 614 43<35 75> 698 133<245 467 245 467> 799 32<346 467>
VStem: 128 149<136 290 339 536 536 565.5> 468 155<434 520>
AnchorPoint: "Anchor-5" 376 0 basechar 0
AnchorPoint: "Anchor-4" 371 0 basechar 0
AnchorPoint: "Anchor-2" 365 0 basechar 0
AnchorPoint: "Anchor-1" 350 830 basechar 0
LayerCount: 2
Fore
SplineSet
376 0 m 1xe7
 35 0 l 1
 35 43 l 1
 111 43 128 54 128 136 c 2
 128 536 l 2
 128 595 115 614 35 614 c 1xd7
 35 657 l 1
 361 657 l 2
 500 657 623 616 623 489 c 0
 623 379 548 337 465 318 c 1
 465 313 l 1
 497 292 525 245 633 94 c 0
 664 50 693 43 739 43 c 1
 739 0 l 1
 512 0 l 1
 422 161 403 190 363 255 c 0
 345 286 331 290 297 290 c 2
 277 290 l 1
 277 135 l 2
 277 54 290 43 376 43 c 1
 376 0 l 1xe7
277 339 m 1
 315 338 l 1
 415 343 468 373 468 482 c 0
 468 558 430 608 337 608 c 0
 316 608 296 608 277 605 c 1xeb
 277 339 l 1
310 698 m 1
 245 698 l 1xeb
 346 831 l 1
 467 831 l 1
 467 799 l 1xe7
 310 698 l 1
EndSplineSet
Substitution2: "'c2sc' Capitals to Small Capitals in Latin lookup 5 subtable" Racute.c2sc
EndChar

StartChar: Rcaron
Encoding: 344 344 176
Width: 729
GlyphClass: 2
Flags: MW
HStem: 0 43<35 73 333 376 35 73 716 739> 290 48.5 608 49<326.5 361 361 383.5> 614 43<35 75> 698 139<184 397 184 304>
VStem: 128 149<136 290 339 536 536 565.5> 468 155<434 520>
AnchorPoint: "Anchor-5" 376 0 basechar 0
AnchorPoint: "Anchor-4" 371 0 basechar 0
AnchorPoint: "Anchor-2" 365 0 basechar 0
AnchorPoint: "Anchor-1" 350 837 basechar 0
LayerCount: 2
Fore
SplineSet
376 0 m 1xee
 35 0 l 1
 35 43 l 1
 111 43 128 54 128 136 c 2
 128 536 l 2
 128 595 115 614 35 614 c 1xde
 35 657 l 1
 361 657 l 2
 500 657 623 616 623 489 c 0
 623 379 548 337 465 318 c 1
 465 313 l 1
 497 292 525 245 633 94 c 0
 664 50 693 43 739 43 c 1
 739 0 l 1
 512 0 l 1
 422 161 403 190 363 255 c 0
 345 286 331 290 297 290 c 2
 277 290 l 1
 277 135 l 2
 277 54 290 43 376 43 c 1
 376 0 l 1xee
277 339 m 1
 315 338 l 1
 415 343 468 373 468 482 c 0
 468 558 430 608 337 608 c 0
 316 608 296 608 277 605 c 1xee
 277 339 l 1
397 698 m 1
 304 698 l 1
 184 837 l 1
 246 837 l 1
 350 769 l 1
 452 837 l 1
 515 837 l 1
 397 698 l 1
EndSplineSet
Substitution2: "'c2sc' Capitals to Small Capitals in Latin lookup 5 subtable" Rcaron.c2sc
EndChar

StartChar: uni1E5C
Encoding: 7772 7772 177
Width: 729
GlyphClass: 2
Flags: MW
HStem: -220 156<340 391.5> 0 43<35 73 333 376 35 73 716 739> 290 48.5 608 49<326.5 361 361 383.5> 614 43<35 75> 726 78<193 507 193 507>
VStem: 128 149<136 290 339 536 536 565.5> 193 84 284 162<-165 -118.5> 468 155<434 520>
AnchorPoint: "Anchor-5" 376 0 basechar 0
AnchorPoint: "Anchor-4" 371 0 basechar 0
AnchorPoint: "Anchor-3" 365 -220 basechar 0
AnchorPoint: "Anchor-1" 350 804 basechar 0
LayerCount: 2
Fore
SplineSet
376 0 m 1xf640
 35 0 l 1
 35 43 l 1
 111 43 128 54 128 136 c 2
 128 536 l 2
 128 595 115 614 35 614 c 1xee40
 35 657 l 1
 361 657 l 2
 500 657 623 616 623 489 c 0
 623 379 548 337 465 318 c 1
 465 313 l 1
 497 292 525 245 633 94 c 0
 664 50 693 43 739 43 c 1
 739 0 l 1
 512 0 l 1
 422 161 403 190 363 255 c 0
 345 286 331 290 297 290 c 2
 277 290 l 1
 277 135 l 2
 277 54 290 43 376 43 c 1
 376 0 l 1xf640
277 339 m 1
 315 338 l 1
 415 343 468 373 468 482 c 0
 468 558 430 608 337 608 c 0
 316 608 296 608 277 605 c 1xf640
 277 339 l 1
507 726 m 1
 193 726 l 1
 193 804 l 1xf540
 507 804 l 1
 507 726 l 1
365 -220 m 0xf4c0
 315 -220 284 -189 284 -142 c 0
 284 -95 314 -64 365 -64 c 0
 418 -64 446 -95 446 -141 c 0
 446 -189 418 -220 365 -220 c 0xf4c0
EndSplineSet
Substitution2: "'c2sc' Capitals to Small Capitals in Latin lookup 5 subtable" uni1E5C.c2sc
EndChar

